<?xml version="1.0" encoding="UTF-8" standalone="no"?>
<!-- Created with Inkscape (http://www.inkscape.org/) -->

<svg
   width="18.419939mm"
   height="20.30419mm"
   viewBox="0 0 18.419939 20.30419"
   version="1.1"
   id="svg5"
   xml:space="preserve"
   sodipodi:docname="logoIcon.svg"
   inkscape:version="1.2.1 (9c6d41e410, 2022-07-14)"
   xmlns:inkscape="http://www.inkscape.org/namespaces/inkscape"
   xmlns:sodipodi="http://sodipodi.sourceforge.net/DTD/sodipodi-0.dtd"
   xmlns="http://www.w3.org/2000/svg"
   xmlns:svg="http://www.w3.org/2000/svg"><sodipodi:namedview
     id="namedview7"
     pagecolor="#ffffff"
     bordercolor="#000000"
     borderopacity="0.25"
     inkscape:showpageshadow="2"
     inkscape:pageopacity="0.0"
     inkscape:pagecheckerboard="0"
     inkscape:deskcolor="#d1d1d1"
     inkscape:document-units="mm"
     showgrid="false"
     inkscape:zoom="4.2179991"
     inkscape:cx="-14.106214"
     inkscape:cy="12.32812"
     inkscape:window-width="1920"
     inkscape:window-height="1017"
     inkscape:window-x="1912"
     inkscape:window-y="-8"
     inkscape:window-maximized="1"
     inkscape:current-layer="layer1" /><defs
     id="defs2" /><g
     inkscape:label="Layer 1"
     inkscape:groupmode="layer"
     id="layer1"
     transform="translate(-76.848212,-129.88371)"><path
       id="path1018"
       style="fill:#ffffff;fill-opacity:1;stroke-width:0.253895"
       d="m 90.937822,129.88371 c -0.007,0 -0.01345,0.001 -0.02015,0.003 -0.007,0.002 -0.01314,0.005 -0.01964,0.0103 -0.007,0.004 -0.01282,0.0101 -0.01912,0.0165 -0.006,0.006 -0.01292,0.0132 -0.01912,0.0217 -0.0125,0.0171 -0.02427,0.039 -0.03617,0.0641 -0.0119,0.0251 -0.02342,0.054 -0.03462,0.0868 -0.0112,0.0328 -0.02247,0.0694 -0.03307,0.10956 -0.0105,0.0402 -0.02069,0.0841 -0.03049,0.13125 -0.01,0.0472 -0.01891,0.0975 -0.02791,0.15142 -0.009,0.0539 -0.01806,0.11132 -0.02635,0.17156 -0.008,0.0602 -0.01586,0.12339 -0.02325,0.18965 -0.007,0.0663 -0.01417,0.13527 -0.02067,0.20723 -0.0129,0.1439 -0.02356,0.29887 -0.03256,0.46353 -0.009,0.16467 -0.01597,0.33919 -0.02067,0.52194 -0.005,0.18274 -0.0072,0.37391 -0.0072,0.57205 0,0.18702 -0.0017,0.37138 -0.0067,0.55087 -0.005,0.1795 -0.0123,0.35398 -0.0217,0.52194 -0.009,0.16795 -0.02132,0.32874 -0.03462,0.4811 -0.0134,0.15241 -0.02806,0.29658 -0.04496,0.42944 -0.008,0.0664 -0.01767,0.13041 -0.02687,0.1912 -0.009,0.0608 -0.01862,0.11847 -0.02842,0.17311 -0.01,0.0546 -0.01999,0.10548 -0.03049,0.15348 -0.0105,0.048 -0.02146,0.093 -0.03256,0.13385 -0.0111,0.0409 -0.02251,0.0784 -0.03411,0.11162 -0.0116,0.0332 -0.02314,0.0618 -0.03514,0.0868 -0.012,0.0251 -0.02429,0.0456 -0.03669,0.062 -0.006,0.008 -0.01282,0.0152 -0.01912,0.0212 -0.006,0.006 -0.0122,0.0113 -0.0186,0.015 -0.0144,0.008 -0.02867,0.0132 -0.04237,0.0155 -0.0137,0.002 -0.02679,0.001 -0.03979,-0.002 -0.0129,-0.004 -0.02552,-0.01 -0.03772,-0.0191 -0.0122,-0.009 -0.02384,-0.0213 -0.03514,-0.0362 -0.0114,-0.0148 -0.02247,-0.0324 -0.03307,-0.0527 -0.0106,-0.0203 -0.02069,-0.0431 -0.03049,-0.0687 -0.01,-0.0257 -0.019,-0.0533 -0.02791,-0.0842 -0.009,-0.0309 -0.01732,-0.0647 -0.02532,-0.10076 -0.008,-0.036 -0.01564,-0.0752 -0.02274,-0.11628 -0.007,-0.0411 -0.01395,-0.0837 -0.02015,-0.1297 -0.0123,-0.092 -0.02261,-0.19399 -0.03101,-0.3049 -0.008,-0.11092 -0.01482,-0.23173 -0.01912,-0.3607 -0.004,-0.12896 -0.0062,-0.26576 -0.0062,-0.41186 0,-0.12954 -0.0028,-0.25825 -0.0078,-0.38344 -0.005,-0.12519 -0.0123,-0.24685 -0.0217,-0.36483 -0.009,-0.11798 -0.02071,-0.23162 -0.03411,-0.33952 -0.0134,-0.10791 -0.02867,-0.21044 -0.04547,-0.3054 -0.008,-0.0475 -0.01716,-0.0932 -0.02635,-0.13695 -0.009,-0.0437 -0.01852,-0.0855 -0.02842,-0.12505 -0.01,-0.0396 -0.02051,-0.0765 -0.03101,-0.11163 -0.0105,-0.0351 -0.02094,-0.0684 -0.03204,-0.0987 -0.0111,-0.0302 -0.02251,-0.0582 -0.03411,-0.0832 -0.0116,-0.025 -0.02356,-0.0472 -0.03566,-0.0667 -0.0121,-0.0195 -0.02429,-0.0361 -0.03669,-0.0496 -0.0124,-0.0135 -0.02502,-0.0242 -0.03772,-0.0315 -0.007,-0.004 -0.01502,-0.007 -0.02222,-0.009 -0.007,-0.002 -0.01409,-0.002 -0.02119,-0.001 -0.007,9.7e-4 -0.01429,0.003 -0.02119,0.007 -0.007,0.004 -0.01387,0.008 -0.02067,0.0145 -0.007,0.006 -0.01304,0.0136 -0.01964,0.0222 -0.007,0.009 -0.01324,0.0183 -0.01964,0.0294 -0.0129,0.0223 -0.02552,0.0499 -0.03772,0.0822 -0.0122,0.0322 -0.02416,0.0691 -0.03566,0.1111 -0.0115,0.0421 -0.02279,0.0888 -0.03359,0.14056 -0.0108,0.0517 -0.0209,0.10824 -0.03101,0.1695 -0.0101,0.0613 -0.01964,0.12727 -0.02894,0.19792 -0.009,0.0707 -0.01827,0.14643 -0.02687,0.22635 -0.009,0.0799 -0.01699,0.16423 -0.02481,0.25321 -0.0155,0.17806 -0.02914,0.3744 -0.04134,0.58808 -0.0123,0.21368 -0.02324,0.4448 -0.03204,0.69298 -0.009,0.24818 -0.01589,0.51323 -0.02119,0.79478 l -0.06718,3.53157 -0.211357,-2.56935 c -0.0148,-0.18041 -0.03143,-0.35511 -0.05013,-0.52297 -0.0187,-0.16786 -0.03951,-0.32885 -0.06149,-0.4811 -0.0219,-0.15226 -0.04526,-0.29585 -0.06976,-0.42944 -0.0122,-0.0668 -0.02451,-0.1312 -0.03721,-0.19275 -0.0127,-0.0616 -0.02566,-0.12029 -0.03876,-0.17622 -0.0131,-0.0559 -0.02639,-0.10872 -0.03979,-0.15864 -0.0134,-0.0499 -0.02671,-0.097 -0.04031,-0.14056 -0.0136,-0.0435 -0.02764,-0.0836 -0.04134,-0.12041 -0.0137,-0.0368 -0.02764,-0.0701 -0.04134,-0.0997 -0.0138,-0.0296 -0.02712,-0.0554 -0.04082,-0.0775 -0.0137,-0.0221 -0.02784,-0.0406 -0.04134,-0.0548 -0.007,-0.007 -0.01335,-0.013 -0.02015,-0.0181 -0.007,-0.005 -0.01345,-0.009 -0.02015,-0.0119 -0.007,-0.003 -0.01304,-0.005 -0.01964,-0.006 -0.007,-7.8e-4 -0.01314,-8.3e-4 -0.01964,5.2e-4 -0.006,0.001 -0.01324,0.004 -0.01964,0.007 -0.006,0.003 -0.01262,0.008 -0.01912,0.0124 -0.0131,0.0106 -0.02649,0.0253 -0.03979,0.0434 -0.0133,0.0181 -0.02691,0.0399 -0.04031,0.0651 -0.0134,0.0252 -0.02691,0.0534 -0.04031,0.0853 -0.0134,0.0318 -0.02639,0.0673 -0.03979,0.10542 -0.0134,0.0381 -0.02711,0.0791 -0.04031,0.12299 -0.0132,0.0439 -0.02626,0.0907 -0.03927,0.14004 -0.013,0.0493 -0.02564,0.10071 -0.03824,0.15503 -0.0252,0.10866 -0.04956,0.22723 -0.07286,0.35347 -0.0232,0.12624 -0.04513,0.26046 -0.06563,0.40101 -0.0205,0.14055 -0.03933,0.28717 -0.05633,0.43873 -0.017,0.15158 -0.03216,0.30834 -0.04496,0.46767 l -0.185518,2.31769 -0.546737,-1.52187 c -0.0248,-0.069 -0.05083,-0.13782 -0.07803,-0.20619 -0.0273,-0.0684 -0.05608,-0.13696 -0.08578,-0.20464 -0.0297,-0.0677 -0.06008,-0.13466 -0.09198,-0.20153 -0.0319,-0.0669 -0.06512,-0.13301 -0.09922,-0.19896 -0.0341,-0.066 -0.0693,-0.13193 -0.10542,-0.19689 -0.0362,-0.065 -0.0735,-0.12942 -0.111621,-0.19327 -0.0381,-0.0638 -0.0769,-0.12701 -0.116789,-0.18965 -0.04,-0.0626 -0.08079,-0.12419 -0.122473,-0.18552 -0.0417,-0.0613 -0.0843,-0.12197 -0.127641,-0.1819 -0.0433,-0.0599 -0.0875,-0.11934 -0.132291,-0.17776 -0.0448,-0.0584 -0.09021,-0.11683 -0.136426,-0.17364 -0.0462,-0.0568 -0.0931,-0.11288 -0.14056,-0.16795 -0.0475,-0.0551 -0.09599,-0.10895 -0.144694,-0.16226 -0.0487,-0.0533 -0.0975,-0.1057 -0.147278,-0.1571 -0.0498,-0.0514 -0.100155,-0.10201 -0.150895,-0.15141 -0.0507,-0.0494 -0.101879,-0.0979 -0.153479,-0.14521 -0.0516,-0.0473 -0.103717,-0.0929 -0.156063,-0.13797 -0.05235,-0.0451 -0.105144,-0.0895 -0.15813,-0.1323 -0.05299,-0.0428 -0.106163,-0.0842 -0.15968,-0.12454 -0.05352,-0.0404 -0.107291,-0.0789 -0.16123,-0.11679 -0.05394,-0.0379 -0.108012,-0.0748 -0.162264,-0.11007 -0.05425,-0.0353 -0.108843,-0.0697 -0.163298,-0.10232 -0.05446,-0.0325 -0.108747,-0.0628 -0.163297,-0.0925 -0.05455,-0.0298 -0.10928,-0.0589 -0.163815,-0.0858 -0.05454,-0.0268 -0.108885,-0.0521 -0.163297,-0.076 -0.05441,-0.0238 -0.108602,-0.0459 -0.162781,-0.0667 -0.05418,-0.0207 -0.108427,-0.0398 -0.162264,-0.0574 -0.05384,-0.0175 -0.107328,-0.0338 -0.160714,-0.0481 -0.05339,-0.0142 -0.106854,-0.0264 -0.15968,-0.0372 -0.05283,-0.0108 -0.104938,-0.0201 -0.157096,-0.0274 -0.05216,-0.007 -0.104166,-0.0128 -0.155546,-0.0165 -0.05138,-0.004 -0.102469,-0.006 -0.152962,-0.006 -0.08795,0 -0.175093,0.003 -0.262,0.008 -0.08691,0.005 -0.173296,0.0128 -0.258899,0.0232 -0.0856,0.0104 -0.170736,0.0238 -0.254765,0.0393 -0.08403,0.0155 -0.166892,0.0334 -0.24908,0.0537 -0.08219,0.0203 -0.163835,0.0426 -0.243913,0.0677 -0.08008,0.0251 -0.158978,0.0525 -0.236678,0.0822 -0.0777,0.0296 -0.153875,0.0615 -0.228927,0.0956 -0.07506,0.0341 -0.149031,0.0707 -0.221175,0.10904 -0.07214,0.0384 -0.142392,0.0789 -0.211356,0.12144 -0.06896,0.0425 -0.136539,0.0868 -0.202055,0.13333 -0.06551,0.0466 -0.129403,0.0953 -0.191203,0.14572 -0.0618,0.0504 -0.1215,0.10294 -0.179317,0.1571 -0.05782,0.0541 -0.11335,0.1102 -0.166915,0.16795 -0.05357,0.0577 -0.10495,0.11709 -0.153996,0.17828 -0.04905,0.0612 -0.09579,0.12413 -0.140043,0.18862 -0.04426,0.0645 -0.08637,0.13027 -0.125574,0.19792 -0.02208,0.0381 -0.0421,0.075 -0.05994,0.11111 -0.01786,0.0361 -0.03322,0.0716 -0.04651,0.10645 -0.01329,0.0348 -0.02418,0.0692 -0.03256,0.10335 -0.0084,0.0342 -0.01445,0.0682 -0.01757,0.10232 -0.0031,0.0342 -0.0035,0.0685 -0.001,0.10335 0.0025,0.0348 0.0081,0.0703 0.01654,0.10646 0.0084,0.0361 0.01989,0.073 0.03462,0.1111 0.01473,0.0381 0.03237,0.0776 0.05374,0.11834 0.02137,0.0408 0.04608,0.0831 0.07441,0.12713 0.02836,0.0441 0.06043,0.0899 0.09612,0.13797 0.03569,0.048 0.07497,0.0977 0.118339,0.15038 0.04337,0.0526 0.09072,0.10796 0.14211,0.16588 0.05139,0.0579 0.107158,0.11856 0.166915,0.18242 0.05976,0.0639 0.123764,0.13109 0.192236,0.20154 0.136942,0.14091 0.291734,0.29541 0.465605,0.46664 l 1.612304,1.58801 -1.49965,-1.28416 c -0.102493,-0.0878 -0.200816,-0.17093 -0.295072,-0.24908 -0.09426,-0.0782 -0.184344,-0.1515 -0.270785,-0.22014 -0.08643,-0.0686 -0.169003,-0.13247 -0.248046,-0.19172 -0.07905,-0.0592 -0.15478,-0.11382 -0.22686,-0.16381 -0.07208,-0.05 -0.140656,-0.0956 -0.206189,-0.13643 -0.06553,-0.0408 -0.128174,-0.0772 -0.187585,-0.10904 -0.05941,-0.0318 -0.115788,-0.0592 -0.169499,-0.0822 -0.02685,-0.0115 -0.05304,-0.0217 -0.07855,-0.031 -0.02551,-0.009 -0.0502,-0.0172 -0.07441,-0.0243 -0.02422,-0.007 -0.04782,-0.0132 -0.0708,-0.0181 -0.02298,-0.005 -0.04539,-0.009 -0.06718,-0.0119 -0.02179,-0.003 -0.04291,-0.005 -0.06356,-0.005 -0.02065,-6.1e-4 -0.04089,2.5e-4 -0.06046,0.002 -0.01957,0.002 -0.0383,0.004 -0.05684,0.008 -0.01854,0.004 -0.03669,0.008 -0.05426,0.0134 -0.01757,0.006 -0.03503,0.0129 -0.05168,0.0207 -0.01665,0.008 -0.0328,0.0165 -0.04857,0.0264 -0.01578,0.01 -0.03103,0.0207 -0.04599,0.0326 -0.01496,0.0119 -0.02921,0.0253 -0.04341,0.0393 -0.01419,0.0139 -0.02838,0.029 -0.04186,0.045 -0.01348,0.016 -0.02645,0.0332 -0.03927,0.0512 -0.01282,0.0179 -0.02551,0.0364 -0.03772,0.0563 -0.01222,0.0199 -0.02399,0.041 -0.03566,0.063 -0.02333,0.0438 -0.04574,0.0916 -0.06718,0.14315 -0.02931,0.0705 -0.05552,0.13883 -0.07855,0.20567 -0.02302,0.0668 -0.04266,0.13228 -0.05891,0.19637 -0.0081,0.032 -0.01537,0.0635 -0.0217,0.0951 -0.0063,0.0315 -0.01204,0.0627 -0.01654,0.094 -0.0045,0.0311 -0.0077,0.0621 -0.01034,0.093 -0.0026,0.0309 -0.0045,0.0618 -0.0052,0.0925 -6.29e-4,0.0307 3e-6,0.0613 0.0015,0.092 0.0014,0.0307 0.0038,0.0617 0.0072,0.0925 0.0035,0.0308 0.0078,0.0615 0.01343,0.0925 0.0056,0.031 0.01231,0.0622 0.02015,0.0935 0.0078,0.0313 0.01676,0.0628 0.02687,0.0946 0.01011,0.0318 0.02167,0.0633 0.03411,0.0956 0.01244,0.0323 0.026,0.0652 0.04082,0.0982 0.01483,0.033 0.03078,0.0665 0.04806,0.10025 0.01728,0.0338 0.03602,0.0676 0.05581,0.10232 0.01979,0.0347 0.04068,0.0702 0.06305,0.10594 0.02237,0.0357 0.0458,0.0721 0.0708,0.10903 0.025,0.0369 0.05138,0.0745 0.07906,0.11266 0.05539,0.0763 0.116405,0.15504 0.182935,0.23719 0.06653,0.0821 0.138884,0.16742 0.217041,0.25632 0.07816,0.0889 0.161911,0.18142 0.252181,0.27802 0.09027,0.0966 0.187037,0.19757 0.289905,0.30282 0.102869,0.10526 0.212192,0.21484 0.328145,0.3297 0.115951,0.11486 0.238413,0.23478 0.367936,0.36018 l 2.133203,2.06499 -2.146639,-1.8836 c -0.144546,-0.12689 -0.281954,-0.24579 -0.412894,-0.35657 -0.13094,-0.11077 -0.255159,-0.21336 -0.373104,-0.30799 -0.117944,-0.0946 -0.229814,-0.1815 -0.33538,-0.25994 -0.05278,-0.0392 -0.103675,-0.0765 -0.153479,-0.11162 -0.0498,-0.0352 -0.09831,-0.0676 -0.145211,-0.0987 -0.0469,-0.0311 -0.09235,-0.0603 -0.136426,-0.0873 -0.04408,-0.027 -0.08683,-0.0519 -0.128157,-0.0749 -0.04133,-0.023 -0.08123,-0.0442 -0.11989,-0.0631 -0.03866,-0.0189 -0.07607,-0.0358 -0.112137,-0.0506 -0.03606,-0.0148 -0.07084,-0.0274 -0.104387,-0.0382 -0.03355,-0.0108 -0.06604,-0.0197 -0.09715,-0.0264 -0.03111,-0.007 -0.06065,-0.0108 -0.0894,-0.0134 -0.02875,-0.003 -0.05622,-0.004 -0.08268,-0.002 -0.02646,0.002 -0.05223,0.005 -0.07648,0.0114 -0.02425,0.006 -0.04712,0.0125 -0.06925,0.0222 -0.02212,0.01 -0.0435,0.0223 -0.06356,0.0362 -0.02007,0.0138 -0.03875,0.0296 -0.05684,0.0476 -0.01809,0.0179 -0.03549,0.0379 -0.05168,0.0599 -0.01619,0.022 -0.03111,0.046 -0.04547,0.0724 -0.01437,0.0262 -0.0282,0.0545 -0.04082,0.0847 -0.01262,0.0303 -0.02419,0.0622 -0.03514,0.0966 -0.01095,0.0344 -0.02113,0.071 -0.03049,0.10956 -0.0094,0.0385 -0.01799,0.0793 -0.02584,0.12195 -0.0078,0.0427 -0.01478,0.0875 -0.02119,0.13436 -0.0064,0.0468 -0.01201,0.0953 -0.01705,0.14624 -0.005,0.051 -0.0097,0.10406 -0.01344,0.15917 -0.0038,0.0551 -0.0067,0.1123 -0.0093,0.17156 -0.0051,0.11854 -0.008,0.2457 -0.0088,0.38086 -2.87e-4,0.0497 0.0014,0.0992 0.0057,0.14883 0.0042,0.0497 0.01097,0.0992 0.02015,0.14934 0.0092,0.0502 0.02112,0.10119 0.03566,0.15245 0.01454,0.0513 0.03188,0.10315 0.05219,0.15606 0.02032,0.0529 0.04325,0.10661 0.06976,0.16175 0.02651,0.0551 0.05628,0.11156 0.0894,0.1695 0.03312,0.0579 0.06992,0.11749 0.110071,0.1788 0.04015,0.0613 0.08366,0.1244 0.131258,0.18965 0.0476,0.0652 0.09906,0.1328 0.154513,0.20257 0.05546,0.0698 0.115062,0.14167 0.1788,0.21653 0.06374,0.0748 0.131686,0.15254 0.204122,0.23306 0.07243,0.0805 0.149444,0.16388 0.230994,0.25063 0.08155,0.0867 0.167817,0.17671 0.258899,0.27026 0.09108,0.0936 0.186811,0.19053 0.287837,0.29146 0.101032,0.10093 0.206928,0.20583 0.318327,0.31471 0.111399,0.10888 0.228184,0.22211 0.350366,0.33951 0.599496,0.57608 1.050144,1.00905 1.354957,1.30535 0.152401,0.14815 0.268197,0.26216 0.348299,0.34261 0.04005,0.0402 0.07138,0.072 0.09353,0.0956 0.02215,0.0236 0.03492,0.0389 0.03927,0.046 0.0022,0.004 0.0022,0.005 0,0.005 -0.0022,-5.2e-4 -0.0068,-0.003 -0.01344,-0.008 -0.01332,-0.009 -0.03526,-0.0264 -0.06615,-0.0517 -0.06177,-0.0505 -0.158568,-0.13276 -0.289904,-0.2465 -0.262671,-0.22747 -0.663427,-0.58012 -1.198894,-1.05161 -0.153747,-0.13538 -0.30602,-0.26796 -0.455269,-0.39584 -0.149251,-0.12789 -0.295387,-0.25128 -0.436666,-0.36897 -0.14128,-0.11769 -0.277886,-0.22954 -0.407727,-0.33435 -0.129841,-0.10481 -0.253002,-0.20222 -0.367936,-0.29145 -0.114934,-0.0892 -0.221767,-0.17037 -0.318327,-0.24133 -0.09656,-0.071 -0.183147,-0.1319 -0.257865,-0.1819 -0.03736,-0.025 -0.07159,-0.0474 -0.102836,-0.0667 -0.03125,-0.0192 -0.05953,-0.0354 -0.08423,-0.0486 -0.0247,-0.0132 -0.04584,-0.0232 -0.06356,-0.03 -0.01773,-0.007 -0.03208,-0.0103 -0.04238,-0.0103 -0.01417,0 -0.02708,0.003 -0.03927,0.008 -0.01219,0.005 -0.02332,0.0131 -0.03359,0.0233 -0.01027,0.0101 -0.01951,0.0229 -0.02791,0.0377 -0.0084,0.0149 -0.01618,0.0318 -0.02274,0.0512 -0.0066,0.0194 -0.01227,0.0409 -0.01705,0.0646 -0.0048,0.0237 -0.0083,0.0493 -0.01137,0.077 -0.003,0.0277 -0.0054,0.0573 -0.0067,0.0889 -0.0014,0.0315 -0.002,0.0651 -0.0016,0.10025 5.78e-4,0.0703 0.0045,0.1476 0.01137,0.23099 0.0069,0.0834 0.01669,0.17301 0.02946,0.26769 0.01277,0.0947 0.02821,0.19452 0.04651,0.29869 0.0183,0.10416 0.03959,0.21271 0.06305,0.32452 0.02346,0.11186 0.04927,0.22693 0.07751,0.34469 0.02823,0.11775 0.05883,0.23833 0.09147,0.36018 0.03264,0.12185 0.06721,0.24534 0.103869,0.36949 0.03666,0.12415 0.07545,0.24897 0.115756,0.37362 0.04031,0.12465 0.082,0.24871 0.125573,0.37207 0.04358,0.12336 0.08892,0.2456 0.135393,0.36587 0.04647,0.12026 0.09416,0.23861 0.143143,0.35398 0.04899,0.11538 0.09925,0.22824 0.150379,0.33693 0.05039,0.10712 0.101881,0.21246 0.155029,0.31626 0.05315,0.1038 0.108111,0.20567 0.163814,0.30593 0.0557,0.10026 0.11248,0.19909 0.170533,0.29558 0.05804,0.0965 0.117051,0.1907 0.17725,0.28319 0.0602,0.0925 0.121311,0.18304 0.183451,0.2713 0.06214,0.0883 0.125262,0.17456 0.189136,0.25838 0.06387,0.0838 0.128898,0.16531 0.194303,0.24443 0.0654,0.0791 0.131192,0.15575 0.197921,0.22996 0.06673,0.0742 0.134205,0.1459 0.202055,0.21498 0.06785,0.0691 0.13639,0.13576 0.205155,0.19947 0.06876,0.0637 0.137749,0.1243 0.207223,0.18242 0.06947,0.0581 0.13931,0.11359 0.209289,0.16588 0.06998,0.0523 0.140045,0.10155 0.210323,0.14779 0.07028,0.0462 0.140985,0.0892 0.211357,0.12919 0.07037,0.04 0.140579,0.0771 0.21084,0.11059 0.03513,0.0167 0.07036,0.0325 0.10542,0.0475 0.03507,0.0151 0.06993,0.029 0.104903,0.0424 0.02953,0.0113 0.05345,0.0223 0.07183,0.0331 0.0092,0.005 0.01683,0.0108 0.02325,0.016 0.0064,0.005 0.01132,0.0104 0.01499,0.0155 0.0031,0.004 0.005,0.008 0.0062,0.0124 h 0.504879 c 0.0028,-0.001 0.0066,-0.003 0.0124,-0.004 0.01306,-0.003 0.03354,-0.006 0.06046,-0.009 0.107681,-0.0131 0.3184,-0.0304 0.567408,-0.0563 0.124505,-0.013 0.258607,-0.0285 0.394291,-0.046 0.06784,-0.009 0.135988,-0.0179 0.203605,-0.0279 0.06762,-0.01 0.134614,-0.0216 0.199988,-0.0331 0.06538,-0.0114 0.129041,-0.0233 0.190169,-0.0362 0.06113,-0.0129 0.119801,-0.0263 0.174666,-0.0408 0.05487,-0.0145 0.105858,-0.0298 0.152446,-0.046 0.04659,-0.0162 0.08876,-0.0336 0.125057,-0.0517 0.04148,-0.0206 0.08371,-0.0431 0.126607,-0.0667 0.0429,-0.0236 0.08625,-0.0482 0.130225,-0.0744 0.04398,-0.0262 0.08859,-0.0541 0.133325,-0.0827 0.04473,-0.0286 0.08972,-0.0582 0.134875,-0.0889 0.09031,-0.0615 0.181264,-0.12705 0.271302,-0.19534 0.09004,-0.0683 0.178997,-0.13947 0.266133,-0.21239 0.08714,-0.0729 0.172648,-0.14738 0.254248,-0.22272 0.0816,-0.0753 0.159621,-0.15129 0.233061,-0.22686 0.0367,-0.0378 0.07229,-0.0757 0.106453,-0.11318 0.0342,-0.0374 0.06678,-0.0743 0.09819,-0.1111 0.0313,-0.0368 0.0613,-0.0731 0.0894,-0.10904 0.0281,-0.0359 0.05447,-0.0712 0.07906,-0.10593 l 0.716235,-1.00976 0.373621,0.90744 c 0.0152,0.0368 0.03139,0.0731 0.04858,0.10903 0.0172,0.0359 0.03558,0.0715 0.05478,0.10646 0.0192,0.035 0.03926,0.0694 0.06046,0.10335 0.0212,0.034 0.04346,0.0677 0.06666,0.10077 0.0232,0.033 0.04766,0.0651 0.07286,0.0971 0.0251,0.032 0.05051,0.064 0.07751,0.0951 0.027,0.031 0.05492,0.0615 0.08372,0.0915 0.0289,0.03 0.0587,0.0594 0.0894,0.0884 0.0307,0.029 0.06259,0.0578 0.09508,0.0858 0.0325,0.0279 0.06553,0.0558 0.09973,0.0827 0.0342,0.0269 0.0694,0.0537 0.10542,0.0796 0.036,0.0258 0.0729,0.0502 0.110588,0.0749 0.0377,0.0247 0.07639,0.0492 0.115755,0.0729 0.0394,0.0236 0.07941,0.0468 0.120406,0.0693 0.041,0.0225 0.08299,0.0437 0.125574,0.0651 0.04259,0.0214 0.08601,0.0423 0.130224,0.0625 0.0442,0.0202 0.0891,0.0398 0.134876,0.0589 0.0457,0.0191 0.09231,0.0374 0.139526,0.0553 0.0473,0.0179 0.0949,0.0355 0.143661,0.0522 0.0487,0.0167 0.0986,0.0331 0.148828,0.0486 0.0502,0.0155 0.100815,0.03 0.152445,0.0444 0.0516,0.0143 0.104079,0.0283 0.157097,0.0413 0.053,0.0131 0.10685,0.0254 0.16123,0.0372 0.0544,0.0118 0.109128,0.023 0.164848,0.0336 0.11144,0.0211 0.225519,0.0398 0.342098,0.0558 0.11658,0.016 0.235624,0.0295 0.357084,0.0403 0.121469,0.0108 0.245449,0.0188 0.371554,0.0243 0.126099,0.005 0.254489,0.008 0.384989,0.008 0.133229,0 0.263524,-0.002 0.390674,-0.007 0.12715,-0.005 0.25101,-0.0127 0.37207,-0.0227 0.12106,-0.01 0.239521,-0.0227 0.3545,-0.0377 0.11498,-0.0151 0.226481,-0.0326 0.335381,-0.0527 0.0545,-0.01 0.108301,-0.0207 0.16123,-0.032 0.0529,-0.0113 0.10517,-0.0231 0.15658,-0.0357 0.0514,-0.0126 0.102038,-0.026 0.151928,-0.0398 0.0499,-0.0138 0.0989,-0.0283 0.147278,-0.0434 0.0484,-0.0151 0.0963,-0.0307 0.143144,-0.047 0.0468,-0.0163 0.0926,-0.0331 0.137976,-0.0506 0.0453,-0.0176 0.09,-0.0359 0.133842,-0.0548 0.0438,-0.0188 0.0869,-0.0383 0.129191,-0.0584 0.0423,-0.0201 0.0838,-0.0412 0.12454,-0.0625 0.0408,-0.0214 0.0811,-0.0425 0.120406,-0.0651 0.0393,-0.0226 0.07751,-0.0464 0.115239,-0.0703 0.0377,-0.0239 0.07489,-0.0483 0.111104,-0.0734 0.0362,-0.0251 0.0717,-0.0511 0.106453,-0.0775 0.0347,-0.0264 0.0686,-0.053 0.101803,-0.0806 0.0332,-0.0276 0.06545,-0.0563 0.09715,-0.0853 0.03169,-0.0289 0.06282,-0.0587 0.09302,-0.0889 0.0302,-0.0302 0.05967,-0.0606 0.08837,-0.092 0.0286,-0.0314 0.05662,-0.0634 0.08372,-0.0961 0.0271,-0.0327 0.05398,-0.0663 0.07958,-0.10025 0.0256,-0.0339 0.05031,-0.0687 0.07441,-0.10387 0.0241,-0.0352 0.04716,-0.071 0.06976,-0.10749 0.0226,-0.0365 0.04463,-0.0734 0.06563,-0.1111 0.0211,-0.0377 0.04138,-0.0757 0.06098,-0.11472 0.0196,-0.039 0.03833,-0.0786 0.05633,-0.11886 0.0285,-0.0635 0.05463,-0.12908 0.07803,-0.19534 0.0234,-0.0663 0.04413,-0.13343 0.06253,-0.20153 0.0185,-0.0681 0.03446,-0.13715 0.04806,-0.20619 0.0136,-0.069 0.02521,-0.13814 0.03411,-0.20722 0.009,-0.0691 0.01534,-0.13795 0.01964,-0.20619 0.004,-0.0682 0.0062,-0.13556 0.0062,-0.20206 -1.2e-4,-0.0665 -0.0022,-0.13198 -0.0072,-0.19585 -0.004,-0.0639 -0.01052,-0.1262 -0.01912,-0.18655 -0.009,-0.0603 -0.01934,-0.11874 -0.03204,-0.17467 -0.0127,-0.0559 -0.02732,-0.10959 -0.04393,-0.1602 -0.0166,-0.0506 -0.03541,-0.0982 -0.05581,-0.14262 -0.0102,-0.0222 -0.02094,-0.0436 -0.03204,-0.0641 -0.0112,-0.0205 -0.02262,-0.0403 -0.03462,-0.0589 -0.0121,-0.0187 -0.02482,-0.0365 -0.03772,-0.0532 -0.013,-0.0167 -0.02651,-0.0324 -0.04031,-0.047 -0.0138,-0.0147 -0.02819,-0.0278 -0.04289,-0.0403 -0.0147,-0.0125 -0.02988,-0.0239 -0.04548,-0.0341 -0.0156,-0.0102 -0.03114,-0.0195 -0.04754,-0.0274 -0.0164,-0.008 -0.03344,-0.0138 -0.05064,-0.0191 -0.0172,-0.005 -0.03471,-0.01 -0.05271,-0.0124 -0.018,-0.003 -0.03649,-0.004 -0.05529,-0.004 -0.0109,0 -0.02076,-0.002 -0.02945,-0.005 -0.009,-0.004 -0.01624,-0.009 -0.02274,-0.016 -0.007,-0.007 -0.01214,-0.0156 -0.01654,-0.0258 -0.004,-0.0102 -0.0083,-0.0224 -0.01033,-0.0357 -0.002,-0.0133 -0.0036,-0.0278 -0.0036,-0.0439 -2.8e-4,-0.0161 3.31e-4,-0.0339 0.0021,-0.0527 0.003,-0.0377 0.01102,-0.0803 0.02222,-0.12764 0.0112,-0.0474 0.02626,-0.0994 0.04496,-0.15503 0.0186,-0.0557 0.04096,-0.11527 0.06666,-0.17776 0.0257,-0.0625 0.05493,-0.12795 0.08733,-0.19586 0.0324,-0.0679 0.0681,-0.13791 0.106971,-0.2098 0.0281,-0.0521 0.05468,-0.10299 0.07958,-0.15193 0.0249,-0.0489 0.04755,-0.096 0.06925,-0.14211 0.0216,-0.0461 0.04206,-0.0911 0.06046,-0.13488 0.0184,-0.0437 0.03503,-0.0864 0.05013,-0.12816 0.0152,-0.0417 0.02882,-0.0824 0.04082,-0.12247 0.012,-0.0401 0.0221,-0.0795 0.031,-0.11834 0.009,-0.0388 0.01652,-0.0773 0.02222,-0.11524 0.006,-0.0378 0.01,-0.0752 0.0124,-0.11265 0.003,-0.0374 0.0041,-0.0748 0.0031,-0.11214 -4.3e-4,-0.0373 -0.0022,-0.0751 -0.0062,-0.11265 -0.003,-0.0376 -0.008,-0.0749 -0.01499,-0.11317 -0.006,-0.0382 -0.01427,-0.077 -0.02377,-0.11628 -0.009,-0.0393 -0.02057,-0.0792 -0.03307,-0.11989 -0.0124,-0.0407 -0.02646,-0.0821 -0.04186,-0.12454 -0.0154,-0.0425 -0.03183,-0.0861 -0.05013,-0.13074 -0.0183,-0.0446 -0.03833,-0.0903 -0.05943,-0.13746 -0.0192,-0.0428 -0.03694,-0.0849 -0.05374,-0.1266 -0.0169,-0.0417 -0.03294,-0.0828 -0.04754,-0.12351 -0.0145,-0.0407 -0.02759,-0.0811 -0.03979,-0.12092 -0.0122,-0.0399 -0.02317,-0.0791 -0.03307,-0.11834 -0.01,-0.0392 -0.01875,-0.0781 -0.02636,-0.11679 -0.008,-0.0387 -0.01392,-0.0774 -0.01912,-0.11576 -0.005,-0.0383 -0.009,-0.0761 -0.01188,-0.1142 -0.003,-0.0382 -0.0052,-0.0766 -0.0052,-0.11472 -5.5e-4,-0.0381 3.01e-4,-0.076 0.0021,-0.11421 0.002,-0.0382 0.0048,-0.0767 0.0088,-0.11524 0.004,-0.0385 0.009,-0.0773 0.0155,-0.11627 0.006,-0.039 0.01404,-0.0782 0.02274,-0.11782 0.009,-0.0396 0.01887,-0.0795 0.02997,-0.11989 0.011,-0.0404 0.02277,-0.0812 0.03617,-0.12247 0.0134,-0.0413 0.02832,-0.0832 0.04393,-0.12558 0.0157,-0.0424 0.03223,-0.085 0.05013,-0.12867 0.0257,-0.0624 0.04876,-0.12619 0.06976,-0.19017 0.0209,-0.064 0.03951,-0.12845 0.05581,-0.19327 0.0163,-0.0648 0.03056,-0.12989 0.04237,-0.19482 0.0118,-0.0649 0.02112,-0.12948 0.02842,-0.19379 0.007,-0.0643 0.0124,-0.12824 0.0155,-0.1912 0.003,-0.063 0.0041,-0.12516 0.0031,-0.18603 -10e-4,-0.0609 -0.0038,-0.12074 -0.0088,-0.17881 -0.005,-0.0581 -0.01209,-0.11444 -0.02119,-0.16898 -0.009,-0.0545 -0.02017,-0.10683 -0.03307,-0.15709 -0.0128,-0.0503 -0.02742,-0.0984 -0.04393,-0.14366 -0.0165,-0.0453 -0.03468,-0.0881 -0.05478,-0.12764 -0.01,-0.0198 -0.02062,-0.0388 -0.03152,-0.0569 -0.0109,-0.0182 -0.02231,-0.0356 -0.03411,-0.0522 -0.0118,-0.0165 -0.02409,-0.0322 -0.03669,-0.047 -0.0126,-0.0148 -0.02526,-0.0284 -0.03876,-0.0413 -0.0134,-0.013 -0.02807,-0.0251 -0.04237,-0.0362 -0.0142,-0.011 -0.02841,-0.021 -0.04341,-0.03 -0.015,-0.009 -0.03071,-0.0169 -0.04651,-0.0238 -0.0158,-0.007 -0.03198,-0.0129 -0.04858,-0.0176 -0.0165,-0.005 -0.03334,-0.008 -0.05064,-0.0109 -0.0173,-0.002 -0.03471,-0.004 -0.05271,-0.004 -0.006,0 -0.01094,-7.4e-4 -0.01654,-0.003 -0.006,-0.002 -0.01187,-0.006 -0.01757,-0.0103 -0.0114,-0.009 -0.02271,-0.0211 -0.03411,-0.0377 -0.0114,-0.0166 -0.02271,-0.0372 -0.03411,-0.0615 -0.0114,-0.0243 -0.02291,-0.0522 -0.03411,-0.0837 -0.0112,-0.0315 -0.02259,-0.0666 -0.03359,-0.10491 -0.011,-0.0384 -0.02227,-0.0798 -0.03307,-0.12454 -0.0107,-0.0447 -0.02061,-0.0929 -0.03101,-0.14366 -0.0104,-0.0507 -0.02059,-0.10392 -0.03049,-0.16019 -0.0199,-0.11254 -0.03863,-0.23575 -0.05633,-0.36794 -0.0177,-0.13218 -0.03419,-0.27377 -0.04909,-0.4222 -0.0149,-0.14838 -0.02829,-0.30379 -0.03979,-0.46508 -0.0115,-0.16129 -0.02092,-0.32846 -0.02842,-0.4992 -0.008,-0.19007 -0.01901,-0.36827 -0.03101,-0.53537 -0.012,-0.16705 -0.02604,-0.32308 -0.04134,-0.46715 -0.0154,-0.14406 -0.03193,-0.27643 -0.05013,-0.39739 -0.009,-0.0605 -0.01862,-0.11791 -0.02842,-0.1726 -0.01,-0.0547 -0.02009,-0.10666 -0.03049,-0.15555 -0.0104,-0.0489 -0.02114,-0.0949 -0.03204,-0.13797 -0.0109,-0.0431 -0.02167,-0.0831 -0.03307,-0.12041 -0.0114,-0.0373 -0.02334,-0.0719 -0.03514,-0.10335 -0.0119,-0.0315 -0.02387,-0.0597 -0.03617,-0.0853 -0.0122,-0.0256 -0.02461,-0.0484 -0.03721,-0.0682 -0.0126,-0.0198 -0.02544,-0.0367 -0.03824,-0.0506 -0.0129,-0.0139 -0.02566,-0.025 -0.03876,-0.0331 -0.0131,-0.008 -0.02649,-0.0133 -0.03979,-0.0155 -0.0133,-0.002 -0.02639,-6.9e-4 -0.03979,0.003 -0.0134,0.004 -0.02681,0.0101 -0.04031,0.0196 -0.0135,0.01 -0.02733,0.0218 -0.04082,0.0372 -0.0135,0.0154 -0.02681,0.034 -0.04031,0.0553 -0.0135,0.0213 -0.02742,0.0456 -0.04082,0.0729 -0.0134,0.0272 -0.02649,0.0579 -0.03979,0.0909 -0.0133,0.0332 -0.02669,0.0689 -0.03979,0.10801 -0.0131,0.0391 -0.02639,0.0811 -0.03928,0.12609 -0.0129,0.045 -0.02564,0.0932 -0.03824,0.14417 -0.0126,0.051 -0.02491,0.10483 -0.03721,0.16175 -0.0123,0.0569 -0.02479,0.11696 -0.03669,0.17983 -0.0119,0.0629 -0.02364,0.12856 -0.03514,0.19741 -0.023,0.13768 -0.04524,0.28746 -0.06615,0.44907 -0.021,0.16161 -0.04041,0.3353 -0.05891,0.5209 -0.0263,0.26351 -0.04936,0.49378 -0.06976,0.68936 -0.0204,0.19557 -0.03824,0.35608 -0.05374,0.48059 -0.008,0.0623 -0.015,0.11578 -0.0217,0.15968 -0.007,0.0439 -0.01332,0.0782 -0.01912,0.10335 -0.006,0.0251 -0.01102,0.041 -0.01602,0.047 -0.003,0.003 -0.0047,0.003 -0.0067,0.002 -0.002,-0.002 -0.0052,-0.006 -0.0072,-0.0129 -0.004,-0.0135 -0.008,-0.0368 -0.0124,-0.0703 -0.004,-0.0335 -0.007,-0.077 -0.01085,-0.13075 -0.007,-0.10755 -0.01385,-0.25631 -0.02015,-0.44751 -0.006,-0.1912 -0.012,-0.42482 -0.0186,-0.7028 -0.007,-0.27799 -0.01381,-0.59999 -0.0217,-0.9679 -0.004,-0.20418 -0.01137,-0.3995 -0.02067,-0.5855 -0.009,-0.18594 -0.02071,-0.3628 -0.03411,-0.52968 -0.0134,-0.16688 -0.02859,-0.32394 -0.04547,-0.47077 -0.0169,-0.14683 -0.03508,-0.28342 -0.05478,-0.40928 -0.01,-0.0629 -0.02009,-0.12335 -0.03049,-0.18087 -0.0104,-0.0575 -0.02114,-0.11235 -0.03204,-0.16433 -0.0109,-0.052 -0.02229,-0.10095 -0.03359,-0.14728 -0.0113,-0.0463 -0.02302,-0.0897 -0.03462,-0.13022 -0.0116,-0.0406 -0.02334,-0.0785 -0.03514,-0.11317 -0.0119,-0.0347 -0.02356,-0.0664 -0.03566,-0.0951 -0.012,-0.0287 -0.02407,-0.0544 -0.03617,-0.077 -0.0121,-0.0226 -0.02407,-0.0421 -0.03617,-0.0584 -0.012,-0.0163 -0.02417,-0.0293 -0.03617,-0.0393 -0.0119,-0.01 -0.02396,-0.0165 -0.03566,-0.0202 -0.006,-0.002 -0.01177,-0.003 -0.01757,-0.003 -0.006,-1.3e-4 -0.01125,7.6e-4 -0.01705,0.002 -0.006,0.002 -0.01145,0.004 -0.01705,0.007 -0.006,0.003 -0.01104,0.007 -0.01654,0.0119 -0.0111,0.01 -0.02237,0.0232 -0.03307,0.0398 -0.0106,0.0166 -0.02091,0.0365 -0.03101,0.0599 -0.0101,0.0235 -0.01996,0.0501 -0.02945,0.0806 -0.009,0.0305 -0.01859,0.0646 -0.02739,0.10232 -0.009,0.0377 -0.01681,0.0791 -0.02481,0.12403 -0.008,0.045 -0.01564,0.0934 -0.02274,0.14572 -0.007,0.0524 -0.01354,0.10861 -0.01964,0.16847 -0.006,0.0598 -0.01205,0.12372 -0.01705,0.1912 -0.005,0.0675 -0.01004,0.13872 -0.01344,0.21394 -0.004,0.0752 -0.0068,0.15412 -0.0098,0.2372 -0.005,0.16614 -0.0083,0.34795 -0.0083,0.54622 0,0.14778 -0.0017,0.2871 -0.0067,0.41754 -0.004,0.13044 -0.01072,0.25213 -0.01912,0.36432 -0.008,0.11218 -0.0187,0.21497 -0.03101,0.30799 -0.006,0.0465 -0.01264,0.0907 -0.01964,0.1323 -0.007,0.0416 -0.01484,0.0803 -0.02274,0.11678 -0.008,0.0365 -0.01642,0.0705 -0.02532,0.10181 -0.009,0.0313 -0.0182,0.0598 -0.02791,0.0858 -0.01,0.026 -0.01989,0.0497 -0.03049,0.0703 -0.0106,0.0206 -0.02167,0.0382 -0.03307,0.0532 -0.0114,0.015 -0.02304,0.0273 -0.03514,0.0367 -0.0122,0.009 -0.02482,0.016 -0.03772,0.0196 -0.0129,0.004 -0.02661,0.004 -0.04031,0.002 -0.0137,-0.002 -0.02746,-0.007 -0.04186,-0.0155 -0.006,-0.004 -0.01282,-0.009 -0.01912,-0.0145 -0.006,-0.006 -0.0124,-0.013 -0.0186,-0.0212 -0.0124,-0.0164 -0.02469,-0.0375 -0.03669,-0.0625 -0.0121,-0.0251 -0.02406,-0.0541 -0.03566,-0.0873 -0.0116,-0.0332 -0.02301,-0.0708 -0.03411,-0.11162 -0.0111,-0.0409 -0.02196,-0.0853 -0.03256,-0.13333 -0.0105,-0.048 -0.02059,-0.0994 -0.03049,-0.15399 -0.01,-0.0546 -0.01932,-0.11233 -0.02842,-0.17312 -0.009,-0.0608 -0.01785,-0.12478 -0.02635,-0.1912 -0.0168,-0.13286 -0.03208,-0.27651 -0.04548,-0.42892 -0.0134,-0.15236 -0.02471,-0.31367 -0.03411,-0.48162 -0.009,-0.16796 -0.0167,-0.34243 -0.0217,-0.52193 -0.005,-0.17949 -0.0083,-0.36385 -0.0083,-0.55087 0,-0.19814 -0.0027,-0.38932 -0.0067,-0.57206 -0.005,-0.18275 -0.01115,-0.35726 -0.02015,-0.52193 -0.009,-0.16466 -0.02069,-0.31964 -0.03359,-0.46354 -0.006,-0.072 -0.01327,-0.14095 -0.02067,-0.20722 -0.007,-0.0663 -0.01497,-0.12942 -0.02326,-0.18966 -0.008,-0.0602 -0.01684,-0.11768 -0.02584,-0.17156 -0.009,-0.0539 -0.01862,-0.10422 -0.02842,-0.15141 -0.01,-0.0472 -0.01989,-0.0911 -0.03049,-0.13126 -0.0105,-0.0402 -0.02126,-0.0768 -0.03256,-0.10956 -0.0112,-0.0328 -0.02282,-0.0617 -0.03462,-0.0868 -0.01189,-0.0251 -0.02419,-0.0465 -0.03669,-0.0636 -0.006,-0.009 -0.0122,-0.0157 -0.0186,-0.0222 -0.006,-0.006 -0.01314,-0.0122 -0.01964,-0.0165 -0.007,-0.004 -0.01304,-0.008 -0.01964,-0.01 -0.007,-0.002 -0.01335,-0.003 -0.02015,-0.003 z m -8.728666,3.79718 h 5.17e-4 c 0.03631,6.8e-4 0.07263,0.002 0.109037,0.005 0.03659,0.003 0.0734,0.006 0.110071,0.01 0.03667,0.004 0.07332,0.01 0.11007,0.016 0.03674,0.006 0.07326,0.0131 0.110071,0.0212 0.03681,0.008 0.07373,0.0174 0.110588,0.0274 0.03685,0.01 0.0737,0.0212 0.110587,0.0331 0.03688,0.0118 0.07369,0.0241 0.110588,0.0377 0.0369,0.0136 0.0742,0.0279 0.111104,0.0434 0.0369,0.0155 0.0737,0.0318 0.110588,0.0491 0.03689,0.0173 0.07372,0.0361 0.110587,0.0553 0.03687,0.0191 0.07376,0.0386 0.110588,0.0594 0.03683,0.021 0.07382,0.0434 0.110588,0.0661 0.03677,0.0228 0.07337,0.0462 0.11007,0.0708 0.0367,0.0246 0.07345,0.0505 0.110071,0.077 0.03662,0.0265 0.07303,0.0539 0.109554,0.0822 0.07304,0.0566 0.14602,0.11698 0.218592,0.18087 0.07256,0.0639 0.144541,0.13141 0.216524,0.20257 0.05895,0.0583 0.116722,0.11774 0.173116,0.17932 0.05639,0.0616 0.111504,0.12491 0.165364,0.18965 0.05386,0.0647 0.106786,0.13119 0.15813,0.19895 0.05134,0.0678 0.101017,0.13708 0.149862,0.20774 0.04884,0.0707 0.09677,0.14258 0.143144,0.21601 0.0464,0.0734 0.0915,0.14822 0.135392,0.22428 0.0439,0.0761 0.0867,0.15347 0.128157,0.23202 0.0415,0.0786 0.0814,0.15835 0.120407,0.23927 0.039,0.0809 0.07701,0.16283 0.113688,0.24598 0.0366,0.0831 0.07219,0.16745 0.106453,0.25269 0.0343,0.0852 0.06732,0.1717 0.09922,0.2589 0.0319,0.0872 0.06238,0.17504 0.09198,0.26407 0.0295,0.089 0.05765,0.17902 0.08475,0.26975 0.0272,0.0907 0.05365,0.18212 0.07855,0.2744 0.0249,0.0923 0.0482,0.18534 0.0708,0.27905 0.0226,0.0937 0.0443,0.18818 0.0646,0.28319 0.0203,0.095 0.03926,0.19064 0.05736,0.28681 0.0181,0.0962 0.03526,0.19271 0.05116,0.2899 0.0158,0.0972 0.03032,0.19492 0.04393,0.29301 0.0136,0.0981 0.02632,0.19674 0.03772,0.29558 0.0114,0.0988 0.02181,0.19819 0.03101,0.29766 0.009,0.0995 0.01719,0.19924 0.02429,0.29921 0.007,0.1 0.01319,0.19991 0.01809,0.30024 0.005,0.10032 0.009,0.20072 0.01137,0.30127 0.003,0.10055 0.0042,0.20115 0.0052,0.30179 6.8e-4,0.10064 2.69e-4,0.20171 -0.001,0.30231 -10e-4,0.1006 -0.0037,0.20085 -0.0067,0.30127 -0.003,0.10042 -0.008,0.20065 -0.01344,0.30076 -0.006,0.10011 -0.01162,0.20005 -0.01912,0.29972 -0.008,0.0997 -0.01634,0.19908 -0.02584,0.29818 -0.01,0.0991 -0.02054,0.19824 -0.03204,0.29662 -0.0116,0.0984 -0.02422,0.19598 -0.03772,0.29352 -0.0136,0.0975 -0.02791,0.19489 -0.04341,0.29146 -0.0155,0.0966 -0.03221,0.19238 -0.04961,0.28783 -0.0175,0.0954 -0.03589,0.19053 -0.05529,0.28474 -0.0194,0.0942 -0.03968,0.18778 -0.06098,0.2806 -0.0213,0.0928 -0.04346,0.18464 -0.06666,0.27596 -0.0232,0.0913 -0.04735,0.18214 -0.07235,0.27181 -0.025,0.0897 -0.05062,0.17825 -0.07752,0.26614 -0.0269,0.0879 -0.05502,0.17498 -0.08372,0.26096 -0.0287,0.086 -0.05838,0.17083 -0.08888,0.25477 -0.0305,0.0839 -0.06175,0.16681 -0.09405,0.24856 -0.0323,0.0818 -0.06574,0.16241 -0.09974,0.24185 -0.0341,0.0794 -0.0691,0.15762 -0.104903,0.23461 -0.0358,0.077 -0.0725,0.15296 -0.110071,0.22737 -0.0376,0.0744 -0.0759,0.14741 -0.115238,0.21911 -0.0393,0.0717 -0.07941,0.14199 -0.120406,0.21084 -0.041,0.0688 -0.08289,0.13619 -0.125574,0.20206 -0.04267,0.0659 -0.0864,0.13051 -0.130741,0.19327 -0.04434,0.0627 -0.08941,0.12394 -0.135393,0.18345 -0.04598,0.0595 -0.09243,0.11699 -0.140043,0.17311 -0.04761,0.0561 -0.096,0.11069 -0.14521,0.1633 -0.04922,0.0526 -0.09958,0.10349 -0.150379,0.15245 -0.0508,0.049 -0.102139,0.0959 -0.154512,0.14107 -0.05237,0.0452 -0.105757,0.0884 -0.159681,0.12971 -0.05392,0.0413 -0.108358,0.0806 -0.163814,0.11782 -0.05546,0.0372 -0.112012,0.0724 -0.168982,0.10542 -0.05697,0.033 -0.114651,0.0638 -0.173116,0.0925 -0.05846,0.0287 -0.117309,0.0553 -0.17725,0.0796 -0.05994,0.0242 -0.121018,0.0465 -0.182418,0.0661 -0.0614,0.0197 -0.123196,0.0367 -0.186035,0.0517 -0.06284,0.0149 -0.126426,0.0276 -0.190686,0.0377 -0.06426,0.0101 -0.129159,0.0176 -0.19482,0.0227 -0.06566,0.005 -0.132426,0.008 -0.199471,0.008 -0.04487,0 -0.0896,-7.5e-4 -0.134359,-0.004 -0.04476,-0.003 -0.0892,-0.007 -0.133842,-0.0119 -0.04465,-0.005 -0.08933,-0.0118 -0.133842,-0.0196 -0.04451,-0.008 -0.08896,-0.017 -0.133325,-0.0274 -0.04437,-0.0104 -0.08861,-0.0222 -0.132808,-0.0351 -0.0442,-0.013 -0.08827,-0.0273 -0.132292,-0.0429 -0.04402,-0.0156 -0.08794,-0.0326 -0.131775,-0.0506 -0.04383,-0.0181 -0.08763,-0.0372 -0.131258,-0.0579 -0.04362,-0.0207 -0.08734,-0.0424 -0.130742,-0.0656 -0.0434,-0.0233 -0.08655,-0.0481 -0.129707,-0.0739 -0.04316,-0.0258 -0.08628,-0.0532 -0.129192,-0.0816 -0.04291,-0.0283 -0.08552,-0.0575 -0.128157,-0.0884 -0.04264,-0.0309 -0.08528,-0.0632 -0.127641,-0.0966 -0.04236,-0.0334 -0.08455,-0.0679 -0.126607,-0.10387 -0.04206,-0.0359 -0.08383,-0.0732 -0.125574,-0.11162 -0.04175,-0.0384 -0.08364,-0.0784 -0.125057,-0.11937 -0.03442,-0.034 -0.06936,-0.0699 -0.104386,-0.10749 -0.03503,-0.0376 -0.07003,-0.0765 -0.10542,-0.1173 -0.03539,-0.0408 -0.07095,-0.0836 -0.106454,-0.12713 -0.0355,-0.0436 -0.07108,-0.0884 -0.106453,-0.13435 -0.07075,-0.092 -0.141044,-0.18812 -0.209806,-0.28732 -0.06876,-0.0992 -0.135683,-0.20153 -0.200505,-0.3049 -0.06482,-0.10336 -0.127626,-0.20772 -0.186552,-0.31212 -0.05893,-0.1044 -0.11429,-0.20879 -0.165364,-0.31109 -0.02554,-0.0512 -0.04966,-0.10189 -0.07286,-0.15193 -0.02321,-0.05 -0.04551,-0.0993 -0.06615,-0.1478 -0.02063,-0.0485 -0.03955,-0.0965 -0.05736,-0.14314 -0.01781,-0.0467 -0.03434,-0.092 -0.04909,-0.13643 l -0.429432,-1.29139 1.428337,1.28829 c 0.06768,0.061 0.133345,0.1192 0.196887,0.17467 0.06354,0.0555 0.125302,0.10807 0.185002,0.15813 0.0597,0.0501 0.117479,0.0973 0.173633,0.14211 0.05615,0.0448 0.110393,0.087 0.163297,0.12661 0.0529,0.0397 0.104562,0.077 0.154513,0.11162 0.04995,0.0347 0.09843,0.0668 0.145727,0.0966 0.04729,0.0298 0.09304,0.0576 0.137976,0.0827 0.04493,0.0251 0.08891,0.0477 0.131775,0.0682 0.04286,0.0206 0.08499,0.0386 0.126091,0.0548 0.04109,0.0161 0.0813,0.0305 0.120923,0.0424 0.03962,0.0119 0.07834,0.0212 0.116788,0.0289 0.03844,0.008 0.07664,0.0131 0.114205,0.0171 0.03756,0.004 0.07464,0.006 0.111621,0.006 0.03698,-1.4e-4 0.0739,-0.002 0.110588,-0.006 0.03669,-0.004 0.07338,-0.01 0.110071,-0.0171 0.03669,-0.007 0.07308,-0.0165 0.11007,-0.0274 0.0441,-0.0129 0.08624,-0.0264 0.126608,-0.0408 0.04036,-0.0144 0.07914,-0.0295 0.115755,-0.0455 0.03661,-0.0159 0.07153,-0.0326 0.104386,-0.0501 0.03285,-0.0175 0.06342,-0.0357 0.0925,-0.0548 0.02908,-0.0191 0.05636,-0.0392 0.08165,-0.0599 0.02529,-0.0207 0.04879,-0.0422 0.07028,-0.0646 0.02149,-0.0224 0.04124,-0.0452 0.05891,-0.0692 0.01767,-0.024 0.03318,-0.0487 0.04703,-0.0744 0.01384,-0.0257 0.02566,-0.0526 0.03566,-0.0801 0.01,-0.0275 0.01814,-0.0555 0.02429,-0.0847 0.0061,-0.0293 0.01064,-0.0599 0.01292,-0.091 0.0023,-0.0311 0.0021,-0.0627 5.17e-4,-0.0956 -0.0016,-0.0329 -0.0053,-0.067 -0.01085,-0.10181 -0.0055,-0.0348 -0.01281,-0.0703 -0.02222,-0.10697 -0.0094,-0.0367 -0.02077,-0.0745 -0.03411,-0.11317 -0.01333,-0.0386 -0.02872,-0.0782 -0.04599,-0.11885 -0.01727,-0.0406 -0.03666,-0.0825 -0.05788,-0.12506 -0.02122,-0.0426 -0.04458,-0.0861 -0.06976,-0.13074 -0.02518,-0.0446 -0.05197,-0.0902 -0.08113,-0.13694 -0.02916,-0.0467 -0.06038,-0.0944 -0.09353,-0.14315 -0.03315,-0.0488 -0.06826,-0.0989 -0.10542,-0.14986 -0.03715,-0.0509 -0.07665,-0.10247 -0.117823,-0.15555 -0.04117,-0.0531 -0.08399,-0.10751 -0.129191,-0.16278 -0.0452,-0.0553 -0.09286,-0.1115 -0.14211,-0.16898 -0.04925,-0.0575 -0.100174,-0.11596 -0.153479,-0.1757 -0.0533,-0.0597 -0.108505,-0.1209 -0.165881,-0.18293 -0.114752,-0.12404 -0.237854,-0.25266 -0.36897,-0.38603 -0.131118,-0.13332 -0.270472,-0.2715 -0.418062,-0.41444 -0.147589,-0.14295 -0.303503,-0.2906 -0.467672,-0.44338 -0.171456,-0.15956 -0.336131,-0.31541 -0.492993,-0.46613 -0.156861,-0.15072 -0.306074,-0.29641 -0.445451,-0.43511 -0.139377,-0.13871 -0.269085,-0.27076 -0.38809,-0.39429 -0.119005,-0.12352 -0.227235,-0.23849 -0.322978,-0.34365 -0.09574,-0.10517 -0.17897,-0.20059 -0.248563,-0.28422 -0.0348,-0.0418 -0.06633,-0.0804 -0.09405,-0.11627 -0.02772,-0.0358 -0.05155,-0.0687 -0.07183,-0.0982 -0.02028,-0.0295 -0.03662,-0.0553 -0.04909,-0.078 -0.01248,-0.0227 -0.02101,-0.0424 -0.02532,-0.0579 -0.0022,-0.008 -0.0031,-0.0148 -0.0031,-0.0207 -4.8e-5,-0.006 9.97e-4,-0.011 0.0031,-0.015 0.0021,-0.004 0.005,-0.007 0.0093,-0.009 0.0043,-0.002 0.0095,-0.003 0.01602,-0.003 0.0131,0 0.02836,0.002 0.04547,0.006 0.01713,0.004 0.03648,0.0105 0.05736,0.0186 0.02088,0.008 0.04335,0.0181 0.0677,0.03 0.02435,0.0118 0.05049,0.0254 0.07803,0.0408 0.05508,0.0308 0.116292,0.0684 0.182418,0.11214 0.06613,0.0437 0.136958,0.0934 0.211873,0.14831 0.07492,0.0549 0.153681,0.1148 0.235128,0.17932 0.08145,0.0645 0.165432,0.13374 0.251148,0.20619 0.08572,0.0725 0.173241,0.14813 0.260966,0.22686 0.08773,0.0787 0.176076,0.16057 0.263549,0.24391 0.04556,0.0434 0.0908,0.0852 0.13591,0.12609 0.04511,0.0409 0.08975,0.0805 0.134358,0.11886 0.04461,0.0383 0.08927,0.0753 0.133325,0.1111 0.04406,0.0358 0.08781,0.0707 0.131259,0.10387 0.04345,0.0332 0.08639,0.0649 0.129191,0.0956 0.0428,0.0307 0.08555,0.0603 0.12764,0.0884 0.04209,0.0281 0.08372,0.0546 0.125057,0.0801 0.04134,0.0255 0.08194,0.0499 0.122474,0.0729 0.04053,0.023 0.08073,0.0447 0.120406,0.0651 0.03968,0.0204 0.07905,0.04 0.117822,0.0579 0.03877,0.0178 0.07691,0.0343 0.114722,0.0496 0.03781,0.0153 0.07533,0.0292 0.112137,0.0419 0.0368,0.0127 0.07277,0.024 0.108521,0.0341 0.03575,0.0101 0.0713,0.0188 0.105937,0.0264 0.03464,0.007 0.06884,0.0137 0.102319,0.0186 0.03348,0.005 0.06591,0.009 0.09819,0.0109 0.03227,0.002 0.06409,0.003 0.09508,0.003 0.03101,-2.9e-4 0.06125,-0.002 0.09095,-0.005 0.0297,-0.003 0.05899,-0.007 0.08733,-0.0129 0.02834,-0.006 0.05575,-0.012 0.08268,-0.0202 0.02693,-0.008 0.05361,-0.0177 0.07906,-0.0284 0.02548,-0.0107 0.04993,-0.0228 0.0739,-0.0362 0.02396,-0.0133 0.04736,-0.0279 0.06976,-0.0439 0.0224,-0.016 0.04381,-0.0331 0.0646,-0.0517 0.02079,-0.0186 0.04081,-0.0387 0.05994,-0.0599 0.01913,-0.0212 0.03736,-0.0439 0.05478,-0.0677 0.01742,-0.0239 0.03395,-0.049 0.04961,-0.0755 0.01566,-0.0265 0.0306,-0.0541 0.04444,-0.0832 0.01384,-0.0291 0.02678,-0.0597 0.03876,-0.0915 0.01198,-0.0318 0.02301,-0.0648 0.03307,-0.0992 0.01007,-0.0344 0.01929,-0.0704 0.02739,-0.10748 0.0081,-0.0371 0.0151,-0.075 0.02119,-0.11473 0.005,-0.0328 0.0084,-0.0661 0.01033,-0.0997 0.0019,-0.0336 0.0022,-0.068 10e-4,-0.10232 -0.0011,-0.0343 -0.0036,-0.0688 -0.0078,-0.10387 -0.0042,-0.0351 -0.0099,-0.0707 -0.01705,-0.10645 -0.0072,-0.0357 -0.01615,-0.0717 -0.02635,-0.10801 -0.0102,-0.0363 -0.02196,-0.0731 -0.03514,-0.11007 -0.01318,-0.0369 -0.02778,-0.0737 -0.04393,-0.1111 -0.01614,-0.0374 -0.03364,-0.0752 -0.05271,-0.11317 -0.01907,-0.0379 -0.03951,-0.0763 -0.06149,-0.11472 -0.02198,-0.0384 -0.04541,-0.077 -0.07028,-0.11576 -0.02487,-0.0388 -0.05133,-0.0777 -0.07906,-0.11679 -0.02774,-0.0391 -0.05675,-0.0784 -0.08733,-0.11782 -0.03059,-0.0394 -0.06271,-0.0791 -0.09612,-0.11886 -0.03341,-0.0397 -0.06817,-0.0795 -0.104387,-0.11937 -0.03621,-0.0399 -0.07366,-0.0798 -0.112654,-0.11989 -0.03899,-0.0401 -0.07969,-0.0807 -0.12144,-0.12092 -0.121798,-0.1174 -0.228256,-0.22084 -0.320394,-0.31213 -0.09214,-0.0913 -0.16979,-0.17029 -0.233061,-0.23874 -0.03164,-0.0342 -0.05966,-0.066 -0.08423,-0.0951 -0.02457,-0.0291 -0.04542,-0.0557 -0.06305,-0.0801 -0.01761,-0.0244 -0.03215,-0.0465 -0.04289,-0.0667 -0.01074,-0.0202 -0.01774,-0.0385 -0.0217,-0.0548 -0.002,-0.008 -0.0033,-0.0155 -0.0036,-0.0227 -3.11e-4,-0.007 1.52e-4,-0.0143 0.0016,-0.0207 0.0013,-0.006 0.0037,-0.0125 0.0067,-0.0181 0.003,-0.006 0.0067,-0.0106 0.01137,-0.0155 0.0093,-0.01 0.02147,-0.0182 0.03721,-0.0253 0.01574,-0.007 0.03474,-0.0132 0.05684,-0.0181 0.02211,-0.005 0.04759,-0.009 0.07596,-0.0119 0.02838,-0.003 0.06002,-0.005 0.09457,-0.007 0.06909,-0.003 0.150219,-0.004 0.243396,-0.004 0.0456,0 0.08959,-7.5e-4 0.132292,-0.004 0.0427,-0.002 0.08422,-0.006 0.124023,-0.0114 0.0398,-0.005 0.07782,-0.0108 0.114722,-0.0181 0.03691,-0.007 0.07244,-0.0157 0.106453,-0.0253 0.03401,-0.01 0.06655,-0.0203 0.09767,-0.032 0.03112,-0.0118 0.06118,-0.0249 0.0894,-0.0388 0.02822,-0.0139 0.05476,-0.0285 0.0801,-0.0444 0.02533,-0.016 0.04939,-0.0332 0.07183,-0.0512 0.02244,-0.018 0.04349,-0.037 0.06305,-0.0568 0.01955,-0.0199 0.03759,-0.0408 0.05426,-0.0625 0.01667,-0.0217 0.0317,-0.0442 0.04548,-0.0677 0.01378,-0.0235 0.02631,-0.0482 0.03721,-0.0734 0.0109,-0.0252 0.02041,-0.0512 0.02842,-0.078 0.008,-0.0268 0.0145,-0.0543 0.01964,-0.0827 0.0051,-0.0284 0.0086,-0.0575 0.01085,-0.0873 0.0023,-0.0299 0.0032,-0.0607 0.0026,-0.092 -6.21e-4,-0.0313 -0.0027,-0.063 -0.0062,-0.0956 -0.0035,-0.0326 -0.0081,-0.0659 -0.01447,-0.0997 -0.0064,-0.0339 -0.01453,-0.0683 -0.02377,-0.10335 -0.0092,-0.0351 -0.01992,-0.0708 -0.03204,-0.10697 -0.01212,-0.0362 -0.02585,-0.0728 -0.04082,-0.11007 -0.01499,-0.0372 -0.03123,-0.0755 -0.04909,-0.11369 -0.01786,-0.0382 -0.03715,-0.0766 -0.05788,-0.11575 -0.02073,-0.0391 -0.04307,-0.0789 -0.06666,-0.11886 -0.02359,-0.0399 -0.04847,-0.0802 -0.07493,-0.12092 -0.02646,-0.0407 -0.05438,-0.0816 -0.08371,-0.12299 -0.02932,-0.0414 -0.05982,-0.0831 -0.09198,-0.12506 -0.03218,-0.042 -0.06573,-0.0841 -0.10077,-0.12661 -0.03503,-0.0425 -0.07165,-0.0857 -0.109554,-0.12867 -0.0379,-0.043 -0.07706,-0.0858 -0.117822,-0.12919 -0.04076,-0.0434 -0.08299,-0.087 -0.126607,-0.13074 -0.04362,-0.0437 -0.08892,-0.0878 -0.135392,-0.13178 -0.09502,-0.0899 -0.184407,-0.17499 -0.268201,-0.2558 -0.0838,-0.0808 -0.161808,-0.15689 -0.234611,-0.22944 -0.0728,-0.0725 -0.140525,-0.14163 -0.202572,-0.2067 -0.06205,-0.0651 -0.118489,-0.12611 -0.170015,-0.18449 -0.05152,-0.0584 -0.09777,-0.11392 -0.13901,-0.1664 -0.04124,-0.0525 -0.07733,-0.10198 -0.10852,-0.14934 -0.01559,-0.0237 -0.03028,-0.0468 -0.04341,-0.0692 -0.01313,-0.0226 -0.02497,-0.0447 -0.03566,-0.0661 -0.01069,-0.0215 -0.02014,-0.0425 -0.02842,-0.0631 -0.0083,-0.0206 -0.01529,-0.0407 -0.02119,-0.0605 -0.0059,-0.0198 -0.01041,-0.0394 -0.01395,-0.0584 -0.0035,-0.019 -0.0055,-0.0374 -0.0067,-0.0558 -0.0012,-0.0184 -0.0016,-0.0364 -5.17e-4,-0.0543 0.0011,-0.0178 0.0029,-0.0358 0.0062,-0.0532 0.0033,-0.0174 0.0084,-0.0341 0.01395,-0.0512 0.0056,-0.0171 0.01187,-0.0344 0.01964,-0.0512 0.0078,-0.0168 0.0164,-0.0335 0.02635,-0.0501 0.0099,-0.0166 0.02098,-0.033 0.03307,-0.0496 0.01209,-0.0166 0.02507,-0.0335 0.03927,-0.0501 0.0142,-0.0167 0.0297,-0.0333 0.04599,-0.0501 0.03258,-0.0336 0.06932,-0.0675 0.110071,-0.10232 0.04075,-0.0348 0.08567,-0.0702 0.134359,-0.10697 0.04868,-0.0368 0.10123,-0.0747 0.157613,-0.1142 0.03386,-0.0237 0.06766,-0.0469 0.101802,-0.0687 0.03414,-0.0219 0.06842,-0.0426 0.102836,-0.0625 0.03441,-0.02 0.06919,-0.0388 0.10387,-0.0568 0.03467,-0.0181 0.06947,-0.0355 0.104386,-0.0517 0.03492,-0.0162 0.06975,-0.0312 0.104903,-0.0455 0.03514,-0.0143 0.07057,-0.0279 0.105937,-0.0403 0.03537,-0.0124 0.07088,-0.0236 0.106454,-0.0341 0.03557,-0.0105 0.07121,-0.0203 0.10697,-0.0289 0.03576,-0.009 0.07156,-0.0165 0.107487,-0.0233 0.03593,-0.007 0.07191,-0.0126 0.108004,-0.0176 0.03609,-0.005 0.07228,-0.009 0.10852,-0.0119 0.03624,-0.003 0.07267,-0.006 0.109037,-0.007 0.0362,-9.9e-4 0.07221,-9.9e-4 0.108521,-5.2e-4 z m 8.689909,2.48151 h 5.16e-4 c 0.0189,-9.3e-4 0.03804,-2.2e-4 0.05684,0.001 0.0188,0.001 0.03753,0.004 0.05633,0.007 0.0188,0.004 0.03763,0.009 0.05633,0.0145 0.0188,0.006 0.03763,0.013 0.05633,0.0212 0.0187,0.008 0.03721,0.0175 0.05581,0.0279 0.0186,0.0104 0.03741,0.0219 0.05581,0.0346 0.0185,0.0127 0.03648,0.0264 0.05478,0.0413 0.0183,0.015 0.03658,0.0308 0.05478,0.0481 0.0181,0.0172 0.03626,0.0358 0.05426,0.0553 0.0179,0.0195 0.03553,0.0398 0.05323,0.0615 0.0177,0.0217 0.03521,0.0448 0.05271,0.0687 0.0175,0.0239 0.03499,0.0488 0.05219,0.0749 0.0344,0.0523 0.06811,0.1093 0.101286,0.17053 0.0332,0.0612 0.06587,0.12679 0.09767,0.19689 0.0318,0.0701 0.06282,0.14483 0.09302,0.22376 0.02,0.0524 0.03794,0.10446 0.05374,0.15606 0.0158,0.0516 0.02964,0.10279 0.04134,0.15348 0.0117,0.0507 0.02157,0.10076 0.02946,0.15038 0.008,0.0496 0.01389,0.0984 0.01809,0.14676 0.004,0.0484 0.0067,0.0961 0.0067,0.14315 6.7e-4,0.047 0,0.0935 -0.0026,0.13901 -0.003,0.0455 -0.007,0.0901 -0.01292,0.13384 -0.006,0.0438 -0.01301,0.0867 -0.0217,0.12867 -0.009,0.0419 -0.01899,0.083 -0.03049,0.12299 -0.0115,0.0399 -0.02424,0.079 -0.03824,0.11679 -0.0141,0.0378 -0.02949,0.0741 -0.04599,0.10955 -0.0165,0.0355 -0.03401,0.0698 -0.05271,0.10284 -0.0187,0.033 -0.03821,0.0647 -0.05891,0.0951 -0.0207,0.0304 -0.04261,0.0597 -0.06511,0.0873 -0.0225,0.0276 -0.04608,0.0528 -0.07028,0.0775 -0.0242,0.0247 -0.04933,0.0487 -0.07493,0.0703 -0.0257,0.0216 -0.05206,0.0411 -0.07906,0.0594 -0.027,0.0183 -0.05458,0.0347 -0.08268,0.0496 -0.0281,0.0149 -0.05627,0.0284 -0.08527,0.0398 -0.029,0.0114 -0.05857,0.0207 -0.08837,0.0284 -0.0297,0.008 -0.05962,0.0137 -0.08992,0.0176 -0.0303,0.004 -0.0613,0.006 -0.09198,0.006 -0.0307,-2e-4 -0.06118,-0.003 -0.09198,-0.007 -0.03079,-0.004 -0.0617,-0.0109 -0.0925,-0.0196 -0.0308,-0.009 -0.0619,-0.0196 -0.0925,-0.0325 -0.0306,-0.0132 -0.06117,-0.0287 -0.09147,-0.0465 -0.0303,-0.0178 -0.06022,-0.0383 -0.08992,-0.061 -0.0297,-0.0226 -0.05885,-0.0474 -0.08785,-0.0749 -0.029,-0.0276 -0.05778,-0.0573 -0.08578,-0.0899 -0.028,-0.0327 -0.05527,-0.0675 -0.08217,-0.10542 -0.0269,-0.0379 -0.05348,-0.0786 -0.07906,-0.12195 -0.0256,-0.0433 -0.05031,-0.0896 -0.07441,-0.1385 -0.0209,-0.0423 -0.04071,-0.0837 -0.05891,-0.12402 -0.0183,-0.0404 -0.03504,-0.0796 -0.05064,-0.11834 -0.0156,-0.0387 -0.03041,-0.0769 -0.04341,-0.11421 -0.013,-0.0373 -0.02474,-0.0734 -0.03514,-0.10955 -0.0104,-0.0361 -0.01959,-0.0718 -0.02739,-0.10697 -0.008,-0.0352 -0.01392,-0.0703 -0.01912,-0.1049 -0.005,-0.0346 -0.009,-0.0686 -0.01188,-0.10284 -0.003,-0.0342 -0.0036,-0.0683 -0.0036,-0.10232 0,-0.0341 0.0016,-0.0681 0.0036,-0.10232 0.003,-0.0342 0.007,-0.0688 0.01188,-0.10335 0.005,-0.0346 0.01132,-0.0692 0.01912,-0.10439 0.008,-0.0352 0.01699,-0.0709 0.02739,-0.10697 0.0104,-0.0361 0.02214,-0.0728 0.03514,-0.11007 0.013,-0.0373 0.02781,-0.0755 0.04341,-0.1142 0.0156,-0.0387 0.03244,-0.078 0.05064,-0.11834 0.0183,-0.0404 0.03811,-0.0817 0.05891,-0.12402 0.0329,-0.0668 0.0666,-0.12867 0.100769,-0.18604 0.0171,-0.0287 0.03428,-0.0563 0.05168,-0.0827 0.0174,-0.0264 0.03459,-0.052 0.05219,-0.076 0.0176,-0.024 0.03543,-0.0465 0.05323,-0.0682 0.0179,-0.0217 0.03564,-0.0426 0.05374,-0.062 0.018,-0.0194 0.03648,-0.0372 0.05478,-0.0543 0.0182,-0.017 0.03638,-0.0327 0.05478,-0.0475 0.0184,-0.0147 0.03679,-0.0284 0.05529,-0.0408 0.0185,-0.0124 0.03721,-0.0235 0.05581,-0.0336 0.0186,-0.0101 0.03763,-0.0196 0.05633,-0.0274 0.0187,-0.008 0.03753,-0.0136 0.05633,-0.0191 0.0188,-0.006 0.03753,-0.0102 0.05633,-0.0134 0.0188,-0.003 0.03753,-0.005 0.05633,-0.006 z m 2.919201,2.90835 h 5.17e-4 c 0.0136,0 0.02711,0.002 0.04031,0.005 0.0132,0.003 0.02586,0.007 0.03876,0.0124 0.0128,0.006 0.02542,0.0125 0.03772,0.0207 0.0124,0.008 0.02489,0.0178 0.03669,0.0284 0.0118,0.0106 0.02342,0.0217 0.03462,0.0346 0.0112,0.0129 0.02196,0.0278 0.03256,0.0429 0.0105,0.0151 0.02069,0.031 0.03049,0.0481 0.01,0.0171 0.019,0.0358 0.02791,0.0548 0.0179,0.0379 0.03428,0.0795 0.04858,0.12402 0.0142,0.0445 0.02607,0.0921 0.03617,0.14211 0.01,0.05 0.01806,0.10222 0.02325,0.15658 0.005,0.0543 0.0078,0.11093 0.0078,0.16847 0,0.039 -0.0017,0.0779 -0.0057,0.11679 -0.004,0.0389 -0.0106,0.0776 -0.0186,0.11627 -0.008,0.0386 -0.01776,0.077 -0.02945,0.11524 -0.0117,0.0383 -0.02521,0.0764 -0.04031,0.1142 -0.0151,0.0378 -0.03234,0.0755 -0.05064,0.11266 -0.0184,0.0372 -0.03813,0.0737 -0.05943,0.11007 -0.0213,0.0364 -0.04411,0.0725 -0.06821,0.108 -0.0241,0.0355 -0.04926,0.0704 -0.07596,0.1049 -0.0266,0.0345 -0.05483,0.0689 -0.08372,0.10232 -0.0289,0.0334 -0.05892,0.0661 -0.08992,0.0982 -0.031,0.0321 -0.0627,0.0628 -0.0956,0.0935 -0.0328,0.0307 -0.0668,0.0607 -0.101286,0.0899 -0.0345,0.0292 -0.0696,0.0582 -0.10542,0.0858 -0.0359,0.0275 -0.0725,0.0543 -0.109554,0.0801 -0.037,0.0258 -0.0747,0.05 -0.112655,0.0739 -0.038,0.0239 -0.07609,0.0469 -0.114721,0.0687 -0.0387,0.0218 -0.07761,0.0423 -0.116789,0.062 -0.0391,0.0197 -0.07839,0.0385 -0.117822,0.0558 -0.0394,0.0174 -0.0789,0.0336 -0.118339,0.0486 -0.0394,0.0149 -0.0786,0.0284 -0.117823,0.0408 -0.0392,0.0124 -0.07851,0.0234 -0.117305,0.0331 -0.0388,0.01 -0.0771,0.0184 -0.115239,0.0253 -0.0381,0.007 -0.076,0.0116 -0.113171,0.0155 -0.0372,0.004 -0.074,0.006 -0.110071,0.007 -0.0361,8.9e-4 -0.0712,5e-5 -0.105936,-0.002 -0.0348,-0.002 -0.0692,-0.006 -0.10232,-0.0119 -0.0332,-0.006 -0.06534,-0.0126 -0.09664,-0.0217 -0.0314,-0.009 -0.06155,-0.0199 -0.09095,-0.0326 -0.0293,-0.0127 -0.05775,-0.0275 -0.08475,-0.0439 -0.0271,-0.0164 -0.05291,-0.0346 -0.07751,-0.0548 -0.0246,-0.0202 -0.04786,-0.0425 -0.06976,-0.0667 -0.0219,-0.0242 -0.0426,-0.0509 -0.0615,-0.0791 -0.0151,-0.0226 -0.02817,-0.0464 -0.03927,-0.0708 -0.011,-0.0244 -0.01977,-0.0494 -0.02687,-0.0754 -0.007,-0.0261 -0.0122,-0.0531 -0.0155,-0.0806 -0.003,-0.0275 -0.0052,-0.0554 -0.0052,-0.0842 3.6e-4,-0.0288 0.0032,-0.0584 0.0072,-0.0884 0.004,-0.03 0.0085,-0.0605 0.01602,-0.0915 0.007,-0.0309 0.01554,-0.0624 0.02584,-0.0941 0.0103,-0.0318 0.02226,-0.0642 0.03566,-0.0966 0.0133,-0.0324 0.02834,-0.0647 0.04444,-0.0977 0.0162,-0.0329 0.03391,-0.0665 0.05271,-0.0997 0.0189,-0.0333 0.03854,-0.0663 0.05994,-0.0997 0.0214,-0.0334 0.0439,-0.0673 0.0677,-0.10077 0.0237,-0.0335 0.04903,-0.0669 0.07493,-0.10025 0.026,-0.0333 0.05262,-0.0662 0.08061,-0.0992 0.028,-0.033 0.05692,-0.0661 0.08682,-0.0987 0.0299,-0.0325 0.0609,-0.0647 0.0925,-0.0966 0.0316,-0.0319 0.06405,-0.0634 0.09715,-0.0946 0.0332,-0.0311 0.0672,-0.0618 0.101803,-0.092 0.0346,-0.0302 0.0701,-0.0598 0.105936,-0.0889 0.0358,-0.0291 0.0721,-0.0575 0.109038,-0.0853 0.0369,-0.0278 0.07431,-0.0548 0.112137,-0.0811 0.0379,-0.0264 0.07609,-0.0522 0.114722,-0.077 0.0386,-0.0248 0.07751,-0.0488 0.116789,-0.0718 0.0393,-0.023 0.0786,-0.0445 0.118339,-0.0656 0.0397,-0.0211 0.0799,-0.0415 0.119889,-0.0605 0.04,-0.019 0.0798,-0.0375 0.119889,-0.0543 0.0401,-0.0168 0.0803,-0.0321 0.120407,-0.0465 0.0401,-0.0144 0.08051,-0.0274 0.120406,-0.0393 0.0399,-0.0118 0.07979,-0.0224 0.119372,-0.0315 0.0396,-0.009 0.0787,-0.0169 0.117822,-0.0232 0.0391,-0.006 0.0779,-0.011 0.116272,-0.0139 0.0384,-0.003 0.07659,-0.005 0.114205,-0.005 z m -5.703527,0.0625 h 5.16e-4 5.17e-4 c 0.02339,3e-5 0.04748,0.001 0.07183,0.003 0.0247,0.002 0.04943,0.005 0.07493,0.009 0.0255,0.004 0.05131,0.009 0.07751,0.0155 0.0262,0.006 0.05269,0.0128 0.07958,0.0207 0.0537,0.0158 0.108672,0.0353 0.164332,0.0579 0.0557,0.0226 0.112177,0.0488 0.168981,0.0775 0.0568,0.0288 0.113905,0.0604 0.171049,0.0946 0.0571,0.0342 0.114375,0.0706 0.171049,0.10956 0.0567,0.039 0.113036,0.0805 0.168466,0.1235 0.0554,0.0429 0.109917,0.088 0.163297,0.13436 0.0534,0.0464 0.105544,0.0941 0.156063,0.14315 0.0505,0.0491 0.09941,0.0993 0.146244,0.15038 0.0469,0.0511 0.0919,0.1032 0.134359,0.15554 0.0424,0.0523 0.08219,0.1052 0.119373,0.15813 0.0372,0.0529 0.07171,0.10583 0.102836,0.15865 0.0311,0.0528 0.0589,0.10558 0.0832,0.15761 0.0121,0.026 0.02329,0.0518 0.03359,0.0775 0.0103,0.0257 0.0196,0.0512 0.02791,0.0765 0.008,0.0253 0.0155,0.0502 0.0217,0.0749 0.006,0.0248 0.0114,0.0492 0.0155,0.0734 0.005,0.0272 0.008,0.0538 0.01085,0.0796 0.003,0.0258 0.0042,0.0511 0.0052,0.0755 5.8e-4,0.0244 2e-4,0.0478 -10e-4,0.0708 -0.001,0.023 -0.0042,0.0456 -0.0072,0.0672 -0.003,0.0216 -0.007,0.0433 -0.0124,0.0636 -0.005,0.0202 -0.01077,0.0396 -0.01757,0.0584 -0.007,0.0188 -0.01484,0.0369 -0.02325,0.0543 -0.008,0.0174 -0.01781,0.0337 -0.02791,0.0496 -0.0101,0.0159 -0.02076,0.0315 -0.03256,0.046 -0.0117,0.0145 -0.02452,0.0278 -0.03772,0.0408 -0.0133,0.013 -0.02706,0.0257 -0.04186,0.0372 -0.0148,0.0115 -0.03031,0.022 -0.04651,0.032 -0.0162,0.0101 -0.03314,0.0189 -0.05064,0.0274 -0.0176,0.009 -0.03588,0.0167 -0.05478,0.0238 -0.0189,0.007 -0.03871,0.0136 -0.05891,0.0191 -0.0202,0.006 -0.04113,0.0105 -0.06253,0.0145 -0.0214,0.004 -0.04313,0.007 -0.06563,0.0103 -0.0226,0.002 -0.04606,0.004 -0.06976,0.005 -0.0237,9.3e-4 -0.04713,9.9e-4 -0.07183,5.1e-4 -0.0248,-6.3e-4 -0.05068,-0.002 -0.07648,-0.004 -0.0515,-0.004 -0.105017,-0.012 -0.160197,-0.0227 -0.05519,-0.0107 -0.112092,-0.0242 -0.170532,-0.0413 -0.0584,-0.0171 -0.118067,-0.0374 -0.179317,-0.061 -0.0613,-0.0236 -0.123941,-0.0505 -0.187585,-0.0806 -0.0637,-0.0301 -0.128704,-0.0635 -0.194304,-0.10025 -0.0656,-0.0368 -0.131824,-0.0774 -0.198954,-0.12092 -0.0289,-0.0187 -0.05715,-0.0383 -0.08475,-0.0589 -0.0275,-0.0206 -0.05452,-0.0422 -0.08062,-0.0646 -0.0261,-0.0224 -0.05116,-0.0452 -0.07596,-0.0692 -0.0247,-0.024 -0.04905,-0.049 -0.07235,-0.0744 -0.0233,-0.0254 -0.0459,-0.0514 -0.0677,-0.078 -0.0219,-0.0266 -0.04274,-0.0534 -0.06305,-0.0811 -0.0204,-0.0277 -0.04011,-0.0567 -0.05891,-0.0853 -0.0189,-0.0287 -0.03686,-0.0569 -0.05426,-0.0863 -0.0173,-0.0295 -0.03433,-0.0593 -0.05013,-0.0894 -0.0158,-0.0301 -0.03066,-0.0614 -0.04496,-0.092 -0.0142,-0.0306 -0.02771,-0.0611 -0.04031,-0.092 -0.0126,-0.0308 -0.02414,-0.0615 -0.03514,-0.0925 -0.011,-0.031 -0.02161,-0.0621 -0.03101,-0.093 -0.009,-0.031 -0.01711,-0.0622 -0.02481,-0.093 -0.008,-0.0308 -0.01509,-0.061 -0.02119,-0.0915 -0.006,-0.0304 -0.0112,-0.0604 -0.0155,-0.0904 -0.004,-0.0299 -0.0075,-0.0596 -0.0098,-0.0889 -0.003,-0.0293 -0.0042,-0.0584 -0.0052,-0.0868 -8.3e-4,-0.0284 -9.6e-4,-0.0558 0,-0.0832 9.5e-4,-0.0275 0.0027,-0.0543 0.0057,-0.0806 0.003,-0.0263 0.0065,-0.052 0.01137,-0.077 0.005,-0.025 0.0096,-0.0498 0.01602,-0.0734 0.006,-0.0235 0.01392,-0.0458 0.02222,-0.0677 0.008,-0.0219 0.01771,-0.0428 0.02791,-0.0631 0.0102,-0.0201 0.02149,-0.0392 0.03359,-0.0574 0.0121,-0.0181 0.02569,-0.0361 0.03979,-0.0522 0.0141,-0.016 0.02886,-0.0302 0.04496,-0.0439 0.016,-0.0138 0.03316,-0.0264 0.05116,-0.0377 0.018,-0.0113 0.03684,-0.0217 0.05684,-0.0305 0.02,-0.009 0.04094,-0.0157 0.06305,-0.0217 0.022,-0.006 0.04515,-0.0115 0.06925,-0.0145 0.02377,-0.003 0.0486,-0.005 0.07442,-0.005 z m 2.813781,3.30058 c 0.0032,-6e-5 0.0061,0 0.0093,0 0.0255,0 0.05031,0.003 0.07441,0.007 0.0241,0.005 0.04756,0.0109 0.06976,0.0196 0.0222,0.009 0.04376,0.0197 0.06356,0.032 0.0197,0.0123 0.03798,0.0263 0.05478,0.0419 0.0168,0.0155 0.03208,0.0325 0.04548,0.0506 0.0134,0.0182 0.02471,0.0379 0.03411,0.0584 0.009,0.0205 0.0167,0.0418 0.0217,0.0641 0.005,0.0223 0.0078,0.0452 0.0078,0.0687 0,0.0236 -0.0028,0.0465 -0.0078,0.0687 -0.005,0.0223 -0.0123,0.0436 -0.0217,0.0641 -0.009,0.0205 -0.02071,0.0402 -0.03411,0.0584 -0.0134,0.0182 -0.02868,0.0351 -0.04548,0.0506 -0.0168,0.0155 -0.03498,0.0294 -0.05478,0.0419 -0.0197,0.0123 -0.04136,0.0233 -0.06356,0.032 -0.0222,0.009 -0.04566,0.0151 -0.06976,0.0196 -0.0241,0.005 -0.04891,0.007 -0.07441,0.007 -0.0255,0 -0.05031,-0.003 -0.07441,-0.007 -0.0241,-0.005 -0.04715,-0.0109 -0.06925,-0.0196 -0.0222,-0.009 -0.04325,-0.0197 -0.06305,-0.032 -0.0197,-0.0123 -0.03849,-0.0263 -0.05529,-0.0419 -0.0168,-0.0155 -0.03208,-0.0324 -0.04548,-0.0506 -0.0134,-0.0182 -0.02471,-0.0379 -0.03411,-0.0584 -0.009,-0.0205 -0.0167,-0.0418 -0.0217,-0.0641 -0.005,-0.0222 -0.0078,-0.0452 -0.0078,-0.0687 0,-0.0236 0.0028,-0.0465 0.0078,-0.0687 0.005,-0.0222 0.0123,-0.0436 0.0217,-0.0641 0.009,-0.0205 0.02071,-0.0402 0.03411,-0.0584 0.0134,-0.0182 0.02868,-0.0351 0.04548,-0.0506 0.0168,-0.0155 0.03559,-0.0294 0.05529,-0.0419 0.0197,-0.0123 0.04085,-0.0233 0.06305,-0.032 0.0222,-0.009 0.04525,-0.0151 0.06925,-0.0196 0.02109,-0.004 0.04295,-0.006 0.06511,-0.007 z m 2.653068,0.31729 h 5.17e-4 c 0.0174,-1.3e-4 0.03469,2e-5 0.05168,5.2e-4 0.03363,0.001 0.06641,0.004 0.09819,0.009 0.0321,0.005 0.06353,0.0107 0.09353,0.0186 0.0301,0.008 0.05912,0.0176 0.08682,0.0289 0.0277,0.0113 0.05397,0.0244 0.07906,0.0393 0.0251,0.0149 0.04901,0.0316 0.07131,0.0501 0.0223,0.0185 0.04281,0.0388 0.06201,0.061 0.0192,0.0222 0.03691,0.0463 0.05271,0.0724 0.0158,0.026 0.03007,0.0539 0.04237,0.0837 0.0123,0.0299 0.02261,0.0618 0.03101,0.0956 0.008,0.0338 0.01482,0.0696 0.01912,0.10749 0.004,0.0379 0.0072,0.0774 0.0072,0.11937 0,0.0287 -0.0011,0.0573 -0.0031,0.0858 -0.002,0.0284 -0.0053,0.0571 -0.0083,0.0853 -0.004,0.0282 -0.008,0.0558 -0.01395,0.0837 -0.006,0.0279 -0.01234,0.0557 -0.01964,0.0832 -0.007,0.0275 -0.01529,0.055 -0.02429,0.0822 -0.009,0.0272 -0.01834,0.0544 -0.02894,0.0811 -0.0106,0.0267 -0.02191,0.0533 -0.03411,0.0796 -0.0122,0.0263 -0.02547,0.0518 -0.03927,0.0775 -0.0137,0.0257 -0.02821,0.0513 -0.04341,0.0765 -0.0152,0.0252 -0.03136,0.0504 -0.04806,0.0749 -0.0333,0.0491 -0.06939,0.0967 -0.108004,0.14314 -0.0386,0.0464 -0.07991,0.0915 -0.123506,0.13488 -0.0436,0.0434 -0.0894,0.0851 -0.13746,0.12505 -0.0481,0.04 -0.0982,0.078 -0.150378,0.11421 -0.0522,0.0362 -0.106374,0.0707 -0.162264,0.10283 -0.0559,0.0321 -0.113469,0.0618 -0.172599,0.0894 -0.0591,0.0276 -0.119931,0.0532 -0.181901,0.076 -0.062,0.0228 -0.125283,0.0428 -0.189653,0.0605 -0.0644,0.0176 -0.13003,0.0333 -0.19637,0.0455 -0.0332,0.006 -0.06614,0.0109 -0.09974,0.0155 -0.0336,0.005 -0.0674,0.008 -0.101286,0.0119 -0.0339,0.003 -0.0681,0.006 -0.102319,0.007 -0.0343,0.002 -0.0688,0.002 -0.103353,0.002 -0.0983,0 -0.18592,-0.002 -0.26355,-0.006 -0.0388,-0.002 -0.0751,-0.005 -0.109037,-0.009 -0.0339,-0.004 -0.06527,-0.008 -0.09457,-0.0134 -0.0292,-0.005 -0.05643,-0.0115 -0.08113,-0.0186 -0.0247,-0.007 -0.04678,-0.0151 -0.06718,-0.0243 -0.0203,-0.009 -0.03858,-0.0191 -0.05478,-0.0305 -0.0162,-0.0114 -0.03017,-0.0239 -0.04237,-0.0377 -0.0122,-0.0139 -0.02261,-0.0295 -0.03101,-0.046 -0.008,-0.0165 -0.01494,-0.0344 -0.01964,-0.0538 -0.005,-0.0194 -0.0083,-0.0401 -0.0093,-0.0625 -0.001,-0.0225 -8.42e-4,-0.0466 0.001,-0.0724 0.002,-0.0257 0.005,-0.053 0.01033,-0.0822 0.005,-0.0292 0.01174,-0.0601 0.01964,-0.093 0.0158,-0.0658 0.03716,-0.13936 0.06356,-0.22118 0.0152,-0.0473 0.03194,-0.0942 0.05064,-0.14004 0.0186,-0.0459 0.03918,-0.091 0.06098,-0.13539 0.0217,-0.0443 0.04465,-0.088 0.06925,-0.13075 0.0246,-0.0427 0.05083,-0.0846 0.07803,-0.12557 0.0273,-0.041 0.05557,-0.0812 0.08527,-0.12041 0.0296,-0.0392 0.0607,-0.0774 0.0925,-0.11472 0.0318,-0.0373 0.06449,-0.0737 0.09819,-0.10904 0.0337,-0.0354 0.06799,-0.07 0.103353,-0.10335 0.0353,-0.0333 0.0713,-0.0654 0.108004,-0.0966 0.0367,-0.0312 0.0743,-0.0615 0.112138,-0.0904 0.0378,-0.029 0.076,-0.0565 0.114722,-0.0832 0.0387,-0.0266 0.0779,-0.0522 0.117305,-0.0765 0.0394,-0.0242 0.07911,-0.047 0.118856,-0.0687 0.0398,-0.0217 0.0794,-0.0423 0.119372,-0.0615 0.0399,-0.0192 0.0801,-0.0372 0.11989,-0.0537 0.0398,-0.0165 0.0794,-0.0317 0.118855,-0.0455 0.0395,-0.0138 0.0789,-0.0263 0.117823,-0.0372 0.0389,-0.0109 0.0772,-0.0204 0.115238,-0.0284 0.038,-0.008 0.0757,-0.0146 0.112655,-0.0196 0.0369,-0.005 0.07299,-0.008 0.10852,-0.0103 0.0178,-10e-4 0.03531,-10e-4 0.05271,-0.002 z m -5.40122,0.0253 c 0.069,0 0.137308,0.003 0.204638,0.008 0.0673,0.005 0.133665,0.0133 0.198955,0.0238 0.0653,0.0104 0.129316,0.023 0.192236,0.0382 0.0629,0.0153 0.124822,0.0329 0.185001,0.0527 0.0602,0.0198 0.1186,0.042 0.1757,0.0661 0.0571,0.0241 0.112732,0.05 0.166398,0.078 0.0537,0.0281 0.105667,0.0581 0.155547,0.0899 0.0499,0.0318 0.0974,0.0655 0.143143,0.10077 0.0457,0.0353 0.0895,0.0721 0.130742,0.11059 0.0413,0.0384 0.0804,0.0785 0.116788,0.11989 0.0364,0.0414 0.0701,0.0836 0.101286,0.12764 0.0312,0.044 0.06008,0.0895 0.08578,0.13591 0.0128,0.0232 0.02477,0.0465 0.03617,0.0703 0.0114,0.0237 0.02224,0.0476 0.03204,0.0718 0.01,0.0242 0.01899,0.0492 0.02739,0.0739 0.008,0.0247 0.01604,0.0493 0.02274,0.0744 0.007,0.0252 0.01237,0.0509 0.01757,0.0765 0.005,0.0256 0.009,0.0511 0.01292,0.077 0.003,0.0259 0.0073,0.0521 0.0083,0.0785 0.002,0.0263 0.0031,0.0525 0.0031,0.0791 0,0.0322 -0.0011,0.0636 -0.0031,0.0941 -0.002,0.0304 -0.0053,0.0603 -0.0093,0.0889 -0.004,0.0286 -0.009,0.0559 -0.01499,0.0827 -0.006,0.0268 -0.01287,0.053 -0.02067,0.078 -0.008,0.025 -0.01634,0.049 -0.02584,0.0723 -0.01,0.0232 -0.01981,0.0458 -0.03101,0.0672 -0.0112,0.0214 -0.02337,0.042 -0.03617,0.0615 -0.0128,0.0195 -0.02652,0.0381 -0.04082,0.0558 -0.0143,0.0177 -0.02916,0.0338 -0.04496,0.0496 -0.0158,0.0158 -0.03241,0.0315 -0.04961,0.0455 -0.0172,0.014 -0.03483,0.0267 -0.05323,0.0388 -0.0185,0.0121 -0.03766,0.0234 -0.05736,0.0336 -0.0197,0.0102 -0.04008,0.0196 -0.06098,0.0279 -0.0208,0.008 -0.04208,0.0158 -0.06408,0.0222 -0.0219,0.006 -0.04428,0.0115 -0.06718,0.016 -0.0229,0.005 -0.04638,0.008 -0.07028,0.0109 -0.0239,0.003 -0.04816,0.004 -0.07286,0.005 -0.0247,7.1e-4 -0.04995,1.3e-4 -0.07545,-0.001 -0.0255,-10e-4 -0.05132,-0.003 -0.07752,-0.006 -0.0262,-0.003 -0.05278,-0.006 -0.07958,-0.0119 -0.0268,-0.005 -0.05383,-0.0115 -0.08113,-0.0186 -0.0274,-0.007 -0.05478,-0.0152 -0.08268,-0.0243 -0.0278,-0.009 -0.05603,-0.019 -0.08423,-0.03 -0.0282,-0.011 -0.05667,-0.0232 -0.08527,-0.0362 -0.0286,-0.013 -0.0575,-0.0269 -0.0863,-0.0419 -0.0288,-0.0149 -0.05782,-0.0306 -0.08682,-0.0475 -0.029,-0.0169 -0.05823,-0.0353 -0.08733,-0.0543 -0.0291,-0.0189 -0.05823,-0.0385 -0.08733,-0.0594 -0.0291,-0.0209 -0.05823,-0.0432 -0.08733,-0.0661 -0.0291,-0.023 -0.05792,-0.0468 -0.08682,-0.0718 -0.029,-0.025 -0.05802,-0.0505 -0.08682,-0.0775 -0.0288,-0.027 -0.05728,-0.0552 -0.08578,-0.0842 -0.0485,-0.0495 -0.0944,-0.0997 -0.136942,-0.15038 -0.0426,-0.0507 -0.0817,-0.10168 -0.118339,-0.15296 -0.0366,-0.0513 -0.07061,-0.10267 -0.101286,-0.154 -0.0307,-0.0513 -0.0585,-0.10268 -0.0832,-0.15348 -0.0247,-0.0508 -0.04641,-0.10119 -0.06511,-0.15089 -0.0188,-0.0497 -0.03474,-0.0987 -0.04754,-0.14676 -0.0128,-0.048 -0.02267,-0.0953 -0.02945,-0.14108 -0.007,-0.0458 -0.01057,-0.0903 -0.01137,-0.13333 -4e-4,-0.0215 -4e-6,-0.0424 0.001,-0.063 10e-4,-0.0207 0.0032,-0.0412 0.0062,-0.061 0.003,-0.0198 0.006,-0.039 0.01033,-0.0579 0.004,-0.0188 0.009,-0.0369 0.01447,-0.0548 0.006,-0.0178 0.01202,-0.0355 0.01912,-0.0522 0.007,-0.0167 0.01507,-0.033 0.02377,-0.0486 0.009,-0.0156 0.0178,-0.0301 0.0279,-0.0444 0.0101,-0.0143 0.02086,-0.0283 0.03256,-0.0413 0.0117,-0.013 0.02411,-0.025 0.03721,-0.0367 0.0132,-0.0116 0.02716,-0.0229 0.04186,-0.0331 0.0147,-0.0102 0.03031,-0.0197 0.04651,-0.0284 0.0162,-0.009 0.03294,-0.0167 0.05064,-0.0238 0.0177,-0.007 0.03609,-0.0132 0.05529,-0.0186 0.0192,-0.005 0.03914,-0.01 0.05994,-0.0134 0.0207,-0.004 0.0423,-0.006 0.0646,-0.008 0.0223,-0.002 0.04555,-0.003 0.06925,-0.003 z m 5.474084,3.62149 v 5.1e-4 0.001 c 0.0403,-0.001 0.0782,0 0.114205,0.003 0.036,0.003 0.07,0.009 0.101803,0.016 0.0318,0.008 0.0616,0.0182 0.0894,0.0305 0.0278,0.0123 0.05371,0.0265 0.07751,0.0434 0.0238,0.0169 0.04563,0.0363 0.06563,0.0579 0.02,0.0215 0.03838,0.0451 0.05478,0.0713 0.0164,0.0262 0.03112,0.0548 0.04392,0.0858 0.0128,0.031 0.02357,0.0645 0.03307,0.10025 0.009,0.0358 0.01704,0.074 0.02325,0.11472 0.006,0.0407 0.01095,0.0841 0.01395,0.12971 0.003,0.0456 0.0052,0.0936 0.0052,0.14418 0,0.035 -0.0032,0.0699 -0.0072,0.1049 -0.004,0.035 -0.01,0.0704 -0.01809,0.10542 -0.008,0.035 -0.01817,0.0701 -0.02997,0.1049 -0.0118,0.0348 -0.02511,0.0693 -0.04031,0.10387 -0.0152,0.0346 -0.03224,0.0687 -0.05064,0.10284 -0.0184,0.0341 -0.03803,0.0682 -0.05943,0.1018 -0.0214,0.0336 -0.04401,0.0668 -0.06821,0.0997 -0.0242,0.0329 -0.04978,0.0656 -0.07648,0.0977 -0.0267,0.0321 -0.05482,0.0644 -0.08372,0.0956 -0.0289,0.0312 -0.05892,0.0614 -0.08992,0.0915 -0.031,0.0301 -0.0628,0.06 -0.0956,0.0889 -0.0328,0.0289 -0.0664,0.0572 -0.100769,0.0847 -0.0344,0.0276 -0.0697,0.054 -0.10542,0.0801 -0.0357,0.0261 -0.0717,0.0519 -0.108521,0.0765 -0.0368,0.0246 -0.0744,0.048 -0.112138,0.0708 -0.0377,0.0228 -0.0754,0.0446 -0.113688,0.0656 -0.0383,0.021 -0.077,0.0415 -0.115755,0.0605 -0.0387,0.019 -0.0774,0.0362 -0.116272,0.0532 -0.0389,0.0169 -0.078,0.0328 -0.116789,0.0475 -0.0388,0.0147 -0.0778,0.0285 -0.116272,0.0408 -0.0385,0.0124 -0.07679,0.0237 -0.114721,0.0336 -0.038,0.01 -0.0755,0.0181 -0.112655,0.0253 -0.0372,0.007 -0.0739,0.0136 -0.110071,0.0181 -0.0362,0.005 -0.072,0.008 -0.10697,0.009 -0.0349,0.002 -0.0689,0.002 -0.102319,5.1e-4 -0.0334,-0.001 -0.06587,-0.004 -0.09767,-0.009 -0.0317,-0.004 -0.0627,-0.0104 -0.0925,-0.0181 -0.0298,-0.008 -0.0587,-0.0173 -0.0863,-0.0284 -0.0276,-0.0111 -0.05438,-0.0236 -0.07958,-0.0382 -0.0252,-0.0146 -0.04881,-0.0308 -0.07131,-0.0491 -0.0225,-0.0182 -0.04386,-0.0385 -0.06356,-0.0605 -0.0196,-0.022 -0.03766,-0.0459 -0.05426,-0.0718 -0.0102,-0.016 -0.01939,-0.0327 -0.02739,-0.0501 -0.008,-0.0175 -0.01477,-0.0359 -0.02067,-0.0548 -0.006,-0.0189 -0.01067,-0.0382 -0.01447,-0.0584 -0.004,-0.0202 -0.0058,-0.0407 -0.0078,-0.062 -0.002,-0.0213 -0.0031,-0.0428 -0.0031,-0.0651 1.2e-4,-0.0224 0.0011,-0.0454 0.0031,-0.0687 0.002,-0.0233 0.0048,-0.0471 0.0088,-0.0713 0.004,-0.0242 0.0081,-0.0485 0.01395,-0.0734 0.0109,-0.0498 0.02498,-0.10093 0.04238,-0.15296 0.0174,-0.052 0.03768,-0.10525 0.06098,-0.15864 0.0233,-0.0534 0.04943,-0.10739 0.07803,-0.16124 0.0286,-0.0538 0.05972,-0.10729 0.09302,-0.16071 0.0334,-0.0534 0.0689,-0.10654 0.106453,-0.15865 0.0376,-0.0521 0.0771,-0.10357 0.118339,-0.15347 0.0412,-0.0499 0.08429,-0.0984 0.128675,-0.14522 0.0443,-0.0468 0.0901,-0.0915 0.136942,-0.13435 0.0469,-0.0428 0.0948,-0.0835 0.143661,-0.12144 0.0489,-0.0379 0.099,-0.0732 0.149345,-0.10542 0.0252,-0.0161 0.04995,-0.0315 0.07545,-0.046 0.0254,-0.0145 0.0514,-0.0281 0.077,-0.0408 0.0256,-0.0128 0.05078,-0.0253 0.07648,-0.0362 0.0257,-0.0109 0.05182,-0.021 0.07752,-0.03 0.0639,-0.0223 0.125038,-0.0423 0.183968,-0.0605 0.0589,-0.0182 0.115419,-0.0346 0.169499,-0.0486 0.0541,-0.014 0.106176,-0.0259 0.155546,-0.0357 0.0494,-0.01 0.0963,-0.0173 0.141076,-0.0227 0.0448,-0.005 0.0873,-0.009 0.127641,-0.0103 z m -5.173328,0.14624 5.17e-4,5.2e-4 c 0.0613,0 0.120997,0.002 0.179317,0.006 0.0583,0.004 0.115223,0.01 0.170533,0.0181 0.0553,0.008 0.10894,0.0184 0.16123,0.0305 0.0523,0.0121 0.103176,0.0263 0.152446,0.0424 0.0493,0.0161 0.0969,0.0332 0.143143,0.0532 0.0462,0.02 0.0912,0.0421 0.134359,0.0661 0.0432,0.024 0.0844,0.05 0.12454,0.078 0.0401,0.028 0.07869,0.058 0.115755,0.0899 0.037,0.032 0.073,0.0659 0.106971,0.10181 0.034,0.0359 0.06635,0.0738 0.09715,0.11368 0.0309,0.0399 0.06005,0.0818 0.08785,0.12558 0.0277,0.0438 0.05385,0.0898 0.07855,0.13746 0.0246,0.0477 0.04775,0.0972 0.06925,0.14883 0.0215,0.0516 0.04113,0.10519 0.05943,0.16071 0.0184,0.0555 0.03544,0.11318 0.05064,0.1726 0.0152,0.0594 0.02882,0.12067 0.04082,0.18397 0.005,0.0272 0.009,0.0537 0.0124,0.0796 0.003,0.0259 0.0052,0.0511 0.0062,0.0754 10e-4,0.0245 9.96e-4,0.0482 5.16e-4,0.0713 -8.6e-4,0.0231 -0.0032,0.0455 -0.0062,0.0672 -0.003,0.0217 -0.006,0.0433 -0.01085,0.0636 -0.005,0.0203 -0.01014,0.0396 -0.01654,0.0584 -0.006,0.0188 -0.0136,0.0369 -0.0217,0.0543 -0.008,0.0174 -0.01697,0.0342 -0.02687,0.0501 -0.01,0.016 -0.02064,0.0315 -0.03204,0.046 -0.0114,0.0145 -0.02369,0.0278 -0.03669,0.0408 -0.013,0.013 -0.02684,0.0257 -0.04134,0.0372 -0.0145,0.0116 -0.02999,0.0225 -0.04599,0.0326 -0.016,0.0101 -0.03273,0.0193 -0.05013,0.0279 -0.0174,0.009 -0.03546,0.0162 -0.05426,0.0233 -0.0188,0.007 -0.0383,0.0136 -0.0584,0.0191 -0.0201,0.006 -0.04071,0.0105 -0.06201,0.0145 -0.0213,0.004 -0.04313,0.007 -0.06563,0.009 -0.0225,0.002 -0.04565,0.004 -0.06925,0.005 -0.0236,9.3e-4 -0.04765,0.001 -0.07235,5.2e-4 -0.0247,-6.2e-4 -0.04975,-0.002 -0.07545,-0.004 -0.0514,-0.004 -0.104998,-0.012 -0.160197,-0.0227 -0.0552,-0.0107 -0.112012,-0.0247 -0.170532,-0.0419 -0.0585,-0.0172 -0.118962,-0.0373 -0.18035,-0.061 -0.0614,-0.0237 -0.123746,-0.0509 -0.187586,-0.0811 -0.0638,-0.0302 -0.12898,-0.0638 -0.19482,-0.10077 -0.0658,-0.0369 -0.132588,-0.0772 -0.199988,-0.12092 -0.0356,-0.0231 -0.07,-0.0464 -0.103353,-0.0703 -0.0334,-0.0238 -0.06565,-0.0479 -0.09664,-0.0724 -0.0311,-0.0245 -0.06112,-0.0494 -0.08992,-0.0744 -0.0288,-0.025 -0.0567,-0.05 -0.0832,-0.0754 -0.0265,-0.0254 -0.05166,-0.0512 -0.07596,-0.077 -0.0242,-0.0258 -0.04735,-0.0515 -0.06925,-0.0775 -0.022,-0.026 -0.04231,-0.0522 -0.06201,-0.0785 -0.0197,-0.0262 -0.03841,-0.0524 -0.05581,-0.0786 -0.0175,-0.0263 -0.03389,-0.0528 -0.04909,-0.0791 -0.0152,-0.0263 -0.02989,-0.0523 -0.04289,-0.0786 -0.0129,-0.0261 -0.02402,-0.0521 -0.03462,-0.078 -0.0107,-0.0259 -0.02002,-0.0519 -0.02842,-0.0775 -0.008,-0.0256 -0.01612,-0.0513 -0.02222,-0.0765 -0.006,-0.0252 -0.01109,-0.0502 -0.01499,-0.0749 -0.004,-0.0247 -0.0073,-0.0492 -0.0083,-0.0734 -0.002,-0.0241 -0.0021,-0.0478 -0.0021,-0.0713 6e-4,-0.0235 0.0022,-0.0463 0.0052,-0.0692 0.003,-0.0227 0.007,-0.0448 0.01189,-0.0667 0.005,-0.0219 0.0113,-0.0437 0.0186,-0.0646 0.007,-0.0209 0.01582,-0.0411 0.02532,-0.061 0.01,-0.0198 0.02034,-0.0392 0.03204,-0.0579 0.0118,-0.0187 0.02466,-0.0368 0.03876,-0.0543 0.014,-0.0175 0.02918,-0.0345 0.04548,-0.0506 0.0163,-0.0162 0.03369,-0.0313 0.05219,-0.046 0.0185,-0.0147 0.03769,-0.0285 0.05839,-0.0419 0.0207,-0.0132 0.04273,-0.0256 0.06563,-0.0372 0.0229,-0.0116 0.04715,-0.0226 0.07235,-0.0325 0.0251,-0.01 0.05125,-0.0188 0.07855,-0.0269 0.0274,-0.008 0.05567,-0.0155 0.08527,-0.0217 0.0296,-0.006 0.0607,-0.0113 0.0925,-0.0155 0.0318,-0.004 0.0647,-0.008 0.0987,-0.0103 0.034,-0.002 0.0692,-0.003 0.105419,-0.003 z" /></g></svg>
