<?xml version="1.0" encoding="UTF-8" standalone="no"?>
<!-- Created with Inkscape (http://www.inkscape.org/) -->

<svg
   width="44.170959mm"
   height="20.399374mm"
   viewBox="0 0 44.170959 20.399374"
   version="1.1"
   id="svg5"
   xml:space="preserve"
   inkscape:version="1.2.1 (9c6d41e410, 2022-07-14)"
   sodipodi:docname="logoHorizontal.svg"
   xmlns:inkscape="http://www.inkscape.org/namespaces/inkscape"
   xmlns:sodipodi="http://sodipodi.sourceforge.net/DTD/sodipodi-0.dtd"
   xmlns="http://www.w3.org/2000/svg"
   xmlns:svg="http://www.w3.org/2000/svg"><sodipodi:namedview
     id="namedview7"
     pagecolor="#ffffff"
     bordercolor="#000000"
     borderopacity="0.25"
     inkscape:showpageshadow="2"
     inkscape:pageopacity="0.0"
     inkscape:pagecheckerboard="0"
     inkscape:deskcolor="#d1d1d1"
     inkscape:document-units="mm"
     showgrid="false"
     inkscape:zoom="2.9825758"
     inkscape:cx="90.861062"
     inkscape:cy="35.875032"
     inkscape:window-width="1920"
     inkscape:window-height="1017"
     inkscape:window-x="1912"
     inkscape:window-y="-8"
     inkscape:window-maximized="1"
     inkscape:current-layer="layer1" /><defs
     id="defs2" /><g
     inkscape:label="Layer 1"
     inkscape:groupmode="layer"
     id="layer1"
     transform="translate(-50.536127,-104.18145)"><g
       id="g944"
       transform="translate(-55.325403,8.3427198)"><path
         style="fill:#b9b9b9;fill-opacity:1;stroke-width:0.329634"
         d="m 105.86156,106.59639 c 0,-8.743146 0.0538,-9.695557 0.57686,-10.218651 0.53837,-0.538373 1.96236,-0.573194 21.34379,-0.521919 11.42181,0.03022 20.85565,0.0673 20.96409,0.08241 0.10844,0.01511 0.44619,0.583726 0.75056,1.263595 0.48192,1.076483 0.5416,2.382031 0.4621,10.108895 l -0.0913,8.87278 -22.00306,0.0273 -22.00305,0.0273 z m 8.3651,8.14983 c 0.62485,-0.54863 1.40877,-1.66053 1.74205,-2.4709 0.57834,-1.40628 1.07189,-1.72643 1.35449,-0.87864 0.0718,0.21529 -0.10438,0.39144 -0.39144,0.39144 -1.02787,0 -0.57899,2.40691 0.56284,3.018 0.65885,0.35261 0.65777,0.33747 -0.0388,-0.54806 -1.01026,-1.28433 -0.94459,-2.14031 0.16419,-2.14031 1.17195,0 2.08617,0.87908 2.08617,2.00597 0,0.69151 -0.18109,0.94579 -0.74168,1.04146 -0.40792,0.0696 0.0742,0.14629 1.07131,0.17039 2.17705,0.0526 3.15258,-0.49435 3.47151,-1.94643 0.17739,-0.80764 0.0981,-1.15663 -0.33469,-1.47309 -0.52343,-0.38274 -0.52643,-0.47284 -0.039,-1.16875 0.66141,-0.9443 0.68304,-2.21678 0.0419,-2.46282 -0.42864,-0.16448 -0.42864,-0.29811 0,-1.127 0.61847,-1.19599 0.62114,-2.16939 0.007,-2.40521 -0.34339,-0.13177 -0.51211,-0.86768 -0.59377,-2.58993 l -0.11409,-2.405855 -0.0655,2.554665 c -0.0727,2.83571 -0.5269,3.37496 -0.87689,1.0411 -0.12483,-0.83246 -0.31344,-1.42709 -0.41914,-1.3214 -0.32754,0.32754 -1.07485,-0.50516 -1.11591,-1.24342 -0.0283,-0.50883 -0.0961,-0.43737 -0.24722,0.2604 -0.36433,1.68266 -0.98605,1.39093 -1.12506,-0.5279 l -0.12695,-1.752346 -0.029,1.977806 c -0.0577,3.93518 -0.081,4.15931 -0.41057,3.9556 -0.1813,-0.11205 -0.35636,-1.2704 -0.38902,-2.57411 l -0.0594,-2.370395 -0.18784,2.472255 c -0.21328,2.80717 -0.57125,2.93469 -1.39634,0.49742 -0.7006,-2.0695 -2.18887,-3.464125 -3.69675,-3.464125 -1.14425,0 -2.84114,1.057155 -2.84114,1.770015 0,0.22199 0.5872,0.97701 1.30488,1.67781 0.71769,0.7008 1.2198,1.41185 1.11581,1.58012 -0.104,0.16827 -0.75197,-0.2437 -1.43995,-0.91549 -0.68797,-0.67179 -1.41259,-1.12149 -1.61025,-0.99932 -0.80878,0.49985 -0.29613,1.71137 1.48638,3.51267 1.01518,1.02588 1.70763,1.95062 1.53879,2.05497 -0.16884,0.10435 -1.03095,-0.54529 -1.91579,-1.44364 -0.88484,-0.89835 -1.72563,-1.63336 -1.86842,-1.63336 -0.14279,0 -0.25962,0.50083 -0.25962,1.11297 0,0.91713 0.37393,1.50768 2.12507,3.35621 1.16879,1.23378 2.04093,2.37938 1.93809,2.54579 -0.10284,0.1664 -1.0735,-0.56514 -2.15702,-1.62564 l -1.97003,-1.92818 0.23364,1.48336 c 0.55198,3.50437 2.32963,5.83171 4.51606,5.91251 0.31097,0.0115 1.07664,-0.42798 1.70149,-0.97661 z m -3.67667,-0.40755 c -0.82541,-0.8786 -2.19428,-3.83604 -1.90804,-4.12229 0.10913,-0.10913 0.7582,0.34821 1.44239,1.0163 1.41203,1.3788 2.3699,1.58395 2.3699,0.50756 0,-0.43191 -0.83398,-1.53704 -2.14262,-2.83926 -1.17844,-1.17266 -2.14262,-2.25487 -2.14262,-2.40492 0,-0.74323 0.6755,-0.48771 1.82631,0.69084 0.7008,0.71768 1.54075,1.30488 1.86656,1.30488 1.09185,0 0.61853,-1.1504 -1.22062,-2.9667 -0.99714,-0.98476 -1.81299,-1.90679 -1.81299,-2.04895 0,-0.52527 0.84706,-0.22289 1.60036,0.57129 0.89919,0.94797 2.02562,1.09001 2.02562,0.25543 0,-0.30963 -0.53906,-1.11501 -1.19791,-1.78973 -0.65885,-0.67473 -1.12182,-1.42506 -1.02882,-1.66741 0.27764,-0.72353 1.77826,-1.355337 2.68096,-1.128774 2.85947,0.717684 4.45696,8.026784 2.68268,12.274224 -1.21,2.89663 -3.51633,3.97062 -5.04116,2.34751 z m 9.81546,-0.19203 c 0,-1.14764 0.90612,-2.02889 2.08616,-2.02889 1.15334,0 1.18781,1.04123 0.0714,2.1576 -1.14291,1.14292 -2.1576,1.08239 -2.1576,-0.12871 z m -0.94568,-1.48236 c -0.43549,-0.52473 -0.16635,-0.87616 0.67098,-0.87616 0.66882,0 0.69234,0.0464 0.40425,0.79712 -0.24477,0.63784 -0.59038,0.66325 -1.07523,0.079 z m -2.0413,-1.88533 c -0.8638,-0.86381 -0.72798,-2.08623 0.24723,-2.22503 0.40196,-0.0572 1.02231,0.19822 1.40094,0.57686 0.37375,0.37374 0.67954,1.05037 0.67954,1.50362 0,0.65927 -0.16482,0.82408 -0.82409,0.82408 -0.45324,0 -1.12987,-0.30579 -1.50362,-0.67953 z m 2.98698,-0.14455 c 0,-1.06245 1.15065,-2.21292 2.08048,-2.08015 0.57871,0.0826 0.70696,0.29806 0.6484,1.08913 -0.0825,1.11426 -0.8423,1.8151 -1.9678,1.8151 -0.59207,0 -0.76108,-0.183 -0.76108,-0.82408 z m -0.9659,-1.62045 c -0.30928,-0.37266 -0.25158,-0.50982 0.28632,-0.68054 0.93144,-0.29563 1.48064,0.0848 0.98486,0.68217 -0.48706,0.58686 -0.78309,0.58648 -1.27118,-0.002 z m -1.82829,-1.63822 c -0.87618,-0.87618 -1.1177,-2.15319 -0.41974,-2.21934 1.46894,-0.13924 2.62873,0.79165 2.48785,1.99684 -0.13319,1.13946 -1.05226,1.23835 -2.06811,0.2225 z m 3.01394,0.56666 c -0.42706,-0.42706 -0.21202,-1.66286 0.38306,-2.20141 0.88881,-0.80435 2.36389,-0.72404 2.36389,0.12871 0,1.23063 -2.04555,2.7741 -2.74695,2.0727 z m -1.39165,-2.89324 c -0.46951,-0.71657 -0.4919,-0.99799 -0.14583,-1.83346 0.52566,-1.26905 1.53861,-1.3095 2.01516,-0.0805 0.26511,0.68373 0.24285,1.10251 -0.0906,1.70415 -0.62449,1.12684 -1.13819,1.18742 -1.77877,0.20977 z m 10.30779,9.77065 c 0.4297,-0.27305 0.4131,-2.90771 -0.0228,-3.61296 -0.13856,-0.22419 -0.76235,-0.40762 -1.38619,-0.40762 h -1.13427 v 1.62121 c 0,0.89166 0.09,1.85584 0.20009,2.14262 0.20919,0.54515 1.64217,0.70217 2.34313,0.25675 z m -1.88395,-0.83412 c 0,-1.00119 0.17622,-1.14657 1.16147,-0.95822 0.92557,0.17693 1.12483,1.20881 0.29492,1.52728 -0.99936,0.38349 -1.45639,0.20491 -1.45639,-0.56906 z m 0,-2.22049 c 0,-0.51813 0.17755,-0.65686 0.73831,-0.57686 1.09562,0.15632 1.19191,1.25906 0.10994,1.25906 -0.638,0 -0.84825,-0.1691 -0.84825,-0.6822 z m 4.25422,1.6711 c 0.32146,0 0.76216,0.39 0.97935,0.86668 0.21719,0.47667 0.47552,0.78605 0.57407,0.6875 0.0986,-0.0986 0.005,-0.50448 -0.2077,-0.90207 -0.27978,-0.52279 -0.28718,-0.82259 -0.0267,-1.08306 0.53547,-0.53547 0.43568,-1.77698 -0.16124,-2.00604 -0.28678,-0.11005 -0.95429,-0.20008 -1.48335,-0.20008 -0.9529,0 -0.96195,0.0181 -0.96195,1.92286 0,1.98933 0.415,3.07744 0.59876,1.56992 0.0683,-0.56023 0.30612,-0.85571 0.68876,-0.85571 z m -0.62825,-1.34043 c 0,-0.90753 0.0923,-1.00014 0.90368,-0.9065 1.59428,0.18402 1.30135,1.898 -0.32682,1.91225 -0.42507,0.004 -0.57686,-0.26092 -0.57686,-1.00575 z m 4.8621,2.74847 c -1.05529,-0.11039 -1.23613,-0.24695 -1.23613,-0.93349 0,-0.67671 0.16982,-0.81255 1.07131,-0.85694 l 1.07131,-0.0528 -1.07131,-0.13295 c -0.8708,-0.10807 -1.07131,-0.27955 -1.07131,-0.91625 0,-0.66241 0.19079,-0.80326 1.23613,-0.91261 l 1.23613,-0.1293 -1.40095,-0.0554 -1.40094,-0.0554 v 2.14262 2.14262 l 1.40094,-0.0554 1.40095,-0.0554 z m 3.2527,-1.07841 c 0.43518,0 0.91996,0.29493 1.13006,0.6875 0.20236,0.37813 0.4322,0.62323 0.51075,0.54469 0.2077,-0.20771 -1.27209,-4.19889 -1.55681,-4.19889 -0.13212,0 -0.54755,0.8214 -0.92317,1.82535 -0.71227,1.90371 -0.90084,3.16901 -0.28064,1.88303 0.21806,-0.45214 0.65521,-0.74168 1.11981,-0.74168 z m -0.52817,-0.74168 c 0.006,-0.52135 0.57149,-1.43318 0.76016,-1.22658 0.078,0.0854 0.24438,0.48903 0.36977,0.89695 0.18551,0.6035 0.10101,0.74168 -0.4535,0.74168 -0.37482,0 -0.67921,-0.18542 -0.67643,-0.41205 z m 5.54354,1.48336 c 1.63335,-1.39152 0.72638,-3.70838 -1.45171,-3.70838 h -1.13018 v 2.14262 2.14262 h 0.95239 c 0.5238,0 1.25708,-0.25959 1.6295,-0.57686 z m -2.0325,0.0275 c -0.12086,-0.12087 -0.21975,-0.93671 -0.21975,-1.81299 0,-1.52521 0.0394,-1.59323 0.92297,-1.59323 1.16606,0 1.7141,0.54206 1.7141,1.6954 0,1.22283 -1.70127,2.42687 -2.41732,1.71082 z m -11.91654,-7.69989 c 0.0879,-0.14217 -0.42823,-0.17962 -1.14688,-0.0832 -1.17012,0.15694 -1.34785,0.0848 -1.70115,-0.69063 -0.30628,-0.67219 -0.30628,-1.05956 0,-1.73176 0.3533,-0.77541 0.53103,-0.84757 1.70115,-0.69062 0.74176,0.0995 1.22694,0.0463 1.12229,-0.12302 -0.30787,-0.49814 -2.19712,-0.3336 -2.83896,0.24726 -1.14077,1.03238 -0.55574,2.97897 1.04535,3.47822 0.58664,0.18293 1.59305,-0.0419 1.8182,-0.40622 z m 8.0961,-0.55254 c 0.39729,-1.04493 0.39198,-3.065 -0.008,-3.065 -0.17182,0 -0.35724,0.77876 -0.41204,1.73058 -0.0926,1.60831 -0.16287,1.73787 -0.99463,1.83377 -0.95952,0.11063 -1.10547,-0.16717 -1.35311,-2.57545 -0.0861,-0.83753 -0.1331,-0.68456 -0.1714,0.55817 -0.0429,1.39233 0.0743,1.80087 0.62784,2.18859 0.89566,0.62734 1.93226,0.32657 2.3114,-0.67066 z m 8.35322,0.78641 c 0.88833,-0.64957 0.51834,-1.59607 -0.79693,-2.03865 -1.49342,-0.50254 -1.53761,-1.31968 -0.0711,-1.31445 0.95189,0.003 1.01395,-0.0464 0.51385,-0.41204 -0.71276,-0.52118 -0.83532,-0.5188 -1.58705,0.0309 -0.84373,0.61695 -0.45386,1.40535 0.99414,2.01036 1.53383,0.64088 1.33559,1.34836 -0.36152,1.29025 -1.15493,-0.0396 -1.21208,-0.003 -0.64446,0.41204 0.77715,0.56826 1.19906,0.57293 1.95304,0.0216 z m -13.81746,-1.54397 c 0.95778,0 1.12875,0.12425 1.24725,0.90649 0.0755,0.49857 0.13732,-0.0577 0.13732,-1.23613 0,-1.17844 -0.0618,-1.7347 -0.13732,-1.23612 -0.11911,0.78623 -0.28748,0.90649 -1.26915,0.90649 -0.98752,0 -1.13182,-0.10507 -1.13182,-0.82409 0,-0.45324 -0.11757,-0.82408 -0.26127,-0.82408 -0.1437,0 -0.23142,0.85293 -0.19495,1.89539 0.0777,2.22125 0.1733,2.56871 0.36269,1.31854 0.1185,-0.78224 0.28946,-0.90649 1.24725,-0.90649 z m 7.43689,0.32963 c 0.34845,0 0.81882,0.29667 1.04527,0.65927 0.22644,0.36259 0.54253,0.65927 0.70242,0.65927 0.15989,0 0.1024,-0.2269 -0.12776,-0.50422 -0.32711,-0.39415 -0.3337,-0.69023 -0.0302,-1.35641 0.63464,-1.3929 0.19815,-2.09498 -1.30248,-2.09498 h -1.29632 l 0.0449,2.06021 c 0.0247,1.13312 0.10917,1.72646 0.18774,1.31854 0.0891,-0.46234 0.38147,-0.74168 0.7764,-0.74168 z m -0.26736,-0.57048 c -0.22662,-0.079 -0.41204,-0.5022 -0.41204,-0.94034 0,-0.65883 0.16495,-0.79662 0.95363,-0.79662 0.95312,0 1.48493,0.59684 1.07608,1.20766 -0.29248,0.43696 -1.11286,0.70539 -1.61767,0.5293 z m 3.12275,-1.1601 c -0.0731,-0.58922 -0.13295,-0.10713 -0.13295,1.07131 0,1.17844 0.0598,1.66053 0.13295,1.07131 0.0731,-0.58922 0.0731,-1.5534 0,-2.14262 z m -23.42414,-6.592673 c -0.0915,-0.226623 -0.16626,-0.0412 -0.16626,0.412042 0,0.453247 0.0748,0.638666 0.16626,0.412043 0.0914,-0.226624 0.0914,-0.597462 0,-0.824085 z"
         id="path958" /><path
         style="fill:#a3a3a3;fill-opacity:1;stroke-width:0.329634"
         d="m 105.86156,106.73953 c 0,-5.91727 0.12866,-9.739039 0.34123,-10.136236 0.3319,-0.620159 0.91717,-0.637597 21.39931,-0.637597 h 21.05808 l 0.69151,1.118892 c 0.66423,1.07474 0.68806,1.473649 0.60375,10.108901 l -0.0878,8.99 -22.00306,0.0273 -22.00305,0.0273 z m 8.10441,8.38139 c 0.91337,-0.55696 2.44387,-3.072 2.44387,-4.01595 0,-0.46188 0.74106,-0.2252 0.91336,0.29171 0.0718,0.21529 -0.10438,0.39144 -0.39144,0.39144 -0.8501,0 -0.65942,1.87026 0.28718,2.81687 0.68193,0.68193 1.12468,0.8091 2.81687,0.8091 1.6922,0 2.13494,-0.12717 2.81687,-0.8091 0.92689,-0.92689 1.138,-2.81687 0.31465,-2.81687 -0.61521,0 -0.61234,-0.31086 0.0105,-1.13431 0.62502,-0.82636 0.62186,-2.1298 -0.006,-2.37064 -0.43319,-0.16623 -0.43319,-0.26861 0,-0.88709 0.63256,-0.90311 0.62988,-2.40595 -0.005,-2.64948 -0.36795,-0.14119 -0.51096,-0.8038 -0.55901,-2.58992 l -0.0646,-2.400195 -0.11704,2.307435 c -0.18402,3.6278 -0.74274,3.42943 -0.74274,-0.26371 0,-1.911871 -0.13253,-3.197443 -0.32963,-3.197443 -0.1813,0 -0.33435,0.852927 -0.34012,1.895393 -0.01,1.73178 -0.0519,1.84059 -0.49082,1.26049 -0.33366,-0.44102 -0.45629,-1.32192 -0.40156,-2.884665 0.0433,-1.237371 -0.0265,-2.249598 -0.15511,-2.249393 -0.12865,2.05e-4 -0.27698,1.212198 -0.32964,2.693319 -0.0614,1.727619 -0.2376,2.739899 -0.49148,2.823919 -0.27232,0.0901 -0.43242,-0.51843 -0.51334,-1.95127 -0.0841,-1.488404 -0.13572,-1.113105 -0.18112,1.31596 -0.0731,3.91077 -0.6846,4.39258 -0.78735,0.62036 l -0.0646,-2.370395 -0.11704,2.307435 c -0.0644,1.26909 -0.23533,2.42586 -0.37991,2.57061 -0.14457,0.14474 -0.58658,-0.62467 -0.98224,-1.7098 -1.21507,-3.332427 -3.68934,-4.611422 -5.76399,-2.979503 -1.13847,0.895513 -1.09724,1.273243 0.28518,2.613143 0.63454,0.61503 1.15372,1.34252 1.15372,1.61665 0,0.30363 -0.57463,-0.0655 -1.47029,-0.94456 l -1.47029,-1.44298 -0.35701,0.939 c -0.33734,0.88727 -0.24545,1.05155 1.66835,2.98251 1.11395,1.12394 1.88701,2.12903 1.71791,2.23353 -0.16909,0.10451 -1.0314,-0.545 -1.91624,-1.44335 -0.88484,-0.89835 -1.72563,-1.63336 -1.86842,-1.63336 -0.14279,0 -0.25962,0.56054 -0.25962,1.24565 0,1.09459 0.2579,1.50126 2.12675,3.35349 1.16971,1.15932 2.04185,2.24522 1.93809,2.41311 -0.10377,0.1679 -1.06081,-0.55777 -2.12675,-1.6126 -2.16289,-2.14032 -2.35432,-1.97641 -1.40909,1.20652 0.6167,2.07667 2.5705,4.27245 3.79987,4.27051 0.42925,-6.9e-4 1.23824,-0.28038 1.79774,-0.62157 z m -3.07938,-0.53957 c -0.79183,-0.55995 -1.64118,-1.99801 -2.07644,-3.51565 -0.35125,-1.22475 -0.0159,-1.16756 1.33665,0.22797 1.30707,1.34855 2.30744,1.52271 2.30744,0.40172 0,-0.48188 -0.71041,-1.45499 -1.97781,-2.70916 -1.7935,-1.77479 -2.42138,-2.80189 -1.71283,-2.80189 0.14573,0 0.76817,0.51918 1.3832,1.15372 1.19902,1.23708 2.11399,1.47402 2.43742,0.63119 0.1348,-0.35129 -0.46492,-1.21551 -1.82997,-2.63707 -2.11155,-2.19896 -2.33712,-2.83324 -0.40396,-1.1359 1.14292,1.00349 2.10395,1.03606 2.10395,0.0713 0,-0.29023 -0.55626,-1.10043 -1.23613,-1.80045 l -1.23613,-1.27275 0.95289,-0.82545 c 1.61528,-1.39926 3.25304,-0.60375 4.44067,2.15698 2.56754,5.96839 -0.69742,14.73669 -4.48895,12.05544 z m 6.68467,-0.28331 c -1.109,-1.10901 -1.11279,-2.18029 -0.008,-2.18029 1.06035,0 2.21295,1.15074 2.08048,2.07712 -0.1466,1.02519 -1.10315,1.0728 -2.07278,0.10317 z m 3.01394,0.56666 c -0.50439,-0.50439 -0.1765,-1.77119 0.58812,-2.27219 1.74301,-1.14206 2.84346,0.18911 1.37242,1.66016 -0.8201,0.8201 -1.53065,1.04191 -1.96054,0.61203 z m -1.00534,-2.27104 c -0.29381,-0.76565 -0.27123,-0.80554 0.45595,-0.80554 0.76634,0 0.85478,0.41628 0.20332,0.95695 -0.35292,0.29289 -0.50191,0.25867 -0.65927,-0.15141 z m -1.71973,-1.38745 c -0.59102,-0.39463 -1.18536,-1.74072 -0.99157,-2.24574 0.25302,-0.65934 0.95544,-0.58282 1.96908,0.2145 1.12135,0.88206 1.19951,2.28577 0.12686,2.27847 -0.40792,-0.003 -0.90489,-0.11403 -1.10437,-0.24723 z m 2.51036,-0.4894 c 0.006,-0.93745 0.29233,-1.36323 1.25684,-1.87143 1.59099,-0.8383 2.21505,0.22738 1.02163,1.74457 -0.88206,1.12135 -2.28577,1.1995 -2.27847,0.12686 z m -0.84688,-1.59448 c -0.33969,-0.54964 0.42431,-1.17993 0.87904,-0.7252 0.38037,0.38037 0.14231,1.08355 -0.36684,1.08355 -0.1599,0 -0.39039,-0.16126 -0.5122,-0.35835 z m -1.36164,-1.29329 c -0.77198,-0.30978 -1.4225,-1.27812 -1.4225,-2.11748 0,-0.74656 1.74176,-0.66404 2.44766,0.11597 0.59065,0.65266 0.60627,2.05228 0.0246,2.20432 -0.1813,0.0474 -0.65369,-0.0439 -1.04976,-0.20281 z m 2.42686,0.11698 c -0.88181,-0.88181 0.46465,-2.88595 1.80964,-2.69359 0.60205,0.0861 0.74871,0.28824 0.67597,0.9317 -0.0511,0.45195 -0.2736,0.99181 -0.49445,1.19968 -0.53911,0.50742 -1.71417,0.8392 -1.99116,0.56221 z m -1.13158,-2.50335 c -0.71033,-0.88787 -0.75509,-1.80369 -0.12612,-2.58044 0.53957,-0.66634 0.70488,-0.71405 1.16135,-0.33521 0.62253,0.51665 0.70846,2.36034 0.13667,2.93213 -0.50214,0.50214 -0.75988,0.49852 -1.1719,-0.0165 z m 10.04409,9.37713 c 0.33943,-0.21569 0.38333,-1.56283 0.12297,-3.77336 -0.016,-0.13597 -0.62246,-0.24722 -1.34765,-0.24722 h -1.31854 v 2.14262 2.14262 l 1.07131,-0.005 c 0.58922,-0.003 1.25158,-0.1196 1.47191,-0.25961 z m -1.66419,-0.28473 c -0.12087,-0.12087 -0.21976,-0.49171 -0.21976,-0.82409 0,-0.66824 1.44241,-0.87429 1.82191,-0.26025 0.43862,0.7097 -1.00186,1.68463 -1.60215,1.08434 z m -0.21976,-2.76988 c 0,-0.51813 0.17755,-0.65686 0.73831,-0.57686 1.09562,0.15632 1.19191,1.25906 0.10994,1.25906 -0.638,0 -0.84825,-0.1691 -0.84825,-0.6822 z m 3.62597,2.49518 c 0,-1.07979 0.80975,-1.07431 1.52041,0.0103 0.62162,0.94872 1.01793,0.87227 0.49953,-0.0964 -0.23419,-0.43759 -0.23448,-0.74344 -9.2e-4,-0.97698 0.18698,-0.18699 0.29129,-0.76597 0.23179,-1.28663 -0.098,-0.85773 -0.23977,-0.95617 -1.50913,-1.04801 l -1.40095,-0.10136 v 2.16157 c 0,1.2213 0.14339,2.16158 0.32964,2.16158 0.1813,0 0.32963,-0.37084 0.32963,-0.82409 z m 0,-2.14262 c 0,-0.83834 0.12704,-0.9889 0.83443,-0.9889 0.45894,0 0.92054,0.22439 1.02578,0.49865 0.24816,0.6467 -0.45043,1.47915 -1.2413,1.47915 -0.46792,0 -0.61891,-0.24125 -0.61891,-0.9889 z m 4.94451,2.67609 c -0.86828,-0.1534 -1.17978,-0.38733 -1.25905,-0.94551 -0.0902,-0.63531 0.0516,-0.74727 0.9889,-0.78068 l 1.09423,-0.039 -0.9889,-0.21034 c -0.68124,-0.14491 -1.02081,-0.43387 -1.09147,-0.9288 -0.0875,-0.61275 0.0823,-0.73766 1.15372,-0.84896 1.21599,-0.12632 1.20769,-0.13229 -0.25857,-0.18592 -1.46411,-0.0536 -1.51213,-0.025 -1.43364,0.85108 0.0447,0.49857 0.0959,1.46275 0.11391,2.14262 l 0.0327,1.23613 1.40094,-0.0434 1.40095,-0.0434 z m 3.17029,-1.02792 c 0.43518,0 0.91996,0.29493 1.13006,0.6875 0.67439,1.26012 0.64785,0.44035 -0.0529,-1.6348 -0.38088,-1.12786 -0.85219,-1.99743 -1.04734,-1.93238 -0.19515,0.065 -0.61267,0.85084 -0.92781,1.7462 -0.6384,1.81374 -0.78338,3.03963 -0.22178,1.87516 0.21806,-0.45214 0.65521,-0.74168 1.11981,-0.74168 z m -0.40367,-0.85104 c 0.11005,-0.28678 0.20008,-0.66637 0.20008,-0.84354 0,-0.17717 0.14834,-0.23045 0.32964,-0.11841 0.53723,0.33204 0.38194,1.48336 -0.20009,1.48336 -0.3476,0 -0.46093,-0.17926 -0.32963,-0.52141 z m 5.68559,1.3289 c 1.4676,-1.46759 0.45877,-3.44456 -1.75772,-3.44456 h -1.09072 v 2.14262 2.14262 h 1.00389 c 0.63658,0 1.31147,-0.30759 1.84455,-0.84068 z m -2.3863,0.0513 c -0.097,-0.25289 -0.12946,-1.03165 -0.0721,-1.73058 0.0824,-1.00384 0.25154,-1.29179 0.80496,-1.37074 1.60319,-0.22872 2.39617,2.0974 1.03905,3.04796 -0.90787,0.63589 -1.54109,0.65496 -1.77195,0.0534 z m -12.30728,-7.13339 c 0.35068,-0.18768 0.63759,-0.51402 0.63759,-0.7252 0,-0.28575 -0.10117,-0.28278 -0.39556,0.0116 -0.66444,0.66444 -1.85804,0.45453 -2.43664,-0.42852 -0.50019,-0.76339 -0.50019,-0.88478 0,-1.64817 0.5786,-0.88305 1.7722,-1.09297 2.43664,-0.42853 0.30766,0.30766 0.39556,0.30609 0.39556,-0.007 0,-0.22145 -0.37512,-0.57355 -0.8336,-0.78245 -0.69921,-0.31858 -0.97823,-0.27233 -1.73058,0.28689 -1.27879,0.9505 -1.37303,2.45146 -0.21129,3.36528 1.00792,0.79284 1.24739,0.83273 2.13788,0.35616 z m 3.13073,-1.63657 c 0.9886,0 1.13284,0.10492 1.13284,0.82408 0,0.45325 0.14833,0.82409 0.32963,0.82409 0.18313,0 0.32963,-0.87903 0.32963,-1.97781 0,-1.09878 -0.1465,-1.9778 -0.32963,-1.9778 -0.1813,0 -0.32963,0.37084 -0.32963,0.82408 0,0.72206 -0.14285,0.82409 -1.15372,0.82409 -1.01088,0 -1.15372,-0.10203 -1.15372,-0.82409 0,-0.45324 -0.14834,-0.82408 -0.32963,-0.82408 -0.18209,0 -0.32964,0.86071 -0.32964,1.92286 0,2.07249 0.42827,3.07913 0.59775,1.40498 0.0934,-0.9228 0.21165,-1.0204 1.23612,-1.0204 z m 5.08844,1.31853 c 0.46393,-0.46393 0.65927,-1.09878 0.65927,-2.14262 0,-2.0692 -0.60293,-1.86345 -0.72445,0.24723 -0.0926,1.60831 -0.16287,1.73787 -0.99463,1.83377 -0.95952,0.11063 -1.10547,-0.16717 -1.35311,-2.57545 -0.0864,-0.84067 -0.13296,-0.69054 -0.1714,0.55331 -0.0778,2.51676 1.15629,3.51179 2.58432,2.08376 z m 3.95944,-0.32247 c -0.2851,-0.53272 -0.28545,-0.82155 -0.001,-1.16381 0.63337,-0.76315 0.25,-1.89419 -0.75498,-2.22737 -1.58164,-0.52437 -1.88958,-0.16657 -1.83963,2.13755 0.0247,1.1388 0.10918,1.7368 0.18774,1.32888 0.19433,-1.00893 1.20327,-0.94993 1.89842,0.111 0.65466,0.99915 1.06419,0.84954 0.50986,-0.18625 z m -2.31127,-2.14978 c 0,-0.6959 0.15383,-0.82409 0.9889,-0.82409 0.83507,0 0.9889,0.12819 0.9889,0.82409 0,0.69589 -0.15383,0.82408 -0.9889,0.82408 -0.83507,0 -0.9889,-0.12819 -0.9889,-0.82408 z m 7.18602,2.73596 c 0.73621,-0.73622 0.42875,-1.56102 -0.80388,-2.15651 -1.36261,-0.65828 -1.37989,-1.24025 -0.0367,-1.23553 0.49857,0.002 0.90649,-0.0995 0.90649,-0.22502 0,-0.45333 -1.30921,-0.63044 -1.98535,-0.26858 -1.00053,0.53547 -0.72429,1.6799 0.502,2.07978 1.90195,0.62021 1.80544,1.72943 -0.12431,1.42872 -1.10169,-0.17167 -1.14464,-0.14895 -0.55436,0.2933 0.77769,0.58266 1.56575,0.61418 2.0961,0.0838 z m -3.23041,-1.91188 c 0,-1.09878 -0.14651,-1.9778 -0.32964,-1.9778 -0.18313,0 -0.32963,0.87902 -0.32963,1.9778 0,1.09878 0.1465,1.97781 0.32963,1.97781 0.18313,0 0.32964,-0.87903 0.32964,-1.97781 z"
         id="path956" /><path
         style="fill:#8c8c8c;fill-opacity:1;stroke-width:0.329634"
         d="m 105.86156,106.73953 c 0,-5.91727 0.12866,-9.739039 0.34123,-10.136236 0.33191,-0.620169 0.9174,-0.637597 21.4195,-0.637597 h 21.07826 l 0.67136,1.315966 c 0.63304,1.240864 0.66635,1.817778 0.58356,10.108897 l -0.0878,8.79294 -22.00306,0.0273 -22.00305,0.0273 z m 7.95501,8.65112 c 0.36284,-0.19419 1.09477,-1.03907 1.62649,-1.87752 l 0.96678,-1.52445 v 1.02951 c 0,1.57775 1.2585,2.3959 3.68541,2.3959 1.62909,0 2.08091,-0.13258 2.75743,-0.8091 0.86855,-0.86855 1.11184,-2.6523 0.39706,-2.91115 -0.32963,-0.11938 -0.32963,-0.28879 0,-0.84708 0.56123,-0.95053 0.5193,-2.33451 -0.0777,-2.56359 -0.43319,-0.16623 -0.43319,-0.26861 0,-0.88709 0.63256,-0.90311 0.62988,-2.40595 -0.005,-2.64948 -0.36782,-0.14114 -0.51122,-0.80443 -0.55994,-2.58992 l -0.0655,-2.400195 -0.11376,2.389845 c -0.1672,3.51248 -0.74415,2.93744 -0.74415,-0.74168 0,-1.867921 -0.13301,-3.131517 -0.32963,-3.131517 -0.18349,0 -0.32964,0.885508 -0.32964,1.997257 0,1.24757 -0.12373,1.92079 -0.32963,1.79353 -0.1813,-0.11205 -0.32963,-1.38165 -0.32963,-2.821339 0,-1.525322 -0.13756,-2.617617 -0.32964,-2.617617 -0.19228,0 -0.32963,1.09878 -0.32963,2.637071 0,1.967275 -0.11075,2.637065 -0.43603,2.637065 -0.3156,0 -0.41028,-0.45211 -0.3428,-1.63685 0.0513,-0.900266 -0.0492,-1.724864 -0.22324,-1.832437 -0.19434,-0.120112 -0.31647,1.109386 -0.31647,3.186127 0,3.83862 -0.5538,4.17265 -0.74273,0.44798 l -0.11704,-2.307435 -0.0646,2.389845 c -0.0611,2.26257 -0.50823,3.13706 -0.92693,1.81299 -1.00414,-3.1754 -2.41986,-4.763212 -4.24695,-4.763212 -0.88002,0 -1.4784,0.253651 -2.17676,0.922722 l -0.96312,0.92272 1.32272,1.34775 c 1.81881,1.85323 1.68144,2.63621 -0.14758,0.84116 l -1.47029,-1.44298 -0.35701,0.939 c -0.33767,0.88815 -0.24519,1.05181 1.70799,3.02251 1.13575,1.14594 1.85145,2.08352 1.59044,2.08352 -0.26101,0 -1.25799,-0.77369 -2.2155,-1.71931 l -1.74095,-1.71932 v 1.46382 c 0,1.3654 0.14901,1.61397 2.21619,3.69712 2.58669,2.60666 2.11902,3.06195 -0.51639,0.50272 l -1.78208,-1.73058 0.20445,1.6008 c 0.25329,1.98315 1.70547,4.72172 2.8274,5.33199 1.02177,0.55579 2.14313,0.60427 3.02764,0.1309 z m -3.35096,-1.30668 c -0.84508,-0.90466 -1.87865,-3.15333 -1.58455,-3.44742 0.0652,-0.0652 0.68108,0.38212 1.36869,0.994 1.25359,1.11551 1.98737,1.19883 2.34521,0.2663 0.12409,-0.32338 -0.56447,-1.28284 -1.95231,-2.72039 -2.42384,-2.51066 -2.92396,-3.795 -0.66803,-1.71556 1.67622,1.54509 1.98246,1.63019 2.48527,0.69068 0.31233,-0.58359 0.0949,-0.94434 -1.68882,-2.80189 -2.06481,-2.15027 -2.39078,-3.01506 -0.41447,-1.09954 0.66017,0.63986 1.26157,0.95718 1.58146,0.83443 0.8625,-0.33098 0.58087,-1.53854 -0.64465,-2.76406 -1.26327,-1.26327 -1.16474,-1.82835 0.42413,-2.432443 3.46396,-1.316993 5.89154,6.948843 3.61947,12.324183 -1.22711,2.90316 -3.19984,3.66112 -4.8714,1.87171 z m 7.08297,0.19138 c -0.9898,-0.98979 -0.953,-1.94767 0.0805,-2.09546 0.93171,-0.13323 2.1482,1.08326 2.01497,2.01498 -0.14779,1.03348 -1.10567,1.07028 -2.09546,0.0805 z m 3.03662,0.58935 c -0.762,-0.762 0.50836,-2.74695 1.75805,-2.74695 0.50994,0 0.65927,0.21976 0.65927,0.97021 0,1.28511 -1.67662,2.51743 -2.41732,1.77674 z m -0.98203,-2.30057 c -0.42988,-0.42987 -0.22464,-0.77601 0.46011,-0.77601 0.38361,0 0.62914,0.17278 0.55626,0.39144 -0.16057,0.48171 -0.71098,0.68997 -1.01637,0.38457 z m -3.19333,-1.27046 c 0,-0.27195 0.14834,-0.49445 0.32963,-0.49445 0.1813,0 0.32964,0.2225 0.32964,0.49445 0,0.27195 -0.14834,0.49445 -0.32964,0.49445 -0.18129,0 -0.32963,-0.2225 -0.32963,-0.49445 z m 1.01283,-0.70372 c -0.8298,-1.05492 -0.86652,-1.62765 -0.12265,-1.9131 0.79323,-0.30439 2.22013,0.85613 2.34565,1.90774 0.0883,0.73971 -0.0219,0.87389 -0.71776,0.87389 -0.49546,0 -1.09347,-0.34506 -1.50524,-0.86853 z m 2.94278,0.0684 c 0,-0.90596 1.47761,-2.2528 2.28542,-2.08316 0.65427,0.1374 0.53667,1.47325 -0.2015,2.28891 -0.29586,0.32693 -0.88578,0.59441 -1.31093,0.59441 -0.59861,0 -0.77299,-0.18051 -0.77299,-0.80016 z m -0.76228,-1.39053 c -0.42988,-0.42987 -0.22464,-0.77601 0.46011,-0.77601 0.38361,0 0.62914,0.17278 0.55626,0.39144 -0.16057,0.48171 -0.71098,0.68997 -1.01637,0.38457 z m -2.13756,-1.84916 c -0.18893,-0.22764 -0.44567,-0.82098 -0.57055,-1.31854 -0.20412,-0.81326 -0.14019,-0.90465 0.63276,-0.90465 1.02055,0 2.17836,1.05122 2.17836,1.97781 0,0.50652 -0.21976,0.65926 -0.94854,0.65926 -0.5217,0 -1.10311,-0.18625 -1.29203,-0.41388 z m 2.89984,-0.24538 c 0,-1.31104 2.20294,-2.61729 2.7959,-1.65785 0.10876,0.17597 -0.0346,0.76931 -0.31864,1.31853 -0.39928,0.77212 -0.73874,0.99858 -1.49683,0.99858 -0.76068,0 -0.98043,-0.14777 -0.98043,-0.65926 z m -0.92298,-1.7141 c -0.55601,-0.55601 -0.49281,-2.40971 0.0989,-2.90078 1.10866,-0.9201 2.14502,1.84355 1.08779,2.90078 -0.49572,0.49572 -0.69095,0.49572 -1.18668,0 z m 10.48236,8.96604 c 0.2512,-0.46938 0.25015,-0.85112 -0.004,-1.32535 -0.19606,-0.36634 -0.27497,-0.79796 -0.17534,-0.95915 0.4446,-0.71939 -0.25307,-1.34147 -1.50445,-1.34147 h -1.28327 v 2.14262 2.14262 h 1.30694 c 0.96957,0 1.39801,-0.17018 1.65977,-0.65927 z m -2.30744,-0.65927 c 0,-0.5725 0.16833,-0.68369 0.90649,-0.59875 0.53966,0.0621 0.9065,0.30439 0.9065,0.59875 0,0.29436 -0.36684,0.53666 -0.9065,0.59875 -0.73816,0.0849 -0.90649,-0.0263 -0.90649,-0.59875 z m 0,-2.00073 c 0,-0.51813 0.17755,-0.65686 0.73831,-0.57686 1.09562,0.15632 1.19191,1.25906 0.10994,1.25906 -0.638,0 -0.84825,-0.1691 -0.84825,-0.6822 z m 3.62597,2.49518 c 0,-1.09768 0.75876,-1.05885 1.61023,0.0824 0.66067,0.88551 0.97804,0.70686 0.39123,-0.22023 -0.19096,-0.30169 -0.12241,-0.73219 0.1933,-1.21402 0.77548,-1.18353 0.0965,-2.10931 -1.54709,-2.10931 h -1.30694 v 2.14262 c 0,1.20865 0.14369,2.14262 0.32964,2.14262 0.1813,0 0.32963,-0.37084 0.32963,-0.82409 z m 0.21976,-1.37347 c -0.12087,-0.12087 -0.21976,-0.56587 -0.21976,-0.9889 0,-0.89756 0.99378,-1.06319 1.64817,-0.2747 0.67018,0.80752 -0.68535,2.00666 -1.42841,1.2636 z m 5.71365,1.86792 c 0,-0.1813 -0.51917,-0.32963 -1.15372,-0.32963 -0.93396,0 -1.15372,-0.12558 -1.15372,-0.65927 0,-0.51603 0.23276,-0.66774 1.07131,-0.69827 l 1.07131,-0.039 -0.9889,-0.21146 c -1.47527,-0.31547 -1.36637,-1.45683 0.16482,-1.72735 1.08558,-0.1918 1.06124,-0.2064 -0.41204,-0.24723 l -1.56576,-0.0434 v 2.14262 2.14262 h 1.48335 c 0.81584,0 1.48335,-0.14834 1.48335,-0.32964 z m 1.31853,-0.32963 c 0.19406,-0.3626 0.65817,-0.65927 1.03136,-0.65927 0.40131,0 0.74897,0.26935 0.85094,0.65927 0.17137,0.65535 0.75478,0.93281 0.75478,0.35896 0,-0.7623 -1.45568,-3.99416 -1.75421,-3.89465 -0.45297,0.15099 -1.94646,4.19496 -1.54926,4.19496 0.17246,0 0.47234,-0.29667 0.66639,-0.65927 z m 0.58525,-1.17281 c -0.29213,-0.29212 0.11723,-1.47647 0.44113,-1.27628 0.37025,0.22882 0.38498,1.46019 0.0175,1.46019 -0.15108,0 -0.35745,-0.0828 -0.4586,-0.18391 z m 5.65387,0.96354 c 0.37576,-0.4777 0.68319,-1.14521 0.68319,-1.48335 0,-1.00023 -1.19322,-1.93335 -2.47225,-1.93335 h -1.15372 v 2.14262 2.14262 h 1.1298 c 0.82791,0 1.31233,-0.23207 1.81298,-0.86854 z m -2.39339,-0.0105 c -0.44613,-0.44613 -0.2289,-2.76413 0.27724,-2.95835 1.3385,-0.51363 2.76515,1.76192 1.74452,2.78255 -0.42639,0.42638 -1.6636,0.53396 -2.02176,0.1758 z m -12.39453,-7.04378 c 0.35068,-0.18768 0.63759,-0.50251 0.63759,-0.69963 0,-0.24108 -0.15591,-0.22901 -0.4763,0.0369 -0.66158,0.54906 -1.83521,0.30889 -2.35775,-0.48248 -0.91984,-1.39304 1.07416,-3.18976 2.35775,-2.12447 0.32039,0.2659 0.4763,0.27798 0.4763,0.0369 0,-0.42479 -1.06026,-1.04086 -1.79131,-1.04086 -0.84511,0 -1.83466,1.24454 -1.83466,2.30743 0,1.06289 0.98955,2.30744 1.83466,2.30744 0.28387,0 0.80304,-0.15356 1.15372,-0.34123 z m 3.13073,-1.63657 c 1.04381,0 1.13284,0.0792 1.13284,1.00835 0,0.5883 0.13731,0.92349 0.32963,0.80463 0.1813,-0.11205 0.32963,-1.07623 0.32963,-2.14262 0,-1.06639 -0.14833,-2.03057 -0.32963,-2.14262 -0.19232,-0.11885 -0.32963,0.21634 -0.32963,0.80463 0,0.93265 -0.0866,1.00836 -1.15372,1.00836 -1.0671,0 -1.15372,-0.0757 -1.15372,-1.00836 0,-0.58829 -0.13732,-0.92348 -0.32963,-0.80463 -0.381,0.23547 -0.4516,3.8866 -0.0824,4.26181 0.13597,0.13819 0.2937,-0.20793 0.35052,-0.76915 0.0934,-0.9228 0.21165,-1.0204 1.23612,-1.0204 z m 5.23457,1.24519 c 0.5704,-0.81436 0.69801,-3.39947 0.1835,-3.71745 -0.20474,-0.12653 -0.32963,0.49448 -0.32963,1.63906 0,1.402 -0.12899,1.89229 -0.53925,2.04972 -0.98763,0.37899 -1.59441,-0.37707 -1.79686,-2.23895 l -0.1935,-1.77946 -0.0537,2.04383 c -0.043,1.6359 0.0614,2.11089 0.52313,2.37982 0.92103,0.53645 1.65452,0.41126 2.20634,-0.37657 z m 2.05415,-0.81848 c 0.30978,-0.11888 0.79869,0.17186 1.28111,0.76183 0.82302,1.00652 1.04958,0.87543 0.44368,-0.2567 -0.26047,-0.4867 -0.26047,-0.77269 0,-1.03316 1.04832,-1.04832 0.0155,-2.53575 -1.76078,-2.53575 -0.83427,0 -0.84514,0.0324 -0.80086,2.38984 0.0247,1.31442 0.11036,2.04702 0.19038,1.62801 0.08,-0.419 0.37093,-0.84834 0.64647,-0.95407 z m -0.44141,-1.27296 c -0.10903,-0.28413 -0.046,-0.66888 0.14015,-0.85499 0.54763,-0.54763 1.55349,-0.16561 1.66747,0.63329 0.0859,0.60242 -0.0525,0.73831 -0.75202,0.73831 -0.47436,0 -0.94592,-0.23078 -1.0556,-0.51661 z m 3.84491,0.51661 c 0,-1.06639 -0.14834,-2.03057 -0.32964,-2.14262 -0.20796,-0.12853 -0.32963,0.66233 -0.32963,2.14262 0,1.48029 0.12167,2.27115 0.32963,2.14262 0.1813,-0.11205 0.32964,-1.07623 0.32964,-2.14262 z m 3.23041,1.91188 c 0.73621,-0.73622 0.42875,-1.56102 -0.80388,-2.15651 -1.45757,-0.70416 -1.35651,-1.26439 0.21054,-1.16707 1.07997,0.0671 1.11282,0.0407 0.51385,-0.41204 -0.77605,-0.58665 -1.56443,-0.6198 -2.0961,-0.0881 -0.74691,0.74691 -0.43951,1.59751 0.75816,2.09793 1.60154,0.66917 1.58282,1.618 -0.0268,1.3568 -1.00545,-0.16316 -1.12166,-0.12068 -0.78372,0.28651 0.48125,0.57987 1.68594,0.62449 2.22792,0.0825 z"
         id="path954" /><path
         style="fill:#767676;fill-opacity:1;stroke-width:0.329634"
         d="m 105.87204,106.67879 c 0.008,-7.42634 0.1082,-9.688093 0.44839,-10.136234 0.40897,-0.538756 1.82309,-0.576859 21.40901,-0.576859 h 20.97111 l 0.67136,1.315966 c 0.63304,1.240864 0.66635,1.817778 0.58356,10.108897 l -0.0878,8.79294 -22.00306,0.0273 -22.00305,0.0273 z m 8.3581,8.37594 c 0.48176,-0.37895 1.16271,-1.23188 1.51324,-1.8954 l 0.63732,-1.2064 0.0146,0.96766 c 0.008,0.53221 0.3371,1.31097 0.7313,1.73058 0.61196,0.6514 1.04212,0.76292 2.94278,0.76292 2.01222,0 2.29168,-0.0834 2.90924,-0.86854 0.75579,-0.96083 0.91346,-2.6191 0.27115,-2.85171 -0.32963,-0.11938 -0.32963,-0.28879 0,-0.84708 0.51567,-0.87338 0.53754,-2.58784 0.0351,-2.75531 -0.28278,-0.0943 -0.28278,-0.3015 0,-0.82988 0.52272,-0.97671 0.47126,-2.3102 -0.10153,-2.63074 -0.33348,-0.18663 -0.51337,-1.0155 -0.59377,-2.73586 l -0.11534,-2.468119 -0.0655,2.554659 c -0.0955,3.72561 -0.72477,3.22477 -0.72477,-0.57686 0,-1.867921 -0.13301,-3.131517 -0.32963,-3.131517 -0.1813,0 -0.32964,0.815844 -0.32964,1.812987 0,0.99714 -0.14833,1.81298 -0.32963,1.81298 -0.19229,0 -0.32963,-1.09877 -0.32963,-2.637065 0,-1.538291 -0.13735,-2.637071 -0.32964,-2.637071 -0.19228,0 -0.32963,1.09878 -0.32963,2.637071 0,1.538295 -0.13735,2.637065 -0.32963,2.637065 -0.1813,0 -0.32964,-0.81584 -0.32964,-1.81298 0,-0.997143 -0.14833,-1.812987 -0.32963,-1.812987 -0.19663,0 -0.32964,1.263596 -0.32964,3.131517 0,3.69779 -0.62618,4.33859 -0.72476,0.74168 l -0.0655,-2.389845 -0.11376,2.389845 c -0.0626,1.31441 -0.24409,2.38984 -0.40339,2.38984 -0.15929,0 -0.46746,-0.55625 -0.6848,-1.23612 -0.63492,-1.98605 -1.56248,-3.26981 -2.78001,-3.847563 -1.40015,-0.664414 -2.45259,-0.434091 -3.62946,0.794293 l -0.89234,0.93141 1.35067,1.31078 c 0.74287,0.72094 1.35068,1.50737 1.35068,1.74763 0,0.24026 -0.65998,-0.21088 -1.46663,-1.00255 l -1.46663,-1.43938 -0.40531,0.88957 c -0.38543,0.84592 -0.31033,0.98556 1.53018,2.84549 1.06453,1.07575 1.82907,2.06235 1.69898,2.19244 -0.1301,0.13009 -1.03081,-0.54787 -2.00158,-1.50659 l -1.76505,-1.74312 -0.15077,1.26798 c -0.14149,1.18998 -0.0189,1.40491 1.99252,3.49345 2.5657,2.66407 2.46418,3.44662 -0.11649,0.89801 -1.68256,-1.66166 -1.80483,-1.72582 -1.80483,-0.94701 0,1.71892 1.01758,4.2581 2.16713,5.40765 1.3677,1.36769 2.86429,1.53146 4.22365,0.46219 z m -3.55747,-0.79411 c -0.84479,-0.78292 -1.84441,-2.67396 -1.84441,-3.48917 0,-0.20822 0.60365,0.16678 1.34144,0.83333 1.3991,1.264 1.83848,1.33937 2.42134,0.41535 0.28701,-0.45501 -0.0442,-0.94877 -1.87185,-2.79054 -2.48128,-2.50044 -3.05999,-3.90297 -0.72073,-1.74672 1.54836,1.42723 1.99577,1.52779 2.592,0.58258 0.28515,-0.45206 -0.005,-0.90916 -1.60577,-2.52643 -1.07465,-1.08598 -1.87741,-2.051 -1.78391,-2.1445 0.0935,-0.0935 0.59486,0.27346 1.11413,0.81546 1.10347,1.15177 1.65222,1.23636 2.13756,0.3295 0.29584,-0.55278 0.14254,-0.88219 -0.97452,-2.09406 -1.30514,-1.41591 -1.31563,-1.44709 -0.68002,-2.0223 1.54361,-1.396947 3.84717,-0.0375 4.80061,2.83302 0.56492,1.70079 0.72739,5.34311 0.32178,7.21344 -0.35711,1.64671 -1.35785,3.49723 -2.21648,4.09864 -1.052,0.73685 -2.00898,0.63974 -3.03117,-0.3076 z m 7.46295,0.48216 c -0.86824,-0.34882 -1.58694,-1.90682 -1.1029,-2.39086 0.91651,-0.91651 3.0548,0.93367 2.56232,2.21706 -0.22247,0.57975 -0.39716,0.60055 -1.45942,0.1738 z m 2.45321,0.12555 c -0.76523,-0.76523 0.5011,-2.75058 1.75442,-2.75058 0.76839,0 0.91325,1.19907 0.24722,2.04633 -0.47809,0.60819 -1.67617,1.02972 -2.00164,0.70425 z m -1.03339,-2.39817 c -0.24378,-0.39444 0.37632,-0.78526 0.81538,-0.5139 0.36865,0.22784 0.12664,0.82076 -0.33501,0.82076 -0.1599,0 -0.37606,-0.13809 -0.48037,-0.30686 z m -3.1456,-1.19595 c 0,-0.28264 0.14834,-0.42223 0.32963,-0.31018 0.1813,0.11205 0.32964,0.34331 0.32964,0.51391 0,0.1706 -0.14834,0.31018 -0.32964,0.31018 -0.18129,0 -0.32963,-0.23126 -0.32963,-0.51391 z m 1.3837,-0.39258 c -0.36693,-0.31728 -0.7642,-0.91062 -0.88282,-1.31854 -0.19016,-0.65396 -0.097,-0.74168 0.78784,-0.74168 0.70585,0 1.16319,0.2437 1.54181,0.82154 0.98579,1.50451 -0.0821,2.41874 -1.44683,1.23868 z m 2.57191,-0.19614 c 0,-0.94182 0.95059,-1.86408 1.92135,-1.86408 0.98361,0 0.97223,1.43112 -0.0169,2.12393 -1.09677,0.76821 -1.90445,0.65801 -1.90445,-0.25985 z m -0.77848,-1.69926 c -0.12841,-0.33465 0.0167,-0.49445 0.44884,-0.49445 0.4322,0 0.57726,0.1598 0.44884,0.49445 -0.10436,0.27195 -0.30633,0.49445 -0.44884,0.49445 -0.1425,0 -0.34448,-0.2225 -0.44884,-0.49445 z m -1.75556,-1.4127 c -0.49213,-0.31292 -1.11716,-1.91335 -0.85113,-2.17938 0.7433,-0.7433 2.7259,0.55066 2.7259,1.7791 0,0.68464 -1.0687,0.91282 -1.87477,0.40028 z m 2.53404,-0.40028 c 0,-0.3626 0.29667,-0.95594 0.65926,-1.31854 0.94383,-0.94383 1.97781,-0.86998 1.97781,0.14127 0,1.02411 -0.81243,1.83653 -1.83653,1.83653 -0.58079,0 -0.80054,-0.18097 -0.80054,-0.65926 z m -0.97731,-1.95614 c -0.82276,-1.53734 0.0488,-3.56615 1.14212,-2.65874 0.8158,0.67706 0.42291,3.29634 -0.49445,3.29634 -0.16854,0 -0.45999,-0.28692 -0.64767,-0.6376 z m 10.54033,9.20127 c 0.19606,-0.36635 0.2532,-0.83319 0.12697,-1.03743 -0.12623,-0.20424 -0.24434,-0.8316 -0.26247,-1.39413 -0.031,-0.96151 -0.11689,-1.02886 -1.4339,-1.12415 l -1.40095,-0.10136 v 2.16157 2.16158 h 1.30694 c 0.97403,0 1.39774,-0.16967 1.66341,-0.66608 z m -2.31108,-0.65246 c 0,-0.5725 0.16833,-0.68369 0.90649,-0.59875 0.53966,0.0621 0.9065,0.30439 0.9065,0.59875 0,0.29436 -0.36684,0.53666 -0.9065,0.59875 -0.73816,0.0849 -0.90649,-0.0263 -0.90649,-0.59875 z m 0.0576,-1.86862 c 0.13973,-0.72559 1.42575,-0.82407 1.42575,-0.10918 0,0.27195 -0.34695,0.54358 -0.771,0.60363 -0.5979,0.0847 -0.7449,-0.0264 -0.65475,-0.49445 z m 3.56837,2.36307 c 0,-0.48235 0.18932,-0.82408 0.45654,-0.82408 0.2511,0 0.69952,0.37084 0.9965,0.82408 0.66969,1.02207 1.36853,1.12548 0.83208,0.12312 -0.27615,-0.51599 -0.27881,-0.91239 -0.0101,-1.50219 0.58261,-1.27868 -0.0453,-2.08208 -1.62737,-2.08208 h -1.30694 v 2.14262 c 0,1.20865 0.14369,2.14262 0.32964,2.14262 0.1813,0 0.32963,-0.37084 0.32963,-0.82409 z m 0,-2.15296 c 0,-0.87725 0.90397,-1.20476 1.54792,-0.56082 0.64686,0.64687 0.29434,1.23043 -0.74329,1.23043 -0.58902,0 -0.80463,-0.17943 -0.80463,-0.66961 z m 5.93341,2.64741 c 0,-0.1813 -0.53005,-0.32963 -1.17789,-0.32963 -0.94367,0 -1.15616,-0.11471 -1.06861,-0.57686 0.0721,-0.38079 0.47461,-0.61213 1.18415,-0.68062 1.32054,-0.12748 1.07379,-0.72032 -0.29981,-0.72032 -1.45766,0 -1.15612,-1.08581 0.377,-1.35755 1.0793,-0.19131 1.05374,-0.2065 -0.41578,-0.24723 l -1.56576,-0.0434 v 2.14262 2.14262 h 1.48335 c 0.81584,0 1.48335,-0.14834 1.48335,-0.32964 z m 1.18955,-0.13933 c 0.3694,-0.96263 2.10679,-0.95456 2.10679,0.01 0,0.25255 0.14833,0.45919 0.32963,0.45919 0.47412,0 0.41515,-0.40599 -0.35983,-2.4773 -0.38427,-1.02705 -0.85849,-1.78741 -1.07131,-1.71774 -0.49392,0.16171 -1.95084,4.19504 -1.51533,4.19504 0.18155,0 0.41107,-0.21104 0.51005,-0.46897 z m 0.70109,-1.37625 c -0.26408,-0.26407 0.0815,-1.12149 0.45206,-1.12149 0.1619,0 0.29437,0.29667 0.29437,0.65927 0,0.64252 -0.34963,0.85902 -0.74643,0.46222 z m 5.69094,1.18595 c 0.79029,-0.7903 0.84604,-1.89409 0.14612,-2.89336 -0.38275,-0.54645 -0.84344,-0.73261 -1.81298,-0.73261 h -1.29985 v 2.14262 2.14262 h 1.15372 c 0.71421,0 1.40487,-0.25115 1.81299,-0.65927 z m -2.24406,-1.54203 c 0.0881,-1.37979 0.18841,-1.5752 0.7607,-1.48116 1.16448,0.19135 1.65273,0.92501 1.29552,1.9467 -0.22855,0.65368 -0.57894,0.94171 -1.23821,1.01781 -0.9054,0.10452 -0.9179,0.0818 -0.81801,-1.48335 z m -12.32576,-5.77584 c 0.67372,-0.67372 0.43871,-0.88199 -0.56691,-0.50242 -1.21162,0.45734 -2.00423,-0.10006 -2.00423,-1.40946 0,-1.30939 0.79261,-1.86679 2.00423,-1.40946 1.00562,0.37958 1.24063,0.1713 0.56691,-0.50241 -1.10913,-1.10913 -3.23041,0.0504 -3.23041,1.76575 0,1.89315 2.07399,3.21443 3.23041,2.058 z m 1.7141,-0.59334 c 0,-0.91042 0.0916,-0.9889 1.15372,-0.9889 1.0671,0 1.15372,0.0757 1.15372,1.00835 0,0.5883 0.13731,0.92349 0.32963,0.80463 0.1813,-0.11205 0.32963,-1.07623 0.32963,-2.14262 0,-1.06639 -0.14833,-2.03057 -0.32963,-2.14262 -0.19232,-0.11885 -0.32963,0.21634 -0.32963,0.80463 0,0.93265 -0.0866,1.00836 -1.15372,1.00836 -1.06216,0 -1.15372,-0.0785 -1.15372,-0.9889 0,-0.5439 -0.14834,-0.9889 -0.32963,-0.9889 -0.18837,0 -0.32964,0.9889 -0.32964,2.30743 0,1.31854 0.14127,2.30744 0.32964,2.30744 0.18129,0 0.32963,-0.44501 0.32963,-0.9889 z m 6.31949,0.44336 c 0.44077,-0.39889 0.60282,-1.01917 0.60282,-2.30744 0,-0.96904 -0.14834,-1.76189 -0.32964,-1.76189 -0.18129,0 -0.32963,0.65537 -0.32963,1.45639 0,1.8694 -0.25319,2.49921 -1.00471,2.49921 -0.81052,0 -1.08717,-0.51315 -1.33285,-2.47225 l -0.20669,-1.64817 -0.0464,1.99428 c -0.0273,1.17199 0.11669,2.15739 0.34915,2.38985 0.55822,0.55822 1.58981,0.49089 2.29796,-0.14998 z m 1.92135,-0.46282 c 0,-0.90953 0.81344,-0.79188 1.47178,0.21287 0.65964,1.00674 1.06227,0.84593 0.5022,-0.20057 -0.27979,-0.52279 -0.28718,-0.82259 -0.0267,-1.08306 0.47782,-0.47783 0.4585,-1.64629 -0.0354,-2.14019 -0.21756,-0.21756 -0.88507,-0.39556 -1.48335,-0.39556 h -1.08779 v 2.32689 c 0,1.46732 0.12177,2.25163 0.32963,2.12316 0.1813,-0.11205 0.32963,-0.49164 0.32963,-0.84354 z m 0,-2.12316 c 0,-0.71361 0.13328,-0.85101 0.74168,-0.7646 0.48681,0.0691 0.74168,0.33188 0.74168,0.7646 0,0.43272 -0.25487,0.69546 -0.74168,0.7646 -0.6084,0.0864 -0.74168,-0.051 -0.74168,-0.7646 z m 3.62598,1.00835 c 0,-1.16774 -0.14834,-2.21484 -0.32964,-2.32689 -0.20786,-0.12846 -0.32963,0.65585 -0.32963,2.12317 0,1.3315 0.14101,2.32689 0.32963,2.32689 0.18564,0 0.32964,-0.92748 0.32964,-2.12317 z m 3.10456,1.92308 c 0.28677,-0.11004 0.52141,-0.56262 0.52141,-1.00572 0,-0.60915 -0.28138,-0.9232 -1.15372,-1.28769 -0.63606,-0.26576 -1.15372,-0.71838 -1.15372,-1.00876 0,-0.42859 0.22659,-0.48421 1.21621,-0.29856 1.08384,0.20333 1.16913,0.17145 0.78372,-0.29294 -0.95684,-1.15292 -3.3447,-0.15382 -2.6655,1.11527 0.17711,0.33094 0.77016,0.75793 1.31788,0.94887 1.18472,0.41299 1.35078,1.37035 0.2377,1.37035 -0.41699,0 -0.93616,-0.178 -1.15372,-0.39556 -0.30765,-0.30766 -0.39556,-0.27714 -0.39556,0.13735 0,0.78427 1.28704,1.16186 2.4453,0.71739 z"
         id="path952" /><path
         style="fill:#606060;fill-opacity:1;stroke-width:0.329634"
         d="m 106.60324,116.13284 -0.74168,-0.10534 v -9.1913 c 0,-6.273 0.12146,-9.457892 0.38254,-10.030909 l 0.38255,-0.839594 h 21.03695 21.03695 l 0.67136,1.315966 c 0.63304,1.240864 0.66635,1.817778 0.58356,10.108897 l -0.0878,8.79294 -21.26138,0.0273 c -11.69376,0.015 -21.59513,-0.0201 -22.00305,-0.078 z m 7.78589,-1.22768 c 0.54811,-0.46121 1.08867,-1.12872 1.20122,-1.48335 0.25079,-0.79016 0.81949,-0.85205 0.81949,-0.0892 0,0.30559 0.32253,0.89893 0.71673,1.31854 0.60686,0.64597 1.04573,0.76292 2.86305,0.76292 1.75,0 2.2872,-0.13234 2.90924,-0.71673 0.79471,-0.74659 1.06696,-2.68243 0.4324,-3.07461 -0.22095,-0.13655 -0.22095,-0.40903 0,-0.82187 0.44803,-0.83716 0.41864,-2.55442 -0.0464,-2.70943 -0.28278,-0.0943 -0.28278,-0.3015 0,-0.82988 0.52015,-0.97191 0.47184,-2.23624 -0.10369,-2.71389 -0.31571,-0.26202 -0.51942,-1.20887 -0.59377,-2.75984 l -0.11318,-2.360989 -0.0655,2.554659 c -0.0955,3.72561 -0.72477,3.22477 -0.72477,-0.57686 0,-1.867921 -0.13301,-3.131517 -0.32963,-3.131517 -0.1813,0 -0.32964,0.824598 -0.32964,1.832437 0,1.13769 -0.12497,1.7552 -0.32963,1.62872 -0.1813,-0.11205 -0.32963,-1.30749 -0.32963,-2.656526 0,-1.415444 -0.13941,-2.4528 -0.32964,-2.4528 -0.19022,0 -0.32963,1.037356 -0.32963,2.4528 0,1.349036 -0.14834,2.544476 -0.32963,2.656526 -0.20466,0.12648 -0.32964,-0.49103 -0.32964,-1.62872 0,-1.007839 -0.14833,-1.832437 -0.32963,-1.832437 -0.19663,0 -0.32964,1.263596 -0.32964,3.131517 0,3.80165 -0.62888,4.30161 -0.7256,0.57686 l -0.0663,-2.554659 -0.11234,2.554659 c -0.0618,1.40507 -0.22514,2.55466 -0.363,2.55466 -0.13786,0 -0.51751,-0.74209 -0.84366,-1.6491 -0.70333,-1.95589 -2.04665,-3.497706 -3.32749,-3.819177 -1.07456,-0.269695 -2.75242,0.499475 -3.41945,1.567547 -0.38694,0.6196 -0.29091,0.82674 0.98691,2.12875 0.77856,0.79329 1.26544,1.44235 1.08196,1.44235 -0.18348,0 -0.83681,-0.51917 -1.45183,-1.15372 -0.61503,-0.63454 -1.22138,-1.15372 -1.34746,-1.15372 -0.12608,0 -0.32831,0.39471 -0.44939,0.87714 -0.18982,0.75633 0.041,1.14102 1.676,2.79326 1.04287,1.05388 1.82151,1.99077 1.7303,2.08198 -0.0912,0.0912 -0.893,-0.57242 -1.78175,-1.47473 -0.88875,-0.90232 -1.71622,-1.64058 -1.83884,-1.64058 -0.12261,0 -0.32452,0.54154 -0.44869,1.20341 -0.21621,1.15251 -0.13138,1.29852 2.00541,3.45181 1.22714,1.23662 2.15646,2.3231 2.06515,2.41441 -0.0913,0.0913 -0.96809,-0.64617 -1.94842,-1.63882 -0.98032,-0.99266 -1.89502,-1.80483 -2.03265,-1.80483 -0.13764,0 -0.16619,0.48209 -0.0635,1.07131 0.69142,3.96559 2.45332,6.51026 4.50764,6.51026 0.77452,0 1.50985,-0.28435 2.16849,-0.83856 z m -3.35669,-0.49044 c -0.91312,-0.71826 -1.58587,-1.79863 -2.04581,-3.28537 -0.23334,-0.75425 -0.13779,-0.71789 1.13486,0.43187 1.44598,1.30635 1.88369,1.38769 2.46955,0.45891 0.28701,-0.45501 -0.0442,-0.94877 -1.87185,-2.79054 -1.22131,-1.23074 -2.22056,-2.45029 -2.22056,-2.71011 0,-0.2656 0.63867,0.15441 1.45891,0.95941 1.48253,1.455 2.29071,1.60359 2.71455,0.4991 0.1377,-0.35885 -0.39426,-1.13219 -1.65565,-2.40688 -2.00563,-2.02677 -2.61595,-3.2169 -0.69479,-1.35484 0.92576,0.89728 1.27567,1.05736 1.71096,0.78279 0.93759,-0.59142 0.83903,-1.04167 -0.56034,-2.5598 l -1.35555,-1.4706 0.74765,-0.52368 c 2.53397,-1.774859 4.89336,1.02092 5.14905,6.10139 0.29599,5.88125 -2.29794,9.97883 -4.98098,7.86835 z m 6.55466,-0.17789 c -0.67873,-0.67874 -0.68455,-2.11908 -0.009,-2.11908 0.65943,0 2.12764,1.46822 2.12764,2.12764 0,0.67599 -1.44034,0.67017 -2.11908,-0.009 z m 2.77835,-0.11735 c 0,-0.68055 1.44351,-2.00173 2.18707,-2.00173 0.6191,0 0.57163,1.47945 -0.068,2.11908 -0.75514,0.75514 -2.11907,0.67961 -2.11907,-0.11735 z m -0.80274,-1.63755 c -0.10031,-0.16231 0.0345,-0.37833 0.29962,-0.48006 0.51511,-0.19766 0.95503,0.21336 0.60403,0.56436 -0.29799,0.29799 -0.68998,0.26142 -0.90365,-0.0843 z m -3.15287,-1.02345 c 0,-0.18129 0.14834,-0.32963 0.32963,-0.32963 0.1813,0 0.32964,0.14834 0.32964,0.32963 0,0.1813 -0.14834,0.32964 -0.32964,0.32964 -0.18129,0 -0.32963,-0.14834 -0.32963,-0.32964 z m 1.39188,-0.51314 c -0.41715,-0.29218 -0.73261,-0.85994 -0.73261,-1.31853 0,-1.12662 1.42946,-1.11599 2.17126,0.0161 0.97525,1.48842 0.0381,2.33677 -1.43865,1.30239 z m 2.68195,0.0161 c -0.30199,-0.787 0.77434,-2.14008 1.70236,-2.14008 0.64611,0 0.81649,0.16807 0.81649,0.8054 0,1.32429 -2.09654,2.4352 -2.51885,1.33468 z m -0.94231,-2.14008 c -0.11205,-0.18129 0.11046,-0.32963 0.49445,-0.32963 0.384,0 0.6065,0.14834 0.49445,0.32963 -0.11205,0.1813 -0.33455,0.32964 -0.49445,0.32964 -0.1599,0 -0.3824,-0.14834 -0.49445,-0.32964 z m -1.92671,-1.59171 c -0.77264,-0.85376 -0.7141,-2.03426 0.10089,-2.03426 0.79283,0 1.99064,1.22748 1.99064,2.03996 0,0.79896 -1.3667,0.79523 -2.09153,-0.006 z m 2.7508,0.006 c 0,-0.81248 1.1978,-2.03996 1.99064,-2.03996 0.84637,0 0.87431,1.33976 0.0436,2.09153 -0.82411,0.74582 -2.03425,0.71514 -2.03425,-0.0516 z m -0.92298,-2.10588 c -1.02505,-1.02505 0.008,-3.46717 1.08779,-2.57115 0.59273,0.49192 0.65145,2.01859 0.0989,2.57115 -0.49572,0.49572 -0.69095,0.49572 -1.18668,0 z m 10.58365,9.25806 c 0.18543,-0.29604 0.21709,-0.80781 0.0714,-1.15371 -0.14405,-0.34192 -0.27891,-0.98818 -0.29969,-1.43615 -0.0262,-0.56416 -0.30452,-0.9088 -0.9057,-1.12138 -1.57447,-0.55673 -1.93397,-0.134 -1.93397,2.2741 v 2.17192 l 1.36737,-0.10136 c 0.81219,-0.0602 1.50269,-0.31739 1.70063,-0.63342 z m -2.40873,-0.62166 c 0,-0.5725 0.16833,-0.68369 0.90649,-0.59875 0.53966,0.0621 0.9065,0.30439 0.9065,0.59875 0,0.29436 -0.36684,0.53666 -0.9065,0.59875 -0.73816,0.0849 -0.90649,-0.0263 -0.90649,-0.59875 z m 0,-1.79006 c 0,-0.33656 0.2976,-0.51738 0.85155,-0.51738 1.03265,0 0.91963,0.77414 -0.13569,0.92942 -0.4754,0.07 -0.71586,-0.0684 -0.71586,-0.41204 z m 3.68545,2.39274 c 0.15355,-1.04351 0.85987,-1.11598 1.30724,-0.13412 0.213,0.46749 0.59118,0.84998 0.84041,0.84998 0.35755,0 0.37533,-0.14539 0.0843,-0.68918 -0.27716,-0.51788 -0.26521,-0.93934 0.0481,-1.6957 0.38072,-0.91914 0.34957,-1.06105 -0.35882,-1.63467 -0.43253,-0.35025 -1.15166,-0.58444 -1.62544,-0.52933 -0.80822,0.094 -0.85446,0.20745 -0.94717,2.32385 -0.0567,1.2939 0.0372,2.22503 0.2243,2.22503 0.17697,0 0.36917,-0.32214 0.4271,-0.71586 z m -0.0595,-2.25085 c 0,-0.4709 0.21976,-0.65927 0.76915,-0.65927 0.42303,0 0.85781,0.0887 0.96619,0.19705 0.41044,0.41044 -0.18967,1.12149 -0.94652,1.12149 -0.56906,0 -0.78882,-0.18367 -0.78882,-0.65927 z m 5.93341,2.63707 c 0,-0.1813 -0.53005,-0.32963 -1.17789,-0.32963 -0.94367,0 -1.15616,-0.11471 -1.06861,-0.57686 0.0721,-0.38079 0.47461,-0.61213 1.18415,-0.68062 1.30749,-0.12622 1.08015,-0.72032 -0.27564,-0.72032 -0.64197,0 -0.96945,-0.16703 -0.96945,-0.49446 0,-0.34533 0.34795,-0.49445 1.15372,-0.49445 0.8247,0 1.15372,-0.14641 1.15372,-0.5134 0,-0.40015 -0.30904,-0.49104 -1.40094,-0.41204 l -1.40095,0.10136 -0.0975,2.22503 -0.0975,2.22503 h 1.49842 c 0.82412,0 1.49841,-0.14834 1.49841,-0.32964 z m 1.19933,-0.16481 c 0.10816,-0.28185 0.59978,-0.49446 1.14337,-0.49446 0.62792,0 0.95364,0.16888 0.95364,0.49446 0,0.27194 0.14833,0.49445 0.32963,0.49445 0.44686,0 0.38252,-0.52839 -0.30103,-2.47226 -0.78151,-2.22241 -1.36783,-2.24744 -2.13317,-0.0911 -0.33952,0.95659 -0.68826,1.92467 -0.77499,2.15129 -0.0867,0.22663 0.0112,0.41205 0.21757,0.41205 0.20638,0 0.46062,-0.22251 0.56498,-0.49445 z m 0.77847,-1.99726 c 0,-0.28265 0.14834,-0.42223 0.32964,-0.31018 0.18129,0.11205 0.32963,0.3433 0.32963,0.5139 0,0.1706 -0.14834,0.31018 -0.32963,0.31018 -0.1813,0 -0.32964,-0.23125 -0.32964,-0.5139 z m 5.60378,1.83244 c 1.40576,-1.40576 0.1405,-3.95561 -1.96282,-3.95561 h -1.00389 v 2.30744 2.30744 h 1.15372 c 0.71421,0 1.40487,-0.25115 1.81299,-0.65927 z m -2.30744,-1.48335 c 0,-1.35684 0.0693,-1.48336 0.81249,-1.48336 0.75243,0 1.49495,0.79616 1.49495,1.60296 0,0.54966 -0.99793,1.36375 -1.67172,1.36375 -0.53369,0 -0.63572,-0.23807 -0.63572,-1.48335 z m -12.16555,-5.78513 c 0.97401,-0.52128 0.43621,-0.96699 -0.66517,-0.55127 -1.2101,0.45676 -2.0028,-0.10131 -2.0028,-1.41 0,-1.33872 0.78865,-1.86829 2.0649,-1.38656 1.22074,0.46078 1.65217,0.20201 0.75587,-0.45337 -1.56429,-1.14384 -3.48004,-0.13096 -3.48004,1.83993 0,1.89846 1.63919,2.86469 3.32724,1.96127 z m 1.61727,-0.64273 c 0,-0.91042 0.0916,-0.9889 1.15372,-0.9889 1.06215,0 1.15372,0.0785 1.15372,0.9889 0,0.54389 0.14833,0.9889 0.32963,0.9889 0.18836,0 0.32963,-0.9889 0.32963,-2.30744 0,-1.31853 -0.14127,-2.30743 -0.32963,-2.30743 -0.1813,0 -0.32963,0.445 -0.32963,0.9889 0,0.91041 -0.0916,0.9889 -1.15372,0.9889 -1.06216,0 -1.15372,-0.0785 -1.15372,-0.9889 0,-0.5439 -0.14834,-0.9889 -0.32963,-0.9889 -0.18837,0 -0.32964,0.9889 -0.32964,2.30743 0,1.31854 0.14127,2.30744 0.32964,2.30744 0.18129,0 0.32963,-0.44501 0.32963,-0.9889 z m 6.40431,0.4709 c 0.58341,-0.5834 0.74495,-4.09687 0.18836,-4.09687 -0.18129,0 -0.32963,0.72351 -0.32963,1.6078 0,2.93419 -1.86821,3.28439 -2.04239,0.38286 -0.12387,-2.06349 -0.72254,-2.33983 -0.86217,-0.39798 -0.17824,2.47856 1.60519,3.94484 3.04583,2.50419 z m 1.83653,-0.49036 c 0,-0.91576 0.93421,-0.79088 1.37852,0.18427 0.20651,0.45325 0.5,0.82409 0.6522,0.82409 0.41079,0 0.33501,-0.79876 -0.11884,-1.25261 -0.30766,-0.30766 -0.30766,-0.48346 0,-0.79112 0.50846,-0.50846 0.50846,-1.66712 0,-2.17558 -0.21756,-0.21756 -0.87567,-0.39556 -1.46247,-0.39556 -0.96274,0 -1.07699,0.10459 -1.1702,1.07131 -0.15561,1.6139 0.0916,3.56389 0.42561,3.35745 0.16235,-0.10034 0.29518,-0.47035 0.29518,-0.82225 z m 0,-2.12316 c 0,-0.71361 0.13328,-0.85101 0.74168,-0.7646 0.48681,0.0691 0.74168,0.33188 0.74168,0.7646 0,0.43272 -0.25487,0.69546 -0.74168,0.7646 -0.6084,0.0864 -0.74168,-0.051 -0.74168,-0.7646 z m 3.62598,0.82408 c 0,-1.31853 -0.14128,-2.30743 -0.32964,-2.30743 -0.18836,0 -0.32963,0.9889 -0.32963,2.30743 0,1.31854 0.14127,2.30744 0.32963,2.30744 0.18836,0 0.32964,-0.9889 0.32964,-2.30744 z m 3.64064,1.62075 c 0.44135,-0.82467 -0.24806,-1.77202 -1.52229,-2.09183 -0.4399,-0.11041 -0.79982,-0.35091 -0.79982,-0.53444 0,-0.52221 0.95,-0.75565 1.43547,-0.35275 0.57194,0.47467 0.97445,0.066 0.49911,-0.50679 -0.5713,-0.68837 -2.18368,-0.54951 -2.59749,0.22371 -0.45559,0.85127 -0.18626,1.26601 1.1976,1.84423 0.61241,0.25588 1.11348,0.61624 1.11348,0.80079 0,0.53877 -0.88112,0.72538 -1.60241,0.33936 -0.83958,-0.44933 -1.28337,0.1279 -0.46473,0.60449 1.00037,0.58239 2.33998,0.42269 2.74108,-0.32677 z"
         id="path950" /><path
         style="fill:#494949;fill-opacity:1;stroke-width:0.329634"
         d="m 105.86156,106.75214 c 0,-7.902928 0.0781,-9.432689 0.51314,-10.05383 l 0.51314,-0.732613 h 20.85236 20.85235 l 0.71997,1.281008 c 0.69008,1.227824 0.71997,1.645226 0.71997,10.053825 v 8.77283 h -22.08547 -22.08546 z m 8.79498,7.92027 c 0.5572,-0.58922 1.09046,-1.29381 1.18502,-1.56576 0.11431,-0.32875 0.30852,-0.12354 0.57953,0.61232 0.27396,0.74388 0.74423,1.23606 1.4343,1.5011 0.9052,0.34767 1.59604,0.3888 3.911,0.23287 0.98165,-0.0661 1.89539,-1.26731 1.89539,-2.49165 0,-0.62385 -0.14873,-1.22619 -0.33052,-1.33854 -0.22095,-0.13655 -0.22095,-0.40903 0,-0.82187 0.46275,-0.86465 0.4124,-2.55377 -0.0815,-2.73488 -0.32963,-0.12086 -0.32963,-0.23843 0,-0.58784 0.53571,-0.56786 0.53617,-2.84567 6.3e-4,-3.02419 -0.28757,-0.0959 -0.3808,-0.78921 -0.30969,-2.30312 0.0602,-1.2814 -0.041,-2.254221 -0.24784,-2.382038 -0.23364,-0.144393 -0.34959,0.549268 -0.34959,2.091388 0,1.26909 -0.14834,2.39911 -0.32963,2.51116 -0.21098,0.13039 -0.32964,-0.93054 -0.32964,-2.94725 0,-1.880896 -0.13287,-3.150977 -0.32963,-3.150977 -0.1813,0 -0.32964,0.824598 -0.32964,1.832437 0,1.13769 -0.12497,1.7552 -0.32963,1.62872 -0.1813,-0.11205 -0.32963,-1.38165 -0.32963,-2.821343 0,-1.525322 -0.13756,-2.617616 -0.32964,-2.617616 -0.19208,0 -0.32963,1.092294 -0.32963,2.617616 0,1.439693 -0.14834,2.709293 -0.32963,2.821343 -0.20466,0.12648 -0.32964,-0.49103 -0.32964,-1.62872 0,-1.007839 -0.14833,-1.832437 -0.32963,-1.832437 -0.19677,0 -0.32964,1.270081 -0.32964,3.150977 0,2.01671 -0.11866,3.07764 -0.32963,2.94725 -0.1813,-0.11205 -0.32963,-1.24207 -0.32963,-2.51116 0,-1.26909 -0.11696,-2.235156 -0.25991,-2.146808 -0.14295,0.08835 -0.22942,0.727528 -0.19217,1.420398 0.0373,0.69287 -0.0126,1.75227 -0.11075,2.35422 l -0.1785,1.09445 -0.77391,-1.91853 c -0.8784,-2.17758 -2.3841,-3.731529 -3.61566,-3.731529 -1.12301,0 -2.67621,0.837712 -3.1319,1.689189 -0.3239,0.6052 -0.19054,0.87746 1.04776,2.13921 0.78039,0.79516 1.29901,1.44574 1.15248,1.44574 -0.14653,0 -0.78559,-0.51917 -1.42013,-1.15372 -0.63455,-0.63454 -1.27543,-1.15372 -1.4242,-1.15372 -0.14876,0 -0.37454,0.4738 -0.50173,1.05288 -0.20125,0.91629 -0.0871,1.18769 0.8803,2.09215 0.61136,0.57161 1.47924,1.46992 1.92863,1.99624 0.44939,0.52633 -0.029,0.14981 -1.06316,-0.83671 -1.03412,-0.98652 -1.9644,-1.70949 -2.06729,-1.6066 -0.10289,0.10288 -0.2687,0.69011 -0.36848,1.30494 -0.16678,1.02779 -0.006,1.2974 1.9919,3.34533 2.71168,2.77924 2.87919,3.38348 0.20413,0.73633 -1.08305,-1.07175 -2.05031,-1.86751 -2.14946,-1.76836 -0.28511,0.28511 0.51236,3.61597 1.18335,4.9426 1.39574,2.75955 3.9808,3.43493 5.79686,1.51451 z m -3.64779,-0.27633 c -0.89889,-0.70706 -1.58245,-1.81767 -2.01092,-3.26723 -0.21958,-0.74284 -0.11225,-0.69786 1.0887,0.45623 1.36033,1.30726 2.17561,1.41682 2.58595,0.3475 0.13988,-0.36454 -0.4793,-1.21762 -1.98528,-2.73523 -1.20371,-1.21301 -2.18857,-2.41805 -2.18857,-2.67787 0,-0.2656 0.63867,0.15441 1.45891,0.95941 1.48253,1.455 2.29071,1.60359 2.71455,0.4991 0.1381,-0.35989 -0.41364,-1.15177 -1.72774,-2.47973 -1.06185,-1.07304 -1.80395,-1.95099 -1.64912,-1.95099 0.15484,0 0.63483,0.38123 1.06665,0.84717 0.85901,0.92689 1.65862,0.95101 2.21543,0.0668 0.29539,-0.46908 0.10767,-0.82498 -1.06579,-2.02065 l -1.42432,-1.45129 0.76241,-0.53401 c 1.74661,-1.223377 3.49432,-0.19826 4.58172,2.68741 1.4811,3.93043 0.27288,10.44681 -2.14088,11.54659 -1.14934,0.52367 -1.26149,0.50926 -2.2817,-0.29324 z m 6.6059,-0.24407 c -0.69484,-0.7678 -0.71732,-2.03426 -0.0361,-2.03426 0.65943,0 2.12764,1.46822 2.12764,2.12764 0,0.71493 -1.41729,0.65165 -2.09153,-0.0934 z m 2.7508,0.0934 c 0,-0.28019 0.36409,-0.87353 0.8091,-1.31854 0.445,-0.445 1.03834,-0.8091 1.31853,-0.8091 0.71493,0 0.65165,1.41729 -0.0934,2.09153 -0.76779,0.69485 -2.03425,0.71732 -2.03425,0.0361 z m -0.82409,-1.798 c -0.11205,-0.1813 0.11046,-0.32964 0.49445,-0.32964 0.384,0 0.6065,0.14834 0.49445,0.32964 -0.11205,0.18129 -0.33455,0.32963 -0.49445,0.32963 -0.1599,0 -0.3824,-0.14834 -0.49445,-0.32963 z m -1.15372,-1.21767 c -1.4086,-0.50342 -1.8057,-2.40831 -0.50205,-2.40831 0.92803,0 2.00436,1.35308 1.70236,2.14008 -0.19943,0.5197 -0.38233,0.56057 -1.20031,0.26823 z m 2.20119,0.0126 c -0.68426,-0.68425 0.57429,-2.42094 1.75442,-2.42094 0.75728,0 0.88725,0.90251 0.24722,1.7167 -0.47809,0.60819 -1.67617,1.02972 -2.00164,0.70424 z m -1.04747,-2.42094 c -0.11205,-0.18129 0.11046,-0.32963 0.49445,-0.32963 0.384,0 0.6065,0.14834 0.49445,0.32963 -0.11205,0.1813 -0.33455,0.32964 -0.49445,0.32964 -0.1599,0 -0.3824,-0.14834 -0.49445,-0.32964 z m -1.73058,-1.49454 c -0.85904,-0.60303 -1.02557,-2.13143 -0.23224,-2.13143 0.6753,0 2.21263,1.55789 2.04226,2.06958 -0.20442,0.61398 -0.98547,0.64066 -1.81002,0.0618 z m 2.72369,0.18282 c -0.431,-0.69738 1.04787,-2.31425 2.11674,-2.31425 0.57805,0 0.39713,1.50452 -0.25151,2.09153 -0.67244,0.60856 -1.56118,0.71468 -1.86523,0.22272 z m -1.092,-2.38017 c -0.54186,-0.54187 -0.49647,-1.65528 0.0989,-2.42574 0.48945,-0.63339 0.49945,-0.63339 0.9889,0 0.59537,0.77046 0.64076,1.88387 0.0989,2.42574 -0.49572,0.49572 -0.69095,0.49572 -1.18668,0 z m 10.3981,9.55844 c 0.48028,-0.39859 0.55092,-1.45771 0.1152,-1.727 -0.16428,-0.10153 -0.22094,-0.48191 -0.12591,-0.84529 0.25105,-0.96001 -0.48183,-1.64609 -1.75838,-1.64609 h -1.11336 v 2.27997 c 0,1.51189 0.13881,2.33829 0.41204,2.45308 0.52886,0.2222 1.9357,-0.0709 2.47041,-0.51467 z m -2.00342,-0.48253 c -0.50041,-0.50041 -0.17131,-1.09878 0.60432,-1.09878 0.60433,0 0.82409,0.17581 0.82409,0.65927 0,0.64316 -0.93659,0.93134 -1.42841,0.43951 z m 0.0114,-1.9664 c -0.46352,-0.46353 -0.21154,-0.78055 0.6204,-0.78055 0.53466,0 0.8005,0.15334 0.71436,0.41205 -0.15867,0.47654 -0.99564,0.70761 -1.33476,0.3685 z m 5.65761,2.055 c -0.30517,-0.66979 -0.30807,-0.96651 -0.0123,-1.26225 1.03402,-1.03401 -0.0274,-2.5622 -1.77954,-2.5622 h -1.13018 v 2.30744 c 0,1.31853 0.14128,2.30744 0.32964,2.30744 0.1813,0 0.32963,-0.29667 0.32963,-0.65927 0,-0.43951 0.21976,-0.65927 0.65927,-0.65927 0.3626,0 0.65927,0.13774 0.65927,0.30609 0,0.38101 1.01716,1.4237 1.2053,1.23556 0.0759,-0.0759 -0.0416,-0.53195 -0.26105,-1.01354 z m -2.26279,-2.17628 c 0,-0.48346 0.21976,-0.65927 0.82409,-0.65927 0.60432,0 0.82408,0.17581 0.82408,0.65927 0,0.48346 -0.21976,0.65927 -0.82408,0.65927 -0.60433,0 -0.82409,-0.17581 -0.82409,-0.65927 z m 5.93341,2.7532 c 0,-0.2222 -0.47067,-0.45047 -1.04592,-0.50729 -1.42019,-0.14025 -1.59055,-0.85421 -0.2356,-0.9874 1.4358,-0.14115 1.62025,-0.85475 0.25561,-0.98891 -1.52573,-0.14998 -1.65593,-0.92887 -0.15528,-0.92887 0.84957,0 1.18119,-0.14413 1.18119,-0.5134 0,-0.40015 -0.30904,-0.49104 -1.40094,-0.41204 l -1.40095,0.10136 -0.0995,2.1126 c -0.0637,1.35221 0.0388,2.19806 0.28464,2.35002 0.62893,0.38869 2.61675,0.21696 2.61675,-0.22607 z m 1.31853,-0.3004 c 0,-0.68715 1.56,-0.59641 1.93957,0.11282 0.47994,0.89677 3.61269,0.70146 4.40298,-0.27451 1.36635,-1.68736 -3.3e-4,-4.08853 -2.20457,-3.87292 -0.98545,0.0964 -1.0099,0.14193 -1.17127,2.18118 l -0.16482,2.08272 -0.777,-2.18082 c -0.42735,-1.19945 -0.93471,-2.12826 -1.12745,-2.06401 -0.45775,0.15258 -1.95305,4.15483 -1.70329,4.55895 0.25839,0.41808 0.80585,0.0489 0.80585,-0.54341 z m 3.95561,-1.62871 c 0,-1.35684 0.0693,-1.48336 0.81249,-1.48336 0.75243,0 1.49495,0.79616 1.49495,1.60296 0,0.54966 -0.99793,1.36375 -1.67172,1.36375 -0.53369,0 -0.63572,-0.23807 -0.63572,-1.48335 z m -3.29634,-0.34909 c 0,-0.28265 0.14834,-0.42223 0.32964,-0.31018 0.18129,0.11205 0.32963,0.3433 0.32963,0.5139 0,0.1706 -0.14834,0.31018 -0.32963,0.31018 -0.1813,0 -0.32964,-0.23125 -0.32964,-0.5139 z m -8.56386,-5.59229 c 0.56497,-0.68075 0.11518,-1.05076 -0.6764,-0.55641 -0.84108,0.52526 -1.15621,0.50428 -1.77892,-0.11843 -1.32195,-1.32195 0.035,-3.29946 1.66533,-2.42693 0.98299,0.52608 1.49873,0.0866 0.63744,-0.54318 -1.54548,-1.13009 -3.58992,-0.0823 -3.58992,1.83993 0,0.53922 0.27022,1.27898 0.60048,1.64392 0.71926,0.79476 2.53867,0.88805 3.14199,0.1611 z m 1.37243,-0.40407 c 0.0879,-0.76428 0.25945,-0.9065 1.09321,-0.9065 0.83376,0 1.00526,0.14222 1.0932,0.9065 0.21052,1.82956 0.71978,0.83835 0.71978,-1.40095 0,-2.23929 -0.50926,-3.2305 -0.71978,-1.40094 -0.0879,0.76428 -0.25944,0.90649 -1.0932,0.90649 -0.83376,0 -1.00527,-0.14221 -1.09321,-0.90649 -0.21051,-1.82956 -0.71978,-0.83835 -0.71978,1.40094 0,2.2393 0.50927,3.23051 0.71978,1.40095 z m 6.46624,0.51093 c 0.47633,-0.47633 0.53482,-4.21931 0.0659,-4.21931 -0.18129,0 -0.32963,0.72351 -0.32963,1.6078 0,1.70139 -0.57966,2.57538 -1.47915,2.23021 -0.36195,-0.13889 -0.49865,-0.69121 -0.49865,-2.01468 0,-1.40099 -0.11453,-1.82333 -0.49445,-1.82333 -0.68515,0 -0.6712,2.8973 0.0187,3.88226 0.56532,0.8071 2.06161,0.9927 2.71727,0.33705 z m 1.71409,-0.42853 c 0,-0.46626 0.19051,-0.82408 0.43875,-0.82408 0.24131,0 0.63722,0.37084 0.87979,0.82408 0.24257,0.45325 0.53202,0.82409 0.64324,0.82409 0.11121,0 0.23071,-0.9623 0.26557,-2.13844 0.0593,-1.99969 0.0126,-2.15117 -0.71883,-2.33475 -0.43021,-0.10798 -1.13104,-0.14695 -1.5574,-0.0866 -0.68889,0.0975 -0.78646,0.30721 -0.87633,1.88343 -0.0556,0.97553 -0.0232,1.97679 0.0721,2.22502 0.28866,0.75224 0.85315,0.50561 0.85315,-0.37275 z m 0,-2.30743 c 0,-0.71361 0.13328,-0.85101 0.74168,-0.7646 0.48681,0.0691 0.74168,0.33188 0.74168,0.7646 0,0.43272 -0.25487,0.69546 -0.74168,0.7646 -0.6084,0.0864 -0.74168,-0.051 -0.74168,-0.7646 z m 3.62598,0.82408 c 0,-1.31853 -0.14128,-2.30743 -0.32964,-2.30743 -0.18836,0 -0.32963,0.9889 -0.32963,2.30743 0,1.31854 0.14127,2.30744 0.32963,2.30744 0.18836,0 0.32964,-0.9889 0.32964,-2.30744 z m 3.61319,1.67205 c 0.49481,-0.92457 0.10799,-1.5895 -1.17009,-2.0113 -0.61851,-0.20413 -1.12457,-0.51263 -1.12457,-0.68556 0,-0.53495 0.97083,-0.71907 1.49552,-0.28363 0.64923,0.53882 1.02849,0.1536 0.4889,-0.49658 -0.52888,-0.63725 -2.10956,-0.65154 -2.63056,-0.0238 -0.62384,0.75168 -0.0889,1.75268 1.15634,2.16364 0.62588,0.20656 1.13797,0.51705 1.13797,0.68997 0,0.51344 -0.88953,0.69974 -1.57907,0.33071 -0.7753,-0.41493 -1.19397,-0.10355 -0.68515,0.50955 0.57103,0.68804 2.50792,0.5596 2.91071,-0.19302 z"
         id="path948" /><path
         style="fill:#333333;fill-opacity:1;stroke-width:0.329634"
         d="m 105.91538,106.80208 c -0.0124,-7.850138 0.064,-9.391226 0.49815,-10.053828 l 0.51275,-0.782555 h 20.82815 20.82815 l 0.72495,1.49217 c 0.68994,1.420103 0.72496,1.905672 0.72496,10.053833 v 8.56166 h -18.70158 c -17.99982,0 -18.66133,-0.0216 -17.62912,-0.57686 0.58985,-0.31727 1.35883,-1.0141 1.70883,-1.54849 l 0.63637,-0.97164 0.33208,0.87344 c 0.43116,1.13404 1.80127,1.81354 3.65674,1.81354 1.89431,0 3.09625,-0.61857 3.60947,-1.85758 0.40517,-0.97818 0.22431,-2.34729 -0.31008,-2.34729 -0.15518,0 -0.0563,-0.45281 0.21983,-1.00625 0.4002,-0.80221 0.42548,-1.19099 0.12467,-1.9172 -0.27305,-0.6592 -0.2798,-1.16744 -0.0244,-1.83916 0.36536,-0.96097 0.18169,-2.1597 -0.33091,-2.1597 -0.16114,0 -0.33656,-1.07543 -0.38983,-2.38984 -0.11859,-2.926316 -0.68317,-3.027965 -0.94645,-0.1704 -0.18689,2.0285 -0.19136,2.01373 -0.24722,-0.8185 -0.062,-3.143565 -0.71617,-4.104346 -0.71617,-1.05186 0,1.13769 -0.12497,1.7552 -0.32963,1.62872 -0.1813,-0.11205 -0.32963,-1.38165 -0.32963,-2.821343 0,-1.525322 -0.13756,-2.617616 -0.32964,-2.617616 -0.19208,0 -0.32963,1.092294 -0.32963,2.617616 0,1.439693 -0.14834,2.709293 -0.32963,2.821343 -0.2045,0.12638 -0.32964,-0.48454 -0.32964,-1.60926 0,-0.997145 -0.14833,-1.904665 -0.32963,-2.016714 -0.21025,-0.129941 -0.35114,1.027012 -0.38902,3.194474 l -0.0594,3.3982 -0.18784,-2.47225 c -0.10552,-1.38881 -0.3323,-2.438337 -0.51747,-2.39486 -0.1813,0.04257 -0.4038,1.08091 -0.49445,2.30744 l -0.16482,2.23004 -0.48582,-1.46462 c -0.7046,-2.12421 -2.56885,-3.974339 -4.00467,-3.974339 -1.25044,0 -2.39803,0.661145 -2.95544,1.702679 -0.31397,0.58666 -0.1673,0.88965 1.06876,2.20783 l 1.43267,1.52787 -1.33244,-1.23584 c -1.45726,-1.35161 -1.95351,-1.50861 -2.25827,-0.71442 -0.41671,1.08592 -0.14626,1.65852 1.69531,3.58934 l 1.8954,1.98724 -1.90717,-1.81287 c -2.05526,-1.95365 -2.52713,-1.92452 -2.53784,0.15666 -0.004,0.76563 0.48277,1.48822 2.21998,3.29586 2.13095,2.21734 2.141,2.23511 0.23766,0.42031 -1.09304,-1.0422 -2.10735,-1.89491 -2.254,-1.89491 -0.40285,0 0.10217,2.60773 0.8291,4.28113 0.7164,1.64919 1.7585,2.90425 2.753,3.3156 0.41987,0.17367 -0.43553,0.28028 -2.35564,0.29358 l -3.0149,0.0209 z m 24.05635,7.89533 c 0.33486,-0.51984 0.009,-3.2288 -0.45848,-3.81578 -0.18063,-0.22663 -0.82943,-0.41205 -1.44177,-0.41205 h -1.11336 v 2.51566 2.51565 l 1.36604,-0.18322 c 0.75133,-0.10077 1.49273,-0.37989 1.64757,-0.62026 z m -2.19599,-0.61233 c -0.12802,-0.20713 -0.0777,-0.53171 0.11192,-0.72128 0.443,-0.443 1.47582,-0.0566 1.29559,0.4847 -0.18348,0.55105 -1.11627,0.70783 -1.40751,0.23658 z m -0.15835,-2.29696 c 0,-0.1813 0.29667,-0.32964 0.65927,-0.32964 0.36259,0 0.65926,0.14834 0.65926,0.32964 0,0.1813 -0.29667,0.32963 -0.65926,0.32963 -0.3626,0 -0.65927,-0.14833 -0.65927,-0.32963 z m 3.62597,2.80189 c 0,-1.09826 0.76272,-1.05911 1.59381,0.0818 0.74502,1.02274 1.3186,0.80393 0.82026,-0.31291 -0.21944,-0.49178 -0.21168,-1.03625 0.0237,-1.65971 0.50777,-1.34524 -0.0482,-2.04151 -1.72961,-2.16615 l -1.36738,-0.10136 v 2.4912 c 0,1.44105 0.13896,2.49121 0.32964,2.49121 0.1813,0 0.32963,-0.37084 0.32963,-0.82408 z m 0.23115,-2.02135 c -0.51794,-0.51795 -0.18875,-1.11018 0.61711,-1.11018 0.62829,0 0.81963,0.14861 0.73789,0.57308 -0.11556,0.60006 -0.95808,0.93402 -1.355,0.5371 z m 6.93853,2.1355 c 0.20997,-0.80293 1.60524,-0.79919 2.03587,0.005 0.25984,0.48551 0.67252,0.60315 1.97128,0.56194 2.04162,-0.0648 2.99742,-0.82396 2.99742,-2.3808 0,-1.55934 -1.01288,-2.48725 -2.57344,-2.35754 l -1.21734,0.10119 -0.16482,1.9778 -0.16482,1.97781 -0.68673,-1.97781 c -0.4027,-1.15976 -0.87933,-1.9778 -1.15237,-1.9778 -0.27141,0 -0.75817,0.82495 -1.167,1.9778 -0.38576,1.08779 -0.79429,1.94072 -0.90785,1.8954 -0.11356,-0.0453 -0.65148,-0.0824 -1.19537,-0.0824 -1.26135,0 -1.35402,-0.90189 -0.10783,-1.04942 1.28331,-0.15192 1.39647,-0.92838 0.1353,-0.92838 -1.41717,0 -1.36941,-0.9131 0.0549,-1.05043 1.62169,-0.15636 1.28214,-0.74903 -0.49445,-0.86303 l -1.56576,-0.10047 v 2.50032 2.50032 l 2.02191,-0.0607 c 1.65853,-0.0498 2.05051,-0.17005 2.18106,-0.66927 z m 4.25763,-0.49873 c -0.12087,-0.12086 -0.21976,-0.79822 -0.21976,-1.50524 0,-1.1962 0.0605,-1.27825 0.87094,-1.18119 1.22128,0.14626 1.6428,1.38135 0.76948,2.25467 -0.68412,0.68412 -1.05545,0.79697 -1.42066,0.43176 z m -3.5161,-1.44786 c 0,-0.192 0.14834,-0.25742 0.32964,-0.14537 0.18129,0.11205 0.32963,0.26914 0.32963,0.34909 0,0.0799 -0.14834,0.14536 -0.32963,0.14536 -0.1813,0 -0.32964,-0.15709 -0.32964,-0.34908 z m -8.6364,-5.65025 c 0.69718,-0.69718 0.42646,-0.95865 -0.76177,-0.73573 -1.91555,0.35936 -2.86781,-1.07369 -1.52248,-2.29118 0.51562,-0.46664 0.75861,-0.49321 1.48474,-0.16236 1.02577,0.46737 1.46607,0.18812 0.85821,-0.54429 -0.27819,-0.3352 -0.8379,-0.48399 -1.57998,-0.42001 -2.13097,0.18372 -3.01741,2.53449 -1.52028,4.03163 0.61113,0.61112 2.47755,0.68595 3.04156,0.12194 z m 1.65358,-0.70117 c 0.0802,-0.6775 0.2846,-0.88107 0.8846,-0.88107 0.6,0 0.80439,0.20357 0.8846,0.88107 0.0574,0.48459 0.28972,0.94195 0.51634,1.01637 0.30389,0.0998 0.41204,-0.48477 0.41204,-2.22708 0,-1.74251 -0.10811,-2.32677 -0.41204,-2.22668 -0.22662,0.0746 -0.45944,0.45784 -0.51738,0.85156 -0.14767,1.00359 -1.61946,1.00359 -1.76713,0 -0.0579,-0.39372 -0.29075,-0.77692 -0.51738,-0.85156 -0.30392,-0.10009 -0.41204,0.48417 -0.41204,2.22668 0,1.74231 0.10815,2.32686 0.41204,2.22708 0.22663,-0.0744 0.45898,-0.53178 0.51635,-1.01637 z m 6.25763,0.70117 c 0.47633,-0.47633 0.53482,-4.21931 0.0659,-4.21931 -0.18129,0 -0.3319,0.63042 -0.33468,1.40094 -0.006,1.68704 -0.35779,2.32997 -1.18817,2.17197 -0.49646,-0.0945 -0.63959,-0.46162 -0.7194,-1.84542 -0.0716,-1.2422 -0.2337,-1.72749 -0.57686,-1.72749 -0.69449,0 -0.6607,3.3954 0.0408,4.09687 0.61301,0.61301 2.15236,0.68249 2.71242,0.12244 z m 1.77358,-0.3203 c 0.15124,-1.02785 0.75326,-1.08667 1.19518,-0.11676 0.20865,0.45794 0.61027,0.83262 0.89248,0.83262 0.4184,0 0.44503,-0.12723 0.14428,-0.68918 -0.27387,-0.51174 -0.26975,-0.92837 0.016,-1.61826 0.62271,-1.50335 -0.0131,-2.30743 -1.82458,-2.30743 h -1.47176 v 2.30743 c 0,1.78144 0.10749,2.30744 0.47153,2.30744 0.25934,0 0.51892,-0.32214 0.57686,-0.71586 z m 0.0658,-2.07024 c -0.27227,-0.70955 0.11676,-1.1307 0.86397,-0.9353 0.78707,0.20583 0.86946,0.93301 0.13753,1.21388 -0.72859,0.27958 -0.79432,0.2613 -1.0015,-0.27858 z m 3.50072,0.45119 c 0,-1.6112 -0.11733,-2.29579 -0.37854,-2.20872 -0.22013,0.0734 -0.37175,0.8091 -0.36231,1.75804 0.0254,2.55134 0.0599,2.78559 0.41121,2.78559 0.18873,0 0.32964,-0.99806 0.32964,-2.33491 z m 3.61282,1.85629 c 0.65485,-0.78903 0.24546,-1.62703 -1.10564,-2.26321 -0.86917,-0.40926 -1.16744,-0.70757 -0.93746,-0.93755 0.22998,-0.22998 0.5673,-0.21421 1.06019,0.0496 0.8278,0.44302 1.16522,0.26083 0.88231,-0.47641 -0.25222,-0.65727 -2.30128,-0.67894 -2.83983,-0.03 -0.62384,0.75168 -0.0889,1.75268 1.15634,2.16363 0.62588,0.20656 1.13797,0.50004 1.13797,0.65217 0,0.46535 -0.78357,0.57935 -1.56716,0.228 -0.90993,-0.40801 -1.31174,-0.0906 -0.74689,0.59002 0.52944,0.63794 2.43775,0.65328 2.96017,0.0238 z m -36.87197,6.77792 c -0.48944,-0.52396 -1.0615,-1.51176 -1.27123,-2.19513 l -0.38133,-1.24248 1.26926,1.2394 c 0.96228,0.93964 1.43706,1.18614 1.96307,1.01919 1.25395,-0.39799 0.8118,-1.52367 -1.52239,-3.87588 -1.2189,-1.22832 -2.06384,-2.2333 -1.87765,-2.2333 0.1862,0 0.84734,0.52494 1.4692,1.16654 1.29572,1.33685 2.39671,1.42203 2.56982,0.19883 0.0715,-0.50513 -0.20978,-1.11103 -0.80335,-1.73058 -0.86587,-0.90377 -0.87702,-0.95333 -0.21462,-0.95333 1.2967,0 1.27377,-1.24973 -0.0477,-2.60309 -1.35102,-1.38357 -1.41171,-1.60363 -0.61004,-2.21218 0.96269,-0.730787 2.05955,-0.5293 3.08302,0.56633 3.35253,3.5889 2.04101,13.80832 -1.7721,13.80832 -0.63792,0 -1.26502,-0.32223 -1.85391,-0.95264 z m 7.30048,0.447 c -1.0135,-0.71146 -0.98806,-1.80179 0.0421,-1.80179 0.8719,0 1.40356,0.49675 1.5748,1.4714 0.1473,0.83837 -0.65861,1.00305 -1.61685,0.33039 z m 2.77764,0.25842 c -0.28945,-0.49159 0.43767,-1.75247 1.17022,-2.02926 0.90861,-0.34333 1.24388,-0.18251 1.24388,0.59668 0,1.07628 -1.94447,2.23017 -2.4141,1.43258 z m -2.97377,-3.98156 c -0.68951,-0.76191 -0.70578,-1.70463 -0.0294,-1.70463 0.98116,0 1.79132,0.67612 1.79132,1.49495 0,0.99173 -0.95166,1.10498 -1.7619,0.20968 z m 2.92668,-0.13887 c 0.43286,-1.45718 2.46119,-2.22364 2.46119,-0.93003 0,0.88247 -0.87754,1.67171 -1.85875,1.67171 -0.69874,0 -0.78954,-0.11178 -0.60244,-0.74168 z m -0.83515,-1.56576 c 0,-0.18129 0.14833,-0.32963 0.32963,-0.32963 0.1813,0 0.32964,0.14834 0.32964,0.32963 0,0.1813 -0.14834,0.32964 -0.32964,0.32964 -0.1813,0 -0.32963,-0.14834 -0.32963,-0.32964 z m -1.8954,-1.49454 c -0.82149,-0.57667 -1.02846,-2.13143 -0.28374,-2.13143 0.67459,0 1.797,1.05659 1.91325,1.80104 0.13069,0.83698 -0.67511,1.00036 -1.62951,0.33039 z m 2.72369,0.18282 c -0.431,-0.69738 1.04787,-2.31425 2.11674,-2.31425 0.19322,0 0.35131,0.36243 0.35131,0.8054 0,1.20005 -1.92976,2.37982 -2.46805,1.50885 z m -1.20611,-2.78281 c -0.29661,-0.65099 -0.29661,-1.04896 0,-1.69995 0.46823,-1.02765 1.08941,-0.89782 1.51888,0.31745 0.56982,1.61243 -0.83253,2.88888 -1.51888,1.3825 z"
         id="path946" /></g></g></svg>
